<?xml version="1.0" encoding="utf-8"?>
<!-- Generator: Adobe Illustrator 19.0.1, SVG Export Plug-In . SVG Version: 6.00 Build 0)  -->
<svg version="1.1" id="Слой_1" xmlns="http://www.w3.org/2000/svg" xmlns:xlink="http://www.w3.org/1999/xlink" x="0px" y="0px"
	 viewBox="-307 7.5 584.9 546.5" style="enable-background:new -307 7.5 584.9 546.5;" xml:space="preserve">
<style type="text/css">
	.st0{fill:#FFFFFF;stroke:#292929;stroke-width:5;stroke-linecap:round;stroke-linejoin:round;stroke-miterlimit:10;}
	.st1{opacity:0.65;}
	.st2{fill:#F5F5F5;}
	.st3{clip-path:url(#SVGID_2_);fill:none;stroke:#F3F3F3;stroke-width:2;stroke-miterlimit:20;}
</style>
<g id="Group_1" transform="translate(28.554)">
	<path id="Path_1" class="st0" d="M-280.4,147.5c-11.8,20.9-20.8,43.2-26.8,66.4"/>
	<path id="Path_2" class="st0" d="M-308.6,343.7c5.6,23.3,14.2,45.8,25.7,66.9"/>
	<path id="Path_3" class="st0" d="M-175.2,518.6c21.1,11.5,43.5,20.1,66.9,25.7"/>
	<path id="Path_4" class="st0" d="M-112.4,19.4c-23.2,6-45.5,15-66.4,26.8"/>
	<path id="Path_5" class="st0" d="M189.4,414.7c11.8-20.9,20.8-43.2,26.8-66.4"/>
	<path id="Path_6" class="st0" d="M217.6,218.6c-5.6-23.3-14.2-45.8-25.7-66.9"/>
	<path id="Path_7" class="st0" d="M84.2,43.7C63.1,32.2,40.6,23.6,17.3,18"/>
	<path id="Path_8" class="st0" d="M21.4,542.9c23.2-6,45.5-15,66.4-26.8"/>
</g>
<g class="st1">
	<path class="st2" d="M-219,280c0-112.9,91.6-204.5,204.5-204.5S190,167.1,190,280S98.4,484.5-14.5,484.5S-219,392.9-219,280z"/>
	<g>
		<g>
			<defs>
				<circle id="SVGID_1_" cx="-14.5" cy="280" r="204.5"/>
			</defs>
			<clipPath id="SVGID_2_">
				<use xlink:href="#SVGID_1_"  style="overflow:visible;"/>
			</clipPath>
			<path class="st3" d="M-219,280c0-112.9,91.6-204.5,204.5-204.5S190,167.1,190,280S98.4,484.5-14.5,484.5S-219,392.9-219,280z"/>
		</g>
	</g>
</g>
</svg>
