<?xml version="1.0" encoding="utf-8"?>
<!-- Generator: Adobe Illustrator 19.0.1, SVG Export Plug-In . SVG Version: 6.00 Build 0)  -->
<svg version="1.1" id="Слой_1" xmlns="http://www.w3.org/2000/svg" xmlns:xlink="http://www.w3.org/1999/xlink" x="0px" y="0px"
	 viewBox="218 -288.1 1183.5 1137.1" style="enable-background:new 218 -288.1 1183.5 1137.1;" xml:space="preserve">
<style type="text/css">
	.st0{opacity:0.12;}
	.st1{fill:url(#Path_18_1_);}
	.st2{fill:url(#Path_19_1_);}
	.st3{fill:url(#Path_20_1_);}
	.st4{fill:url(#Path_21_1_);}
	.st5{fill:url(#Path_22_1_);}
	.st6{fill:url(#Path_23_1_);}
	.st7{fill:url(#Path_24_1_);}
	.st8{fill:url(#Path_25_1_);}
	.st9{fill:url(#Path_26_1_);}
	.st10{fill:url(#Path_27_1_);}
	.st11{fill:url(#Path_28_1_);}
	.st12{fill:url(#Path_29_1_);}
	.st13{fill:url(#Path_30_1_);}
	.st14{fill:url(#Path_31_1_);}
	.st15{fill:url(#Path_32_1_);}
	.st16{fill:url(#Path_33_1_);}
	.st17{fill:url(#Path_34_1_);}
	.st18{fill:url(#Path_35_1_);}
	.st19{fill:url(#Path_36_1_);}
	.st20{fill:url(#Path_37_1_);}
	.st21{fill:url(#Path_38_1_);}
	.st22{fill:url(#Path_39_1_);}
	.st23{fill:url(#Path_40_1_);}
	.st24{fill:url(#Path_41_1_);}
	.st25{fill:url(#Path_42_1_);}
	.st26{fill:url(#Path_43_1_);}
	.st27{fill:url(#Path_44_1_);}
	.st28{fill:url(#Path_45_1_);}
	.st29{fill:url(#Path_46_1_);}
	.st30{fill:url(#Path_47_1_);}
	.st31{fill:url(#Path_48_1_);}
	.st32{fill:url(#Path_49_1_);}
	.st33{fill:url(#Path_50_1_);}
	.st34{fill:url(#Path_51_1_);}
	.st35{fill:url(#Path_52_1_);}
	.st36{fill:url(#Path_53_1_);}
	.st37{fill:url(#Path_54_1_);}
	.st38{fill:url(#Path_55_1_);}
</style>
<g id="Vector_Smart_Object" transform="matrix(-0.978, 0.208, -0.208, -0.978, 1565.403, 935.587)" class="st0">
	<g id="Group_40" transform="translate(99.04 89.891)">
		<g id="Group_2" transform="translate(5.493)">
			
				<linearGradient id="Path_18_1_" gradientUnits="userSpaceOnUse" x1="1109.9398" y1="552.429" x2="1110.9398" y2="552.429" gradientTransform="matrix(-1259.4818 -184.8748 -267.8652 869.2672 1545746.25 -274307.5938)">
				<stop  offset="0" style="stop-color:#FFC180"/>
				<stop  offset="0.166" style="stop-color:#FFA87E"/>
				<stop  offset="0.517" style="stop-color:#FF6B7A"/>
				<stop  offset="1" style="stop-color:#FF0D75"/>
			</linearGradient>
			<path id="Path_18" class="st1" d="M-153.7,256.5c41,13.1,72.7,45.8,91.7,94.6c16.3,41.8,23,95.1,19,150
				c-4.8,65.1-22.8,127.6-40.2,188l-76.7,266.1c-8.2,28.4-16.7,57.8-17.5,88.5c-1,33.7,8.7,64.3,25.8,81.7
				c35,35.6,89.1,12.7,124.5-23.7c57.8-59.3,92.8-146.8,123.7-224c31-77.5,66.1-165.3,123.9-224.9c52.1-53.8,139.1-88.4,207-37.4
				c38.7,29.1,62.3,79.2,85.1,127.6c3,6.3,6,12.6,8.9,18.9c23.8,49.7,57.7,108.5,109.4,122.4c33.2,8.9,71.1-1.7,115.9-32.4
				c10.6-7.3,21.2-15.2,31.4-23c24.1-18.1,49-36.9,76.1-48.2c57.4-23.9,123.8-12,173.2,31.1c49.4,43.1,80.5,116.1,81.1,190.6l-1.8,0
				c-0.6-73.8-31.3-146.1-80.3-188.8c-49-42.7-114.7-54.5-171.6-30.8c-27,11.2-51.8,29.9-75.8,48c-10.2,7.7-20.8,15.7-31.5,23
				c-45.2,31-83.5,41.7-117.1,32.6c-52.4-14.1-86.6-73.4-110.6-123.4c-3-6.2-6-12.6-9-18.9c-22.7-48.2-46.1-98.1-84.4-126.8
				c-67.2-50.5-153.3-16.1-204.9,37.1C164.1,713.8,129,801.4,98.1,878.7c-31,77.4-66,165-124.1,224.7c-23.2,23.9-54.4,42-83.3,42
				c-16.4,0.2-32.2-6.4-43.5-18.3c-17.5-17.8-27.4-49-26.4-83.4c0.9-31,9.4-60.6,17.6-89.1l76.7-266.1
				c17.4-60.3,35.3-122.6,40.1-187.5c6.8-93.5-17.7-213-109.4-242.3"/>
		</g>
		<g id="Group_3" transform="translate(11.713 20.472)">
			
				<linearGradient id="Path_19_1_" gradientUnits="userSpaceOnUse" x1="1103.7173" y1="531.9677" x2="1104.7173" y2="531.9677" gradientTransform="matrix(-1253.8099 -179.2192 -266.659 842.675 1525526.375 -249781.2031)">
				<stop  offset="0" style="stop-color:#FFBE81"/>
				<stop  offset="0.175" style="stop-color:#FFA47F"/>
				<stop  offset="0.549" style="stop-color:#FF637A"/>
				<stop  offset="1" style="stop-color:#FF0D75"/>
			</linearGradient>
			<path id="Path_19" class="st2" d="M-162.5,256.5c3.1,0.9,6.2,2,9.2,3.2c37.1,14.4,65.8,46.2,83.2,92
				c14.9,39.3,21.3,88.9,18,139.8C-55.8,548-70,602.4-84.2,653.2c-1.7,6-3.4,12-5.1,18.1l-0.3,1.1c-25.3,89.7-48,171.5-69.7,250.3
				l-2,7.3c-7.7,27.9-15.6,56.8-16.3,86.9c-0.7,33.2,8.8,63.4,25.6,80.6c23.7,24.6,60.4,24.5,98.3-0.4c8.7-5.7,16.7-12.2,24.1-19.5
				c54.2-53.4,88.6-130,124.7-217.4l0.2-0.4c33.2-80.3,67.5-163.4,123.8-221.7c11.3-11.8,23.9-22.3,37.5-31.4
				c58.3-38.8,120.9-41.9,167.4-8.3c28.9,20.9,48.8,53.2,62.8,79.1c8.1,14.8,15.7,30.5,23.1,45.6c2.9,5.8,5.7,11.7,8.6,17.5
				c24.1,48.7,58.3,106.4,109.2,120.7c17.7,4.9,37.1,4.3,57.8-1.8c17.6-5.2,36.2-14.3,56.8-27.9c10.5-6.9,21-14.5,31.2-21.8
				c23.8-17.2,48.5-35,75.3-45.6c27.8-10.9,58.1-13.8,87.5-8.5c31.2,5.6,60.3,19.5,84.4,40.1c49.4,41.9,80.8,112.3,81.9,183.5
				l-1.8,0c-1.1-70.6-32.2-140.2-81.2-181.7c-23.9-20.4-52.8-34.2-83.7-39.8c-29.1-5.3-59.1-2.3-86.7,8.4
				c-26.7,10.5-51.2,28.3-75,45.4c-10.2,7.3-20.7,14.9-31.3,21.8c-20.7,13.6-39.4,22.8-57.2,28.1c-21,6.2-40.7,6.8-58.7,1.8
				c-51.5-14.4-86-72.6-110.3-121.7c-2.9-5.8-5.7-11.6-8.6-17.5c-7.4-15.1-15-30.8-23-45.6c-13.9-25.6-33.6-57.6-62.2-78.4
				c-45.9-33.3-107.8-30.2-165.6,8.3c-13.5,9-26,19.5-37.2,31.1c-56,58-90.3,140.9-123.4,221.1l-0.2,0.4
				c-36.3,87.6-70.7,164.5-125.2,218.1c-7.5,7.4-15.6,14-24.4,19.7c-19.3,12.7-38.3,19-55.6,19c-16.9,0.2-33.1-6.6-44.7-18.9
				c-17.1-17.7-26.9-48.5-26.2-82.4c0.6-30.4,8.6-59.5,16.4-87.6l2-7.3c21.6-78.8,44.4-160.6,69.7-250.3l0.3-1.1
				c1.7-6,3.4-12,5.1-18.1c14.2-50.7,28.3-105,32-161.3c5.9-89.9-17.3-197.4-100-229.5c-3-1.1-6-2.2-9.1-3.1"/>
		</g>
		<g id="Group_4" transform="translate(17.926 40.962)">
			
				<linearGradient id="Path_20_1_" gradientUnits="userSpaceOnUse" x1="1097.5017" y1="511.4889" x2="1098.5017" y2="511.4889" gradientTransform="matrix(-1248.1798 -173.6326 -265.4615 816.407 1505480.75 -226347.1875)">
				<stop  offset="0" style="stop-color:#FFBB81"/>
				<stop  offset="0.185" style="stop-color:#FF9F7F"/>
				<stop  offset="0.583" style="stop-color:#FF5A7A"/>
				<stop  offset="1" style="stop-color:#FF0C75"/>
			</linearGradient>
			<path id="Path_20" class="st3" d="M-171.2,256.5c3.1,0.9,6.1,1.8,9,2.9c36.4,13.5,64.8,43.9,82.2,87.9
				c14.9,37.7,21.5,85.4,18.8,134.4c-3.1,54.3-16.3,106.6-29.6,155.5c-1.5,5.6-3,11.1-4.6,16.7l-0.5,1.7
				c-23.5,85.6-44.7,164.7-64.8,241.9l-1.9,7.2c-7.2,27.6-14.6,55.9-15,85.4c-0.4,32.6,9,62.4,25.4,79.6
				c33.5,35.3,78.5,13.3,96.4,2.2c8.5-5.3,16.5-11.5,23.9-18.4C23.1,1002,59,924.4,93.9,842.8l1.9-4.6
				c33.1-77.6,67.3-157.9,122.2-214.9c11.2-11.7,23.7-22.2,37.1-31.3c57.5-38.8,119.4-42.8,165.6-10.6
				c22.5,15.6,41.9,39.2,62.9,76.3c8.4,14.8,16.3,30.4,23.9,45.5c2.7,5.4,5.4,10.7,8.1,16c24.5,47.8,59,104.5,109,119
				c17.5,5.1,36.7,4.8,57.2-0.9c17.4-4.8,35.8-13.3,56.2-26.1c10.5-6.5,20.9-13.7,31-20.7c23.6-16.2,48-33,74.5-42.9
				c27.7-10.2,57.7-12.7,86.7-7.3c30.9,5.7,59.8,19.3,83.9,39.4c49.4,40.8,81.1,108.3,82.8,176.4l-1.8,0.1
				c-1.7-67.3-33.1-134.2-82-174.6c-23.9-19.9-52.6-33.4-83.2-39c-28.8-5.4-58.4-2.9-85.9,7.2c-26.4,9.8-50.7,26.6-74.2,42.8
				c-10.1,7-20.6,14.2-31.1,20.7c-20.6,12.8-39.1,21.4-56.6,26.2c-20.7,5.7-40.2,6-58,0.8c-50.7-14.7-85.4-71.8-110.1-119.9
				c-2.7-5.3-5.4-10.7-8.1-16c-7.6-15.1-15.5-30.7-23.9-45.4c-20.8-36.9-40-60.2-62.3-75.7C374.3,551.5,313,555.5,256,594
				c-13.3,9-25.7,19.5-36.9,31.1c-54.6,56.8-88.7,136.8-121.7,214.2l-1.9,4.6c-35,81.8-71.1,159.6-126.3,211.6
				c-7.4,7-15.5,13.2-24.1,18.6c-18.5,11.5-36.4,17.3-52.7,17.3c-17.5,0-33.1-6.6-45.6-19.8c-16.7-17.7-26.5-48.1-26-81.3
				c0.4-29.7,7.8-58.3,15-85.8l1.9-7.3c20.1-77.2,41.3-156.3,64.8-241.9l0.5-1.7c1.5-5.6,3.1-11.1,4.6-16.7
				c13.3-48.8,26.5-100.9,29.5-155c4.9-86.7-18.7-190-99.7-220.1c-2.9-1.1-5.9-2-8.9-2.9"/>
		</g>
		<g id="Group_5" transform="translate(23.073 61.434)">
			
				<linearGradient id="Path_21_1_" gradientUnits="userSpaceOnUse" x1="1092.3521" y1="491.0289" x2="1093.3521" y2="491.0289" gradientTransform="matrix(-1243.575 -168.0143 -264.4822 789.9902 1488110.75 -203716.9531)">
				<stop  offset="0" style="stop-color:#FFB882"/>
				<stop  offset="0.197" style="stop-color:#FF9B7F"/>
				<stop  offset="0.62" style="stop-color:#FF527A"/>
				<stop  offset="1" style="stop-color:#FF0C75"/>
			</linearGradient>
			<path id="Path_21" class="st4" d="M-178.9,256.5c3,0.8,6,1.7,8.9,2.7c80.4,28.5,104.8,128.6,100.8,212.9
				c-2.5,52.2-14.8,102.3-27.2,149.2c-1.3,4.8-2.5,9.5-3.8,14.3l-0.9,3.4c-21.7,81.4-41.3,157.8-59.9,233.6l-1.9,7.7
				c-6.6,26.7-13.4,54.4-13.5,83.2c-0.2,32.5,9,61.2,25.2,78.6c23.1,24.9,57.6,26.6,94.5,4.9c8.4-4.9,16.3-10.7,23.6-17.2
				c55.7-50,93.2-128.3,126.9-204.3l3.8-8.7c32.9-74.9,67-152.3,120.4-208c11.1-11.7,23.5-22.1,36.8-31.3
				c56.8-38.8,118-43.7,163.9-13c22.4,15,41.8,37.7,63,73.6c8.7,14.7,16.8,30.3,24.8,45.4c2.6,4.9,5.1,9.7,7.6,14.5
				c24.8,46.8,59.6,102.5,108.7,117.3c17.3,5.2,36.3,5.2,56.5,0.1c17.2-4.3,35.3-12.3,55.6-24.3c10.4-6.2,20.8-13,30.8-19.6
				c23.3-15.3,47.5-31.1,73.7-40.3c26.9-9.4,56.6-11.5,85.9-6c30.6,5.8,59.2,19.1,83.4,38.6c49.3,39.6,81.4,104.4,83.6,169.3
				l-1.8,0.1c-2.3-64.1-34-128.3-82.8-167.5c-24-19.4-52.4-32.5-82.7-38.3c-29-5.4-58.5-3.4-85.1,5.9c-26.1,9.2-50.1,24.9-73.4,40.1
				c-10.1,6.6-20.5,13.4-30.9,19.6c-20.4,12.1-38.7,20.1-56,24.4c-20.5,5.2-39.8,5.2-57.3-0.1c-49.8-15-84.8-71-109.8-118.2
				c-2.6-4.8-5.1-9.6-7.6-14.5c-7.9-15.1-16.1-30.7-24.7-45.3c-21-35.6-40.2-58.1-62.4-72.9c-45.3-30.3-105.9-25.5-162.2,13
				c-13.2,9-25.4,19.4-36.5,31c-53.1,55.4-87.1,132.7-120,207.4l-3.8,8.7c-33.7,76.2-71.4,154.7-127.4,205
				c-7.4,6.6-15.4,12.4-23.9,17.4c-17.4,10.2-34.3,15.3-49.7,15.3c-17.9,0-34-6.9-46.7-20.5c-16.6-17.8-26-47.1-25.8-80.3
				c0.2-29.1,7-56.9,13.6-83.8l1.9-7.7c18.6-75.8,38.2-152.2,59.9-233.6l0.9-3.4c1.3-4.8,2.5-9.5,3.8-14.3
				C-85.8,573.9-73.5,523.9-71,472c3.9-83.4-20.1-182.6-99.5-210.7c-2.9-1-5.8-1.9-8.8-2.7"/>
		</g>
		<g id="Group_6" transform="translate(20.565 81.906)">
			
				<linearGradient id="Path_22_1_" gradientUnits="userSpaceOnUse" x1="1094.8573" y1="470.5699" x2="1095.8573" y2="470.5699" gradientTransform="matrix(-1246.4454 -162.392 -265.0927 763.5549 1489245.375 -180862.9375)">
				<stop  offset="0" style="stop-color:#FCB583"/>
				<stop  offset="0.211" style="stop-color:#FC9680"/>
				<stop  offset="0.668" style="stop-color:#FD4879"/>
				<stop  offset="1" style="stop-color:#FF0C74"/>
			</linearGradient>
			<path id="Path_22" class="st5" d="M-179,256.5c3.1,0.8,6,1.6,8.7,2.5c78.7,26.2,103.6,122.3,100.6,203.5
				c-1.8,50-13.3,98-24.8,143l-4.4,16.9c-19.9,77.2-37.9,150.8-55,225.2l-1.9,8.1c-6,26-12.2,52.9-12.1,81
				c0.1,32,9.2,60.2,24.9,77.6c22.6,24.7,56.3,27.4,92.6,7.5c8.3-4.6,16.1-10,23.4-16.1C29.7,957.5,68.8,878.4,101.1,808l5.8-12.8
				C139.6,723,173.5,648.3,225.4,594c11.1-11.6,23.2-22,36.4-31.2c56-38.8,116.6-44.5,162.2-15.3c22.3,14.3,41.8,36.1,63,70.8
				c9,14.6,17.5,30.2,25.7,45.3c2.4,4.3,4.7,8.7,7.1,13c26.7,48.7,60.5,100.6,108.5,115.6c17.1,5.3,35.9,5.7,55.9,1.1
				c16.9-3.9,34.9-11.2,55-22.5c10.3-5.8,20.7-12.2,30.7-18.4c23.1-14.3,47-29.2,72.9-37.7c26.6-8.7,56-10.3,85.1-4.7
				c30.2,5.9,58.6,18.9,82.9,37.9c49.3,38.4,81.6,100.5,84.5,162.1l-1.8,0.1c-2.8-60.9-34.9-122.4-83.7-160.4
				c-24.1-18.8-52.2-31.7-82.2-37.6c-28.8-5.6-58-3.9-84.3,4.7c-25.8,8.4-49.6,23.2-72.6,37.5c-10,6.2-20.3,12.6-30.7,18.4
				c-20.2,11.3-38.3,18.7-55.4,22.6c-20.2,4.7-39.3,4.3-56.7-1.1c-48.6-15.2-82.6-67.4-109.5-116.5c-2.4-4.3-4.7-8.6-7.1-13
				c-8.2-15.1-16.7-30.7-25.6-45.2c-21.1-34.4-40.3-56.1-62.4-70.2c-45-28.9-105-23.1-160.5,15.3c-13,9.1-25.1,19.4-36.1,30.9
				c-51.7,54.1-85.5,128.6-118.1,200.6l-5.8,12.8C70.3,879.7,31,959-25.8,1007.5c-7.3,6.2-15.2,11.7-23.6,16.3
				c-16.3,9-32.1,13.4-46.7,13.4c-18.5,0-34.9-7.1-47.8-21.3c-16.2-17.7-25.5-46.6-25.6-79.2c-0.1-28.4,6.1-55.5,12.2-81.6l1.9-8.1
				c17.1-74.4,35.1-148.1,55-225.3l4.4-16.9c11.5-44.8,22.9-92.7,24.7-142.4c3-80.4-21.5-175.4-99.3-201.3c-2.7-0.9-5.5-1.7-8.6-2.5
				"/>
		</g>
		<g id="Group_7" transform="translate(18.057 102.395)">
			
				<linearGradient id="Path_23_1_" gradientUnits="userSpaceOnUse" x1="1097.3625" y1="450.0946" x2="1098.3625" y2="450.0946" gradientTransform="matrix(-1249.3226 -156.8351 -265.7046 737.4267 1490372.75 -159173.2656)">
				<stop  offset="0" style="stop-color:#F6B284"/>
				<stop  offset="0.227" style="stop-color:#F79080"/>
				<stop  offset="0.723" style="stop-color:#FC3D78"/>
				<stop  offset="1" style="stop-color:#FF0C74"/>
			</linearGradient>
			<path id="Path_23" class="st6" d="M-179,256.5c3.1,0.7,5.9,1.5,8.6,2.3C-93.3,282.9-68,374.8-70,452.9
				c-1.2,47.8-11.7,93.7-22.4,136.7l-4,16.2c-18.1,72.8-34.5,143.7-50.1,216.8l-1.8,8.6c-5.4,25.3-11,51.4-10.7,78.8
				c0.3,31.4,9.3,59.3,24.7,76.5c30.2,33.8,69.8,20.8,90.7,10.1c8.2-4.2,15.9-9.2,23.1-14.9c51.4-41.3,88.8-106.3,129-191.2
				c2.6-5.6,5.2-11.2,7.9-16.8c32.5-69.5,66.2-141.5,116.6-194.4c10.9-11.5,23-22,36-31.1c55.2-38.8,115.2-45.4,160.4-17.7
				c22.3,13.6,41.7,34.6,63.1,68.1c9.3,14.6,18.1,30.2,26.7,45.3c2.1,3.8,4.3,7.6,6.4,11.4c27.1,47.8,61.2,98.7,108.3,113.9
				c16.9,5.5,35.5,6.1,55.2,2c16.7-3.4,34.5-10.2,54.4-20.7c10.3-5.4,20.6-11.4,30.5-17.3c22.8-13.4,46.5-27.2,72.1-35
				c26.3-8,55.5-9.2,84.3-3.5c29.9,6,58.1,18.7,82.4,37.1c49.2,37.2,81.9,96.6,85.4,155l-1.8,0.2c-3.4-57.7-35.8-116.4-84.5-153.3
				c-24.1-18.3-52.1-30.9-81.8-36.8c-28.6-5.7-57.4-4.5-83.5,3.4c-25.5,7.8-49,21.6-71.8,34.9c-10,5.8-20.3,11.9-30.6,17.3
				c-20,10.5-37.9,17.4-54.8,20.8c-20,4.2-38.8,3.5-56-2.1c-47.7-15.4-82-66.7-109.3-114.8c-2.1-3.8-4.3-7.6-6.4-11.4
				c-8.5-15.1-17.3-30.7-26.6-45.2c-21.2-33.2-40.5-54-62.5-67.5c-44.7-27.4-104-20.8-158.8,17.7c-12.9,9.1-24.9,19.4-35.7,30.9
				c-50.2,52.7-83.7,124.5-116.2,193.9c-2.6,5.6-5.2,11.2-7.9,16.8C69.7,876.8,32.2,942-19.5,983.6c-7.3,5.8-15.1,10.9-23.4,15.1
				c-11,5.6-27,11.8-44.1,11.8c-16.2,0-33.5-5.5-48.5-22.4c-15.8-17.6-25-46.1-25.3-78.1c-0.3-27.7,5.3-54,10.7-79.4l1.8-8.6
				c15.6-73.2,32-144.1,50.1-216.9l4-16.2c10.6-42.8,21.1-88.6,22.3-136.1c2-77.2-23-168.1-99-191.9c-2.7-0.8-5.4-1.6-8.5-2.3"/>
		</g>
		<g id="Group_8" transform="translate(15.549 122.867)">
			
				<linearGradient id="Path_24_1_" gradientUnits="userSpaceOnUse" x1="1099.8676" y1="429.6373" x2="1100.8676" y2="429.6373" gradientTransform="matrix(-1252.2056 -151.2524 -266.3177 711.1772 1491501 -138570.5938)">
				<stop  offset="0" style="stop-color:#F1B084"/>
				<stop  offset="0.243" style="stop-color:#F48C80"/>
				<stop  offset="0.779" style="stop-color:#FB3177"/>
				<stop  offset="1" style="stop-color:#FF0B74"/>
			</linearGradient>
			<path id="Path_24" class="st7" d="M-179,256.5c3.1,0.7,5.8,1.3,8.4,2.1c75.4,22,101.2,109.8,100.1,184.6
				c-0.6,45.6-10.2,89.4-20,130.4l-3.7,15.4c-16.6,69.4-30.9,135.6-45.2,208.5l-1.8,9.1c-4.8,24.5-9.8,49.9-9.3,76.6
				c0.6,30.8,9.5,58.4,24.5,75.5c29.6,33.7,68.4,22.5,88.9,12.8c8.1-3.8,15.7-8.4,22.9-13.8c55.6-42.1,95.4-113.6,130-184.6
				c3.7-7.5,7.3-15.1,11-22.8c32-66.2,65.1-134.7,113.5-185.7c10.9-11.5,22.8-21.9,35.6-31.1c54.5-38.8,113.8-46.3,158.7-20.1
				c22.2,12.9,41.7,33,63.2,65.3c9.7,14.5,18.9,30.1,27.7,45.3c1.9,3.3,3.8,6.5,5.8,9.8c27.5,46.8,61.8,96.7,108.1,112.2
				c16.7,5.6,35.1,6.6,54.6,3c16.4-3,34-9.2,53.8-18.9c10.2-5.1,20.5-10.7,30.4-16.2c22.6-12.4,45.9-25.3,71.2-32.4
				c26-7.3,54.9-8,83.4-2.2c29.6,6.1,57.5,18.5,81.9,36.4c48.4,35.5,82.2,93.5,86.2,147.9l-1.8,0.2c-3.9-53.7-37.4-111.1-85.4-146.2
				c-24.2-17.8-51.9-30.1-81.3-36.1c-28.3-5.8-56.9-5-82.7,2.2c-25.2,7.1-48.4,19.9-70.9,32.3c-9.9,5.5-20.2,11.1-30.4,16.2
				c-19.9,9.8-37.6,16-54.2,19c-19.7,3.6-38.3,2.6-55.3-3c-46.7-15.6-81.4-65.9-109-113c-1.9-3.3-3.8-6.5-5.8-9.8
				c-8.9-15.1-18-30.8-27.7-45.2c-21.3-32-40.6-52-62.6-64.7c-44.3-25.9-103.1-18.4-157.1,20c-12.8,9.1-24.6,19.4-35.4,30.8
				c-48.2,50.8-81.2,119.1-113.1,185.2c-3.7,7.6-7.4,15.2-11,22.8c-34.8,71.2-74.7,143-130.6,185.4c-7.2,5.5-15,10.1-23.1,14
				c-10.2,4.8-24.9,10.1-40.8,10.1c-16.6,0-34.4-5.7-49.9-23.3c-15.4-17.5-24.5-45.6-25.1-77.1c-0.5-27,4.5-52.5,9.3-77.2l1.8-9.2
				c14.3-72.8,28.6-139.1,45.2-208.6l3.7-15.4c9.8-40.9,19.3-84.5,19.9-129.9c1-73.9-24.4-160.7-98.8-182.4
				c-2.6-0.8-5.3-1.4-8.3-2.1"/>
		</g>
		<g id="Group_9" transform="translate(13.041 143.357)">
			
				<linearGradient id="Path_25_1_" gradientUnits="userSpaceOnUse" x1="1102.3723" y1="409.1632" x2="1103.3723" y2="409.1632" gradientTransform="matrix(-1255.0851 -145.6952 -266.9301 685.0479 1492609.625 -119079.2422)">
				<stop  offset="0" style="stop-color:#ECAD85"/>
				<stop  offset="0.265" style="stop-color:#F08680"/>
				<stop  offset="0.855" style="stop-color:#FC2476"/>
				<stop  offset="1" style="stop-color:#FF0B74"/>
			</linearGradient>
			<path id="Path_25" class="st8" d="M-179,256.5c3,0.6,5.8,1.2,8.3,1.9c73.7,20,100,103.6,99.9,175.2c0,43.4-8.6,85.1-17.6,124.2
				l-3.4,14.7c-14.7,64.9-27.5,128.5-40.3,200.1l-1.8,9.8c-4.3,23.7-8.7,48.3-7.9,74.2c0.8,30.3,9.7,57.4,24.3,74.5
				c28.9,33.7,66.9,24.1,87,15.4c8-3.4,15.5-7.7,22.6-12.7c56.6-40.2,98-112.6,131.1-178.1c4.5-8.9,9-17.8,13.4-26.8
				c31.6-63.6,64.4-129.3,111.2-178.9c10.8-11.4,22.6-21.8,35.3-31c53.7-38.7,112.4-47.1,157-22.4c22.1,12.2,41.6,31.5,63.3,62.6
				c10.1,14.4,19.6,30.1,28.9,45.3l5,8.1c29.3,48.2,62.7,94.9,107.8,110.5c16.6,5.7,34.7,7,54,3.9c16.2-2.5,33.6-8.1,53.2-17.1
				c10.2-4.7,20.4-9.9,30.3-15c22.3-11.5,45.4-23.4,70.3-29.8c25.8-6.6,54.3-6.9,82.6-0.9c29.3,6.2,57,18.3,81.4,35.6
				c48.4,34.3,82.5,89.5,87.1,140.7l-1.8,0.2c-4.5-50.5-38.3-105.1-86.2-139.1c-24.2-17.2-51.7-29.2-80.8-35.4
				c-28.1-5.9-56.4-5.6-82,0.9c-24.8,6.4-47.8,18.2-70,29.7c-9.9,5.1-20.1,10.3-30.3,15c-19.7,9-37.2,14.7-53.6,17.2
				c-19.5,3.1-37.9,1.8-54.7-4c-45.7-15.8-79.3-62.8-108.8-111.3l-5-8.1c-9.2-15.2-18.8-30.8-28.8-45.2c-21.5-30.8-40.8-50-62.7-62
				c-44-24.4-102.1-16.1-155.3,22.3c-12.6,9.1-24.3,19.5-35,30.8c-46.7,49.4-79.3,115-110.9,178.4c-4.5,9-9,18-13.4,26.9
				C91.6,822.6,50,895.3-6.9,935.7c-7.2,5.1-14.8,9.4-22.9,12.8c-13,5.7-25.5,8.4-37.2,8.4c-20,0-37.7-8.2-51.5-24.3
				c-15-17.4-24-45.1-24.9-76c-0.8-26.2,3.7-50.9,8-74.8l1.7-9.8c12.8-71.6,25.6-135.3,40.3-200.2l3.4-14.7
				c8.9-38.9,17.5-80.4,17.5-123.6c0-70.7-25.8-153.3-98.5-173c-2.5-0.7-5.2-1.3-8.2-1.9"/>
		</g>
		<g id="Group_10" transform="translate(10.533 163.829)">
			
				<linearGradient id="Path_26_1_" gradientUnits="userSpaceOnUse" x1="1104.8767" y1="388.7082" x2="1105.8767" y2="388.7082" gradientTransform="matrix(-1257.9613 -140.1502 -267.5419 658.9754 1493708.625 -100707.0938)">
				<stop  offset="0" style="stop-color:#E6AA85"/>
				<stop  offset="0.291" style="stop-color:#EC7F80"/>
				<stop  offset="0.947" style="stop-color:#FD1474"/>
				<stop  offset="1" style="stop-color:#FF0B74"/>
			</linearGradient>
			<path id="Path_26" class="st9" d="M-179.1,256.5c3,0.5,5.7,1.1,8.1,1.7c72,17.9,98.7,97.4,99.7,165.7
				c0.7,41.2-7.1,80.9-15.1,117.9l-0.6,2.6c-0.8,3.8-1.6,7.6-2.5,11.3c-13,60.3-24.2,121.3-35.4,191.7l-1.7,10.5
				c-3.7,23-7.5,46.7-6.5,71.9c1.1,29.7,9.9,56.5,24.1,73.4c26.9,32,61.1,27.4,85.1,18c7.8-3.1,15.3-6.9,22.4-11.5
				c57.7-38.2,100.9-111.7,132.2-171.5c5.3-10.2,10.7-20.7,15.9-30.9c31.2-61,63.5-124,108.9-172.2c10.7-11.4,22.3-21.7,34.9-30.9
				c53-38.7,111-48,155.2-24.8c22.1,11.5,41.6,29.9,63.4,59.8c10.5,14.4,20.5,30.2,30.2,45.4l4.1,6.4c29.8,47.2,63.4,93,107.6,108.8
				c16.4,5.8,34.3,7.5,53.3,4.9c16-2.1,33.2-7.1,52.6-15.3c10.1-4.3,20.3-9.2,30.2-13.9c22-10.5,44.8-21.4,69.5-27.2
				c25.5-5.9,53.8-5.8,81.8,0.3c29,6.2,56.4,18.1,80.9,34.9c48.3,33.1,82.8,85.5,87.9,133.6l-1.8,0.3c-5.1-47.4-39.2-99.2-87-132
				c-24.3-16.7-51.6-28.4-80.3-34.6c-27.8-6-55.9-6.1-81.2-0.3c-24.5,5.7-47.2,16.5-69.1,27.1c-9.9,4.7-20,9.6-30.2,13.9
				c-19.5,8.3-36.8,13.3-52.9,15.4c-19.2,2.6-37.4,0.9-54-5c-44.7-16-78.5-62.1-108.5-109.6l-4.1-6.4c-9.6-15.2-19.6-31-30.1-45.3
				c-21.6-29.6-40.9-47.9-62.7-59.3c-43.7-22.9-101.1-13.7-153.6,24.7c-12.5,9.2-24.1,19.4-34.7,30.7
				c-45.1,48-77.3,110.8-108.5,171.7c-5.2,10.2-10.6,20.7-15.9,30.9c-31.3,60-74.8,133.8-132.8,172.2c-7.1,4.7-14.7,8.6-22.7,11.7
				c-11.8,4.6-23.1,6.9-33.7,6.9c-20.7,0-39-8.6-53.1-25.5c-14.6-17.3-23.6-44.6-24.7-74.9c-1-25.5,2.9-49.3,6.6-72.4l1.7-10.5
				c11.2-70.5,22.5-131.5,35.4-191.9c0.8-3.8,1.6-7.5,2.5-11.3l0.6-2.6c8-36.9,15.7-76.3,15.1-117.3c-1-67.5-27.3-146-98.3-163.6
				c-2.4-0.6-5-1.1-8-1.7"/>
		</g>
		<g id="Group_11" transform="translate(8.025 184.319)">
			
				<linearGradient id="Path_27_1_" gradientUnits="userSpaceOnUse" x1="1107.381" y1="368.2365" x2="1108.381" y2="368.2365" gradientTransform="matrix(-1260.8445 -134.6561 -268.1551 633.1425 1494800.375 -83450.4297)">
				<stop  offset="0" style="stop-color:#E1A787"/>
				<stop  offset="0.322" style="stop-color:#EA7781"/>
				<stop  offset="1" style="stop-color:#FF0A74"/>
			</linearGradient>
			<path id="Path_27" class="st10" d="M-179.1,256.5c3,0.4,5.6,0.9,8,1.5c70.3,15.9,97.5,91.1,99.5,156.3
				c1.3,39-5.6,76.5-12.7,111.6l-0.2,0.9c-0.8,4.1-1.7,8.2-2.5,12.3c-11.3,56.4-20.8,113-30.5,183.4c-0.3,2-0.6,4-0.8,6.1l-0.7,5.2
				c-3.1,22.1-6.4,45-5.2,69.4c1.4,29.2,10.1,55.6,23.9,72.4c26.3,32,59.8,28.9,83.2,20.7c7.7-2.7,15.1-6.2,22.1-10.4
				C64,849.5,109.3,774.3,138.1,720.8c6.2-11.4,12.4-23.3,18.5-34.7c30.8-58.4,62.6-118.8,106.4-165.6
				c10.6-11.3,22.1-21.6,34.5-30.9c52.3-38.7,109.6-48.9,153.5-27.2c22,10.8,41.6,28.4,63.4,57.1c11,14.3,21.4,30.2,31.5,45.5
				l3.1,4.7c28.2,43,62.1,90.4,107.4,107.1c16.2,6,33.9,7.9,52.7,5.9c15.7-1.7,32.7-6.1,52-13.5c10.1-3.9,20.3-8.4,30.1-12.7
				c21.7-9.6,44.2-19.5,68.5-24.5c25.2-5.1,53.2-4.6,81,1.6c28.7,6.3,55.9,17.9,80.4,34.1c48.2,31.9,83,81.6,88.8,126.5l-1.8,0.4
				c-5.7-44.3-40.2-93.3-87.9-124.9c-24.3-16.1-51.4-27.6-79.8-33.9c-27.6-6.1-55.4-6.7-80.4-1.6c-24.2,5-46.6,14.9-68.2,24.4
				c-9.8,4.3-20,8.8-30.2,12.8c-19.4,7.5-36.5,11.9-52.3,13.6c-19,2.1-36.9,0.1-53.3-6c-45.8-17-79.9-64.5-108.2-107.9l-3.1-4.7
				c-10.1-15.3-20.5-31.1-31.4-45.4c-21.7-28.4-41-45.9-62.8-56.6c-43.4-21.4-100.2-11.4-151.9,27c-12.3,9.2-23.8,19.4-34.3,30.7
				c-43.6,46.5-75.4,106.8-106.1,165.1c-6,11.5-12.3,23.3-18.5,34.8c-29,53.7-74.4,129.2-133.9,165.7c-7.1,4.3-14.6,7.9-22.4,10.6
				c-9.8,3.6-20.2,5.4-30.6,5.6c-18.1,0-37.6-6.5-54.3-26.8c-14.2-17.2-23.1-44.1-24.4-73.8c-1.2-24.6,2.1-47.6,5.2-69.9l0.7-5.2
				c0.3-2,0.6-4,0.8-6.1c9.8-70.4,19.2-127,30.5-183.5c0.8-4.1,1.7-8.2,2.5-12.3l0.2-0.9c7.1-34.9,13.9-72.2,12.7-111
				c-2-64.3-28.8-138.6-98-154.2c-2.3-0.5-4.9-1-7.9-1.4"/>
		</g>
		<g id="Group_12" transform="translate(5.517 204.791)">
			
				<linearGradient id="Path_28_1_" gradientUnits="userSpaceOnUse" x1="1109.8849" y1="347.7843" x2="1110.8849" y2="347.7843" gradientTransform="matrix(-1263.7139 -129.1588 -268.7653 607.295 1495870 -67289.2656)">
				<stop  offset="0" style="stop-color:#DBA387"/>
				<stop  offset="0.365" style="stop-color:#E76E80"/>
				<stop  offset="1" style="stop-color:#FF0A73"/>
			</linearGradient>
			<path id="Path_28" class="st11" d="M-179.1,256.5c3,0.4,5.5,0.8,7.8,1.3c68.6,13.9,96.2,85,99.3,146.9
				c1.9,36.8-4,72.2-10.3,105.3c-0.8,4.2-1.6,8.3-2.4,12.4c-9.6,51.6-17.5,105.6-25.6,175c-0.2,2-0.5,3.9-0.7,5.9l-0.7,6.3
				c-2.6,21.3-5.3,43.3-3.9,66.8c1.6,28.6,10.2,54.7,23.7,71.4c25.7,32,58.4,30.3,81.3,23.3c7.6-2.3,14.9-5.4,21.8-9.3
				c45.5-25.7,88.2-76,134.3-158.4c7.1-12.6,14.2-25.8,21.1-38.6c30.3-55.9,61.6-113.7,103.9-159c10.5-11.2,21.9-21.5,34.1-30.8
				c51.5-38.7,108.3-49.7,151.8-29.5c22,10.1,41.6,26.9,63.5,54.4c11.5,14.3,22.4,30.3,33,45.7l2,2.9
				c28.7,42.1,62.9,88.5,107.2,105.4c16.1,6.1,33.1,8.4,52,6.8c15.6-1.3,32.4-5.1,51.4-11.7c10.1-3.6,20.2-7.7,30.1-11.6
				c21.4-8.6,43.6-17.6,67.6-21.9c24.9-4.5,52.6-3.5,80.2,2.8c28.3,6.4,55.4,17.7,79.9,33.3c48.1,30.7,83.3,77.6,89.6,119.3
				l-1.7,0.4c-6.3-41.1-41.1-87.3-88.7-117.8c-24.3-15.5-51.2-26.7-79.4-33.1c-27.4-6.3-54.9-7.2-79.6-2.8
				c-23.8,4.3-45.9,13.2-67.3,21.8c-9.8,4-20,8.1-30.1,11.6c-19,6.7-36,10.5-51.7,11.8c-19.1,1.5-36.4-0.7-52.7-6.9
				c-44.7-17.1-79.2-63.8-108-106.1l-2-2.9c-10.5-15.4-21.5-31.3-32.9-45.6c-21.8-27.2-41.1-43.8-62.9-53.8
				c-43-20-99.2-9-150.2,29.3c-12.2,9.2-23.5,19.4-33.9,30.6c-42.1,45.1-73.3,102.8-103.6,158.6c-6.9,12.8-14,25.9-21.1,38.6
				c-46.3,82.7-89.2,133.3-135,159.1c-7,3.9-14.5,7.1-22.2,9.4c-8.7,2.7-17.7,4.2-26.9,4.3c-18.6,0-38.9-6.7-56.2-28.1
				c-13.7-17.1-22.6-43.6-24.2-72.8c-1.4-23.7,1.3-45.9,3.9-67.3l0.8-6.3c0.2-2,0.5-3.9,0.7-5.9c8.2-69.5,16.1-123.5,25.6-175.2
				c0.8-4.1,1.6-8.3,2.4-12.4c6.2-32.9,12.1-68.1,10.3-104.7c-3-61.1-30.3-131.2-97.8-144.8c-2.3-0.5-4.7-0.8-7.7-1.2"/>
		</g>
		<g id="Group_13" transform="translate(3.009 225.263)">
			
				<linearGradient id="Path_29_1_" gradientUnits="userSpaceOnUse" x1="1112.3884" y1="327.3338" x2="1113.3884" y2="327.3338" gradientTransform="matrix(-1266.6079 -123.6999 -269.3808 581.6274 1496958 -52230.1133)">
				<stop  offset="0" style="stop-color:#D6A088"/>
				<stop  offset="0.417" style="stop-color:#E6647F"/>
				<stop  offset="1" style="stop-color:#FF0A73"/>
			</linearGradient>
			<path id="Path_29" class="st12" d="M-179.1,256.5c3,0.3,5.4,0.7,7.7,1.1c66.8,11.8,95,78.8,99.1,137.4c2.5,34.7-2.5,68-7.9,99.1
				c-0.7,3.9-1.4,7.8-2,11.7c-7.9,47.2-14.1,97-20.7,166.7c-0.2,1.9-0.4,3.8-0.6,5.7c-0.2,2.4-0.5,4.9-0.7,7.4
				c-2.1,20.4-4.2,41.5-2.6,64.1c1.9,28.1,10.4,53.7,23.5,70.4c25.2,32,57.1,31.8,79.5,25.9c7.5-1.9,14.7-4.7,21.6-8.2
				c45.4-23.3,89.7-73,135.3-151.8c8-13.8,16.1-28.3,23.8-42.3c29.8-53.5,60.5-108.8,101.3-152.5c10.4-11.2,21.7-21.5,33.8-30.7
				c51.5-39.3,106.2-50.9,150.1-31.9c22,9.4,41.6,25.3,63.6,51.6c12,14.2,23.5,30.3,34.5,45.9l0.8,1.1
				c30.5,43.2,63.9,86.7,106.9,103.8c15.9,6.3,32.7,8.8,51.4,7.8c15.4-0.8,32-4.1,50.8-9.9c10.1-3.2,20.2-6.9,30.1-10.5
				c21.1-7.7,43-15.7,66.6-19.3c24.9-3.8,51.6-2.4,79.4,4.1c28,6.6,54.8,17.6,79.3,32.6c48,29.7,83.6,73.7,90.5,112.2l-1.7,0.5
				c-6.8-37.8-42-81.3-89.6-110.7c-24.4-15-51-25.9-78.9-32.4c-27.6-6.5-54.1-7.9-78.8-4.1c-23.4,3.6-45.2,11.6-66.3,19.2
				c-9.8,3.6-20,7.3-30.1,10.5c-18.8,5.9-35.6,9.2-51.1,10c-18.9,1-35.9-1.5-52-7.9c-43.5-17.2-77.1-61-107.7-104.4l-0.8-1.1
				c-11-15.5-22.5-31.5-34.4-45.7c-21.8-26.1-41.3-41.8-63-51.1c-43.3-18.8-97.5-7.2-148.5,31.7c-12,9.2-23.2,19.4-33.5,30.5
				c-40.6,43.6-71.3,98.8-101,152.2c-7.8,14-15.9,28.5-23.9,42.3c-45.8,79.2-90.4,129.1-136.1,152.6c-7,3.5-14.3,6.3-21.9,8.3
				c-7.5,2-15.2,3.1-22.9,3.1c-22.9,0-42.8-10-58.2-29.7c-13.3-17-22.1-43.1-24-71.7c-1.6-22.8,0.6-44,2.6-64.6
				c0.2-2.5,0.5-5,0.7-7.4c0.2-1.9,0.4-3.8,0.6-5.7c6.6-69.7,12.8-119.6,20.7-166.8c0.7-3.9,1.3-7.8,2-11.7
				c5.3-31,10.3-64.1,7.9-98.4c-4-57.8-31.8-123.7-97.6-135.4c-2.2-0.4-4.6-0.7-7.6-1"/>
		</g>
		<g id="Group_14" transform="translate(0.516 245.752)">
			
				<linearGradient id="Path_30_1_" gradientUnits="userSpaceOnUse" x1="1114.8766" y1="306.868" x2="1115.8766" y2="306.868" gradientTransform="matrix(-1269.4508 -118.2748 -269.9854 556.1191 1497951.5 -38252.5547)">
				<stop  offset="0" style="stop-color:#D19D88"/>
				<stop  offset="0.479" style="stop-color:#E6577E"/>
				<stop  offset="1" style="stop-color:#FF0873"/>
			</linearGradient>
			<path id="Path_30" class="st13" d="M-179.2,256.5c3,0.2,5.4,0.5,7.5,0.8c65,9.9,93.7,72.6,98.9,128c3.1,32.5-1,63.7-5.5,92.8
				c-0.6,3.7-1.1,7.3-1.7,10.9c-7.3,49.5-11.6,99.1-15.8,158.3c-0.1,1.8-0.3,3.7-0.4,5.6c-0.2,2.9-0.4,5.7-0.7,8.7
				c-1.5,19.5-3.1,39.7-1.4,61.3c2.1,27.6,10.6,52.8,23.3,69.3C-55.1,818-29,827.6,2.7,820.8c7.3-1.5,14.5-3.9,21.3-7
				c45.2-20.9,91.1-69.8,136.4-145.3c8.9-14.9,17.9-30.7,26.6-45.9c29.2-51.1,59.4-103.9,98.6-146.2c10.3-11.1,21.4-21.4,33.4-30.7
				c50.7-39.2,104.7-51.7,148.3-34.3c21.7,8.7,41.9,24.2,63.7,48.9c12.2,13.7,23.4,28.7,35.7,45.4c26.1,35.3,61.8,83.7,106.7,102.1
				c15.7,6.4,32.3,9.2,50.7,8.7c15.2-0.4,31.6-3.1,50.2-8.2c10.1-2.8,20.3-6.1,30.1-9.3c20.8-6.8,42.3-13.7,65.5-16.7
				c24.6-3.1,51-1.3,78.5,5.4c27.7,6.6,54.3,17.4,78.8,31.8c47.9,28.5,83.8,69.7,91.3,105l-1.7,0.6c-7.3-34.2-43.7-75.8-90.4-103.6
				c-24.4-14.4-50.9-25.1-78.4-31.6c-27.4-6.6-53.6-8.4-78-5.3c-23.1,2.9-44.5,9.9-65.3,16.6c-9.8,3.2-20,6.5-30.2,9.3
				c-18.7,5.1-35.2,7.8-50.5,8.2c-18.6,0.5-35.5-2.4-51.3-8.9c-45.4-18.6-81.3-67.2-107.5-102.7c-12.3-16.7-23.5-31.6-35.6-45.2
				c-21.6-24.5-41.6-39.8-63-48.4c-43.1-17.2-96.6-4.8-146.8,34c-11.9,9.2-23,19.4-33.2,30.5c-39,42.1-69.1,94.8-98.3,145.8
				c-8.7,15.2-17.7,31-26.7,45.9c-46.1,76.9-91,124.6-137.2,146C17.7,819,10.4,821.4,3,823c-6.4,1.4-12.8,2.1-19.3,2.1
				c-23.7,0-43.8-10.5-59.9-31.4c-13-16.9-21.6-42.6-23.8-70.6c-1.7-21.9-0.1-42.1,1.4-61.8c0.2-2.9,0.5-5.8,0.7-8.7
				c0.1-1.9,0.3-3.7,0.4-5.6c4.2-59.3,8.5-108.9,15.9-158.5c0.5-3.6,1.1-7.3,1.7-10.9c4.5-29,8.5-60,5.4-92.2
				c-5.1-54.6-33.3-116.3-97.3-126c-2.1-0.3-4.5-0.6-7.4-0.8"/>
		</g>
		<g id="Group_15" transform="translate(5.302 266.858)">
			
				<linearGradient id="Path_31_1_" gradientUnits="userSpaceOnUse" x1="1110.0848" y1="285.788" x2="1111.0848" y2="285.788" gradientTransform="matrix(-1265.1895 -112.7447 -269.0791 530.117 1481188 -25817.3613)">
				<stop  offset="0" style="stop-color:#CC9A89"/>
				<stop  offset="0.566" style="stop-color:#E8487C"/>
				<stop  offset="1" style="stop-color:#FF0873"/>
			</linearGradient>
			<path id="Path_31" class="st14" d="M-179.1,256.5c79.3,9.9,95.6,93.2,98.7,118.5c3.7,30.5,0.5,59.5-3,86.5
				c-0.5,3.4-0.9,6.8-1.3,10.2c-5.4,43.2-8,86.1-10.9,149.9c-0.1,1.8-0.2,3.6-0.3,5.4c-0.2,3.3-0.4,6.6-0.5,10
				c-1,18.6-2.1,37.8-0.2,58.4c2.4,27,10.8,51.9,23.1,68.3c19.4,25.9,44.9,36.4,75.8,31.2c7.2-1.2,14.3-3.1,21.1-5.9
				c45.7-18.8,91.9-65.5,137.4-138.7c9.9-16,19.9-33,29.5-49.4c28.6-48.7,58.1-99.1,95.8-139.9c10.2-11.1,21.2-21.3,33-30.6
				c49.9-39.1,103.4-52.5,146.6-36.6c21.7,8,42,22.6,63.8,46.1c12.7,13.6,24.8,29.1,36.1,43.8c28.1,36.5,63,82,106.5,100.4
				c15.2,6.4,31.6,9.6,50.1,9.7c14.8,0.2,30.5-1.9,49.5-6.4c10.1-2.4,20.3-5.3,30.2-8.1c20.5-5.8,41.7-11.8,64.5-14.1
				c24.3-2.4,50.4-0.2,77.7,6.6c27.4,6.7,53.8,17.2,78.3,31.1c47,26.8,84.1,66.2,92.2,97.9l-1.7,0.7c-8-31.1-44.6-69.9-91.2-96.5
				c-24.4-13.8-50.7-24.2-77.9-30.9c-27.1-6.7-53.1-8.9-77.2-6.6c-22.7,2.3-43.8,8.3-64.2,14.1c-9.9,2.8-20.1,5.7-30.3,8.1
				c-19.1,4.5-35,6.5-49.9,6.4c-18.7-0.1-35.3-3.4-50.7-9.8c-43.9-18.5-79-64.2-107.2-100.9c-11.3-14.7-23.3-30.1-36-43.6
				c-21.6-23.3-41.7-37.8-63.1-45.7c-42.7-15.7-95.6-2.4-145.1,36.4c-11.7,9.3-22.7,19.4-32.8,30.4c-37.5,40.7-67,90.9-95.5,139.6
				c-9.6,16.4-19.6,33.4-29.6,49.5c-45.7,73.6-92.3,120.6-138.3,139.5c-6.9,2.8-14.1,4.8-21.4,6c-5,0.8-10,1.3-15.1,1.3
				c-24.8,0-45.7-11.1-62.2-33.2c-12.6-16.7-21.1-42.1-23.5-69.5c-1.9-20.9-0.8-40.2,0.2-58.8c0.2-3.4,0.4-6.7,0.5-10
				c0.1-1.8,0.2-3.6,0.3-5.4c2.9-64,5.6-106.8,11-150.2c0.4-3.4,0.9-6.8,1.3-10.2c3.6-26.9,6.7-55.6,3-85.8
				c-3-24.9-19-106.9-97.1-116.6"/>
		</g>
		<g id="Group_16" transform="translate(2.651 287.119)">
			
				<linearGradient id="Path_32_1_" gradientUnits="userSpaceOnUse" x1="1112.7301" y1="265.5545" x2="1113.7301" y2="265.5545" gradientTransform="matrix(-1268.1979 -107.4312 -269.719 505.1331 1482607.75 -14083.751)">
				<stop  offset="0" style="stop-color:#C6978B"/>
				<stop  offset="0.701" style="stop-color:#ED337A"/>
				<stop  offset="1" style="stop-color:#FF0873"/>
			</linearGradient>
			<path id="Path_32" class="st15" d="M-179.2,256.5c77,7.5,94.8,85.4,98.5,109c4.3,28.4,2.1,55.2-0.6,80.3c-0.3,3.2-0.7,6.3-1,9.4
				c-4.1,41.3-4.9,83.4-6,141.6c0,1.7-0.1,3.4-0.1,5.1c-0.1,3.7-0.2,7.3-0.3,11c-0.6,17.8-1.2,36.2,0.8,56.1
				c2.6,26.5,11,51,22.9,67.3c19,26,43.9,37.4,73.9,33.8c7.1-0.8,14.1-2.4,20.8-4.8c45.4-16.3,93.3-62,138.5-132.2
				c11-17.1,21.9-35.3,32.5-52.9c27.9-46.4,56.7-94.4,92.9-133.7c10.1-11,21-21.2,32.6-30.5c49.2-39.1,102-53.4,144.8-39
				c21.6,7.2,41.9,21,63.9,43.4c12.8,13,25.1,28,36.5,42.2l1.5,1.8c29.5,36.8,62.9,78.6,104.8,96.9C693.2,568,710,571.7,727,572
				c14.8,0.5,30.8-1,49-4.6c10.2-2,20.5-4.5,30.4-6.9c20.1-4.9,40.9-9.9,63.3-11.5c23.9-1.7,49.8,1,76.9,7.9
				c27.1,6.8,53.2,17,77.8,30.3c46.9,25.6,84.3,62.1,93.1,90.7l-1.7,0.8c-8.6-28.1-45.6-64.1-92.1-89.5
				c-24.5-13.2-50.5-23.4-77.5-30.2c-27-6.8-52.7-9.5-76.5-7.8c-22.2,1.6-43,6.6-63.1,11.5c-9.9,2.4-20.2,4.9-30.4,6.9
				c-18.3,3.6-34.4,5.1-49.3,4.6c-17.2-0.4-34.2-4-50-10.8C634.7,545,601.1,503,571.5,466l-1.5-1.8c-11.3-14.2-23.6-29.1-36.3-42
				c-21.8-22.1-41.9-35.8-63.2-42.9c-42.4-14.2-94.6-0.1-143.4,38.7c-11.6,9.3-22.4,19.4-32.4,30.3c-36,39.2-64.8,87.1-92.6,133.4
				c-10.6,17.6-21.6,35.9-32.6,52.9c-45.4,70.5-93.6,116.5-139.4,132.9c-6.8,2.4-13.9,4-21.2,4.8c-3.5,0.4-7,0.6-10.6,0.6
				c-25.9,0-47.7-11.8-64.8-35.2c-12.2-16.6-20.6-41.6-23.3-68.5c-2-20-1.4-39.4-0.9-56.4c0.1-3.7,0.2-7.3,0.3-10.8
				c0-1.9,0.1-3.6,0.1-5.2c1.1-58.3,1.9-100.4,6.1-141.8c0.3-3.2,0.7-6.3,1-9.5c2.7-24.9,4.9-51.5,0.6-79.6
				c-3.6-23.3-21.1-99.9-96.8-107.3"/>
		</g>
		<g id="Group_17" transform="translate(0 307.397)">
			
				<linearGradient id="Path_33_1_" gradientUnits="userSpaceOnUse" x1="1115.3749" y1="245.3066" x2="1116.3749" y2="245.3066" gradientTransform="matrix(-1271.1937 -102.1604 -270.3561 480.3506 1483998.375 -3383.9329)">
				<stop  offset="0" style="stop-color:#C1948B"/>
				<stop  offset="0.914" style="stop-color:#F91475"/>
				<stop  offset="1" style="stop-color:#FF0873"/>
			</linearGradient>
			<path id="Path_33" class="st16" d="M-179.2,256.5c74.6,5.1,94.1,77.5,98.3,99.6c5,26.5,3.6,52.1,1.8,74l-0.1,1.5
				c-0.2,2.4-0.4,4.8-0.6,7.2c-2.2,32.2-1.9,65-1.4,110.3c0.1,7.3,0.1,14.9,0.2,22.9c0,1.7,0,3.4,0,5.1c0,4.1,0,8.2-0.1,12.5
				c-0.1,16.8-0.3,34.2,1.9,52.9c2.9,26.4,11,49.9,22.7,66.3c18.6,26.1,42.8,38.4,72,36.5c7-0.4,13.9-1.6,20.6-3.6
				C93.9,724,143.9,663.6,175.6,616c12.1-18.1,24-37.5,35.6-56.3c27.2-44.1,55.3-89.8,89.9-127.6c10-10.9,20.8-21.1,32.3-30.5
				c48.5-39.1,100.6-54.2,143.1-41.3c21.6,6.5,41.9,19.4,63.9,40.6c13.3,12.7,25.5,27,36.8,40.6l3.8,4.6
				c29,34.8,61.9,74.3,102.2,92.4c15.4,6.8,32,10.8,48.8,11.6c14.6,0.9,30.4,0,48.4-2.8c10.3-1.6,20.6-3.7,30.6-5.7
				c19.7-4,40.2-8.1,62.1-9c23.6-1,49.2,2.1,76.1,9.1c26.8,6.9,52.7,16.8,77.3,29.6c46.6,24.4,84.4,57.9,93.9,83.5l-1.6,0.9
				c-9.4-25.1-46.7-58.2-93-82.4c-24.5-12.7-50.3-22.5-77-29.4c-26.8-7-52.2-10-75.7-9.1c-21.8,0.9-42.2,5-61.9,9
				c-10,2-20.4,4.1-30.7,5.7c-18.1,2.8-34,3.7-48.7,2.8c-17-0.9-33.8-4.9-49.3-11.8c-40.7-18.3-73.7-57.9-102.8-92.9l-3.8-4.6
				c-11.3-13.5-23.5-27.7-36.7-40.4c-21.8-21-41.9-33.8-63.3-40.2c-42-12.7-93.7,2.3-141.7,41c-11.4,9.3-22.1,19.4-32.1,30.3
				c-34.5,37.7-62.6,83.3-89.7,127.3c-11.6,18.8-23.6,38.3-35.6,56.3C145.1,665.2,94.8,726,36.6,743.8c-6.8,2-13.8,3.3-20.9,3.7
				c-2,0.1-4,0.2-5.9,0.2c-27.1,0-49.8-12.6-67.5-37.4c-11.9-16.7-20.1-40.6-23.1-67.4c-2.2-18.9-2-37.1-1.9-53.2
				c0-4.3,0.1-8.4,0.1-12.5c0-1.7,0-3.4,0-5.1c-0.1-8-0.2-15.6-0.2-22.9c-0.5-45.4-0.8-78.3,1.4-110.5c0.2-2.4,0.4-4.8,0.6-7.2
				l0.1-1.5c1.7-21.8,3.2-47.2-1.8-73.3c-4.1-21.7-23.2-92.9-96.6-97.9"/>
		</g>
		<g id="Group_18" transform="translate(93.724 411.149)">
			
				<linearGradient id="Path_34_1_" gradientUnits="userSpaceOnUse" x1="1021.6104" y1="141.7281" x2="1022.6104" y2="141.7281" gradientTransform="matrix(-1179.9315 -79.5781 -250.9466 374.1702 1240817.125 28715.1953)">
				<stop  offset="0" style="stop-color:#BB918C"/>
				<stop  offset="1" style="stop-color:#FF0772"/>
			</linearGradient>
			<path id="Path_34" class="st17" d="M-177.6,263.1c5.6,24.3,5.1,47.7,4.2,67.7l0,1.2c-0.1,2.2-0.2,4.5-0.3,6.7
				c-0.8,24.8,0.3,49.4,1.9,83.5c0.6,12.3,1.2,26.1,1.8,41.4c0.1,1.6,0.1,3.3,0.2,4.9c0.1,4.6,0.2,9.3,0.3,14.2
				c0.3,15.8,0.6,32.1,2.8,49.7c3.2,25.9,11.2,49.1,22.5,65.3c18,25.8,40.9,38.6,70.2,39.1c6.8,0.1,13.7-0.8,20.3-2.5
				C-8.3,623,41.6,580.7,86.8,515.3c13.2-19,25.6-38.7,38.7-59.6c26.4-41.9,53.8-85.2,86.9-121.6c9.9-10.9,20.5-21.1,31.9-30.4
				c47.7-39.1,99.3-55,141.4-43.7c21.6,5.8,41.9,17.8,64,37.9c13.7,12.4,26.5,26.7,37.2,39c2.1,2.4,4.2,4.8,6.3,7.3
				c28.5,32.8,60.7,70,99.5,88c15.2,7,31.5,11.2,48.2,12.6c14.3,1.3,30,1,47.8-1c10.4-1.2,20.8-2.8,30.9-4.4
				c19.3-3,39.4-6.2,60.8-6.5c23.3-0.2,48.6,3.2,75.3,10.4c26.5,7,52.2,16.7,76.8,28.8c45.6,22.7,84.5,54.1,94.7,76.3l-1.6,1.1
				c-10-21.8-48.6-52.8-93.8-75.4c-24.5-12.1-50.1-21.7-76.5-28.7c-26.6-7.1-51.8-10.6-74.9-10.3c-21.3,0.3-41.3,3.4-60.6,6.5
				c-10.1,1.6-20.6,3.3-31,4.4c-17.9,2-33.6,2.3-48.1,1c-16.8-1.4-33.3-5.7-48.7-12.7c-39-18.1-71.5-55.5-100.1-88.4
				c-2.1-2.5-4.2-4.9-6.3-7.3c-10.7-12.2-23.4-26.4-37.1-38.8c-21.9-19.8-42-31.7-63.3-37.5c-41.6-11.2-92.7,4.6-140,43.4
				c-11.3,9.3-21.9,19.4-31.7,30.2c-33,36.2-60.3,79.4-86.7,121.3c-12.6,20-25.6,40.6-38.8,59.7C42.7,582.5-7.6,625-53.4,636.5
				c-6.4,1.6-12.9,2.5-19.5,2.5l-1.2,0c-29.8-0.5-53.2-13.6-71.5-39.9c-11.4-16.5-19.6-40-22.9-66.3c-2.2-17.8-2.5-34.9-2.8-50
				c-0.1-4.8-0.2-9.6-0.3-14.1c0-1.7-0.1-3.3-0.2-4.9c-0.6-15.2-1.2-29.1-1.8-41.4c-1.6-34.1-2.7-58.8-1.9-83.7
				c0.1-2.3,0.2-4.5,0.3-6.7l0.1-1.2c0.9-19.9,1.4-43-4.2-67"/>
		</g>
		<g id="Group_19" transform="translate(90.843 415.452)">
			
				<linearGradient id="Path_35_1_" gradientUnits="userSpaceOnUse" x1="1024.4875" y1="137.4438" x2="1025.4875" y2="137.4438" gradientTransform="matrix(-1183.126 -77.7359 -251.626 365.5084 1246502.875 29846)">
				<stop  offset="0" style="stop-color:#B68E8C"/>
				<stop  offset="1" style="stop-color:#FF0772"/>
			</linearGradient>
			<path id="Path_35" class="st18" d="M-177.6,269.6c6.3,22.2,6.7,43.3,6.7,61.5v1c0,2.1,0,4.2,0,6.2c0.2,18.9,2,38.1,4.1,62.5
				c1.4,15.5,3,33,4.5,54.1c0.1,1.6,0.2,3.2,0.3,4.8c0.3,5.2,0.6,10.5,0.8,16.2c0.6,14.7,1.3,29.8,3.6,46.2
				c3.5,25.4,11.4,48.2,22.3,64.2c18.2,26.9,40.6,40.6,68.3,41.8c6.7,0.3,13.5-0.1,20.1-1.3c45.7-9,96-48.9,141.6-112.5
				c14.3-19.9,27.8-40.7,42-62.8c25.6-39.7,52.1-80.8,83.7-115.6c9.8-10.8,20.3-21,31.5-30.3c47-39.1,97.9-55.9,139.6-46.1
				c21.6,5.1,42,16.2,64.1,35.1c14.2,12.1,27.6,26.3,37.6,37.3c3,3.3,6,6.6,9,9.9c27.9,30.9,59.5,65.9,96.6,83.7
				c15,7.1,31.1,11.7,47.5,13.6c14.3,1.8,29.3,2,47.1,0.8c10.5-0.8,21.1-2,31.4-3.1c18.9-2.1,38.4-4.4,59.3-4
				c22.9,0.4,47.9,4.3,74.4,11.6c26.2,7.1,51.7,16.5,76.3,28.1c45.1,21.4,84.4,49.8,95.5,69.1l-1.5,1.3c-9.2-16-44.7-44.6-94.7-68.3
				c-24.5-11.5-49.9-20.9-76-28c-26.4-7.3-51.4-11.2-74.1-11.6c-20.8-0.3-40.3,1.9-59.1,4c-10.3,1.2-20.9,2.4-31.4,3.2
				c-17.9,1.2-33,1-47.4-0.8c-16.6-1.9-32.8-6.6-48-13.7c-37.4-17.9-69.1-53.1-97.1-84.1c-3-3.4-6-6.7-9-9.9
				c-10-11-23.3-25.1-37.4-37.2c-21.9-18.7-42.1-29.7-63.4-34.7c-41.3-9.7-91.7,6.9-138.3,45.7c-11.1,9.3-21.6,19.4-31.3,30.2
				C190,372,163.6,413,138,452.6c-14.3,22.1-27.7,42.9-42,62.9C50,579.5-0.7,619.7-46.7,628.8c-5.3,1-10.7,1.5-16.1,1.5
				c-1.4,0-2.9,0-4.4-0.1c-28.3-1.2-51-15.1-69.6-42.6c-11-16.3-19.1-39.5-22.6-65.3c-2.3-16.5-3-32.4-3.6-46.4
				c-0.2-5.6-0.5-11-0.8-16.1c-0.1-1.6-0.2-3.2-0.3-4.8c-1.5-21-3.1-38.5-4.5-54c-2.2-24.4-3.9-43.7-4.1-62.7c0-2.1,0-4.2,0-6.2v-1
				c0.1-17.9-0.4-38.9-6.6-60.7"/>
		</g>
		<g id="Group_20" transform="translate(87.963 419.672)">
			
				<linearGradient id="Path_36_1_" gradientUnits="userSpaceOnUse" x1="1027.3636" y1="133.2425" x2="1028.3636" y2="133.2425" gradientTransform="matrix(-1186.2893 -75.9755 -252.2987 357.2308 1252188.125 30895.2422)">
				<stop  offset="0" style="stop-color:#B08B8D"/>
				<stop  offset="1" style="stop-color:#FF0772"/>
			</linearGradient>
			<path id="Path_36" class="st19" d="M-177.6,276.2c6.9,20,8.3,39,9.1,55.2l0,0.6c0.1,1.9,0.2,3.9,0.3,5.8
				c0.9,14.1,3,28.1,5.5,45.9c2.5,17.2,5.2,36.6,8,62.3c0.2,1.5,0.3,3.1,0.5,4.6c0.5,5.9,1,12,1.4,18.4c1,13.5,1.9,27.4,4.2,42.4
				c3.8,24.9,11.6,47.4,22,63.2c17.9,27.2,39.7,41.8,66.4,44.4c6.6,0.7,13.2,0.6,19.8-0.2c45.9-6.5,96.5-44.1,142.7-106
				c15.5-20.8,30-42.7,45.3-66c24.8-37.6,50.4-76.4,80.5-109.7c9.7-10.8,20.1-20.9,31.1-30.3c46.3-39.1,96.6-56.8,137.9-48.4
				c21.6,4.4,42,14.7,64.2,32.4c11.4,9.1,23.1,20.2,38,35.7c3.9,4.1,7.8,8.3,11.8,12.6c27.2,29,58.1,61.8,93.5,79.4
				c14.8,7.2,30.6,12.1,46.9,14.5c14.1,2.2,28.9,3,46.6,2.6c10.7-0.3,21.5-1,31.9-1.8c18.4-1.3,37.4-2.6,57.8-1.6
				c22.4,1.1,47.2,5.5,73.6,12.9c25.9,7.2,51.2,16.4,75.8,27.3c49.4,22.3,85.9,48,96.3,61.9l-1.3,1.5
				c-10.3-13.7-46.4-39.2-95.6-61.3c-24.5-10.9-49.8-20-75.6-27.2c-26.3-7.4-51-11.7-73.3-12.9c-20.2-1-39.2,0.4-57.6,1.6
				c-10.5,0.7-21.3,1.5-32,1.8c-17.7,0.4-32.6-0.4-46.8-2.6c-16.4-2.4-32.4-7.4-47.3-14.7c-35.7-17.7-66.7-50.6-94-79.7
				c-4-4.3-7.9-8.5-11.8-12.6c-14.8-15.5-26.4-26.5-37.8-35.5c-21.9-17.5-42.1-27.7-63.5-32.1c-40.9-8.2-90.7,9.3-136.6,48.1
				c-11,9.3-21.3,19.4-30.9,30.1c-30,33.2-55.6,72-80.3,109.5c-15.4,23.3-29.9,45.2-45.4,66.1C57.3,576.6,6.2,614.5-40.1,621.1
				c-3.5,0.5-7.1,0.7-10.7,0.7c-3.1,0-6.2-0.2-9.5-0.5c-27.3-2.7-49.4-17.5-67.7-45.2c-10.6-16.1-18.6-38.9-22.4-64.2
				c-2.3-15.1-3.3-29.1-4.2-42.6c-0.5-6.4-0.9-12.5-1.4-18.4c-0.1-1.5-0.3-3.1-0.5-4.6c-2.7-25.6-5.5-45.1-8-62.2
				c-2.6-17.8-4.6-31.9-5.5-46.1c-0.1-2-0.2-3.9-0.3-5.9l0-0.6c-0.8-16-2.1-34.8-9-54.4"/>
		</g>
		<g id="Group_21" transform="translate(85.097 423.797)">
			
				<linearGradient id="Path_37_1_" gradientUnits="userSpaceOnUse" x1="1030.2258" y1="129.1362" x2="1031.2258" y2="129.1362" gradientTransform="matrix(-1189.4321 -74.294 -252.9671 349.3247 1257871.5 31864.2305)">
				<stop  offset="0" style="stop-color:#AC878E"/>
				<stop  offset="1" style="stop-color:#FF0672"/>
			</linearGradient>
			<path id="Path_37" class="st20" d="M-177.7,282.8c7.6,17.9,9.9,34.6,11.5,48.9l0.1,0.6c0.2,1.7,0.4,3.4,0.6,5.1
				c1.4,10.3,3.6,20.8,6.2,33c3.6,16.8,8,37.7,12.2,66.9c0.2,1.5,0.4,3,0.6,4.5c0.9,6.6,1.5,13.5,2.3,20.9
				c1.2,12.2,2.5,24.9,4.7,38.4c4,24.4,11.8,46.5,21.8,62.2c17.6,27.6,38.8,43,64.6,47.1c6.5,1.1,13,1.4,19.6,0.9
				c45.4-3.8,97.8-40,143.7-99.4c16.7-21.6,32.3-44.6,48.7-69.1c23.9-35.5,48.6-72.1,77.2-103.9c9.6-10.7,19.9-20.8,30.8-30.2
				c45.6-39.1,95.2-57.6,136.2-50.8c21.7,3.6,42.1,13,64.3,29.6c11.6,8.6,23.7,19.5,38.3,34.1c4.9,4.9,9.8,10,14.9,15.1
				c26.5,27.1,56.5,57.9,90.3,75.1c14.6,7.3,30.2,12.6,46.3,15.5c15.2,2.8,30.5,4.2,46,4.4c11,0.2,22-0.1,32.7-0.3
				c17.9-0.4,36.3-0.9,56,0.7c22,1.8,46.5,6.6,72.8,14.2c25.6,7.3,50.7,16.2,75.3,26.5c45.5,19.4,85.1,43,97.1,54.7l-1.1,1.7
				c-11.9-11.5-51.3-35-96.5-54.3c-24.5-10.3-49.6-19.2-75.1-26.5c-26.2-7.6-50.6-12.3-72.5-14.1c-19.6-1.5-38-1.1-55.8-0.7
				c-10.7,0.3-21.8,0.5-32.8,0.3c-15.5-0.2-31-1.6-46.2-4.4c-16.2-3-31.9-8.2-46.7-15.6c-34.1-17.3-64.2-48.2-90.7-75.4
				c-5-5.2-10-10.2-14.9-15.1c-14.5-14.6-26.7-25.3-38.1-33.9c-22-16.4-42.2-25.7-63.6-29.3c-40.5-6.8-89.7,11.6-134.9,50.4
				c-10.8,9.4-21,19.4-30.6,30c-28.5,31.7-53.2,68.3-77,103.7c-16.5,24.4-32.1,47.5-48.8,69.2c-46.3,59.8-99.1,96.3-144.9,100.1
				c-1.9,0.2-3.9,0.2-5.9,0.2c-4.7,0-9.4-0.4-14-1.2c-26.3-4.2-47.8-19.9-65.7-47.9c-10.2-15.9-18.1-38.3-22.2-63.1
				c-2.3-13.6-3.5-26.3-4.7-38.6c-0.7-7.3-1.4-14.2-2.3-20.8c-0.2-1.5-0.4-3-0.6-4.4c-4.2-29.2-8.6-50-12.2-66.8
				c-2.6-12.3-4.8-22.8-6.2-33.2c-0.2-1.7-0.4-3.4-0.6-5.2l-0.1-0.6c-1.6-14.1-3.9-30.6-11.4-48.2"/>
		</g>
		<g id="Group_22" transform="translate(82.245 427.763)">
			
				<linearGradient id="Path_38_1_" gradientUnits="userSpaceOnUse" x1="1033.074" y1="125.1887" x2="1034.074" y2="125.1887" gradientTransform="matrix(-1192.5204 -72.6995 -253.624 341.8275 1263533.375 32742.2832)">
				<stop  offset="0" style="stop-color:#A6848F"/>
				<stop  offset="1" style="stop-color:#FF0672"/>
			</linearGradient>
			<path id="Path_38" class="st21" d="M-177.8,289.6c8.3,15.7,11.6,30.2,14,42.6l0.1,0.5c0.3,1.5,0.6,3,0.9,4.4
				c1.6,7.2,3.8,14.5,6.4,23c7,22.5,12.7,45.5,16.9,68.7c0.3,1.4,0.5,2.9,0.8,4.3c1.2,7.4,2.2,15.2,3.3,23.6
				c1.4,10.9,2.8,22.2,5,34.2c4.3,24,12,45.7,21.6,61.2c17.4,28,37.9,44.3,62.7,49.7c6.3,1.5,12.8,2.1,19.3,2
				c45.5-1.2,98.2-35.1,144.8-92.9c18-22.4,34.6-46.5,52.2-72.1c23-33.4,46.8-67.9,73.8-98.1c9.5-10.6,19.7-20.7,30.4-30.1
				c45.6-39.7,93.3-58.6,134.4-53.2c21.7,2.9,42.2,11.4,64.3,26.9c11.8,8.3,24.1,18.6,38.7,32.5c5.9,5.7,11.9,11.5,18.1,17.7
				c26.9,26.5,54.7,54,86.8,70.9c14.4,7.5,29.8,13,45.6,16.5c14.9,3.2,30.1,5.3,45.4,6.2c11.3,0.7,22.7,1,33.7,1.2
				c17.2,0.4,35.1,0.8,54,2.9c21.5,2.4,45.8,7.6,72,15.4c25.9,7.6,51.7,16.5,74.8,25.8c48.5,19.5,86.8,40.4,97.8,47.4l-0.8,1.9
				c-10.9-7-49.1-27.9-97.5-47.3c-23-9.2-48.8-18.1-74.6-25.7c-26.2-7.8-50.3-12.9-71.7-15.4c-18.9-2.1-36.7-2.5-53.9-2.9
				c-11-0.2-22.5-0.5-33.8-1.2c-15.3-0.9-30.6-2.9-45.6-6.2c-16-3.5-31.5-9.1-46-16.6c-32.3-17-60.2-44.5-87.2-71.2
				c-6.3-6.2-12.2-12-18.1-17.7c-14.5-13.9-26.7-24.1-38.5-32.3c-22-15.3-42.2-23.8-63.7-26.6c-40.7-5.4-88,13.4-133.2,52.8
				c-10.7,9.4-20.8,19.4-30.2,30c-27,30.1-50.7,64.6-73.7,97.9c-17.6,25.6-34.3,49.8-52.3,72.2c-46.8,58.2-100,92.3-146,93.5
				c-0.6,0-1.2,0-1.7,0c-6,0-12-0.8-17.9-2.1c-25.3-5.6-46.1-22.1-63.8-50.5c-9.8-15.7-17.6-37.8-22-62c-2.2-12.1-3.6-23.4-5-34.4
				c-1-8.3-2-16.2-3.3-23.5c-0.2-1.4-0.5-2.9-0.7-4.3c-4.2-23.1-9.9-46-16.9-68.4c-2.6-8.5-4.8-15.8-6.4-23.1
				c-0.3-1.5-0.6-3-0.9-4.5l-0.1-0.5c-2.4-12.2-5.6-26.5-13.7-41.9"/>
		</g>
		<g id="Group_23" transform="translate(79.422 431.671)">
			
				<linearGradient id="Path_39_1_" gradientUnits="userSpaceOnUse" x1="1035.8932" y1="121.2993" x2="1036.8932" y2="121.2993" gradientTransform="matrix(-1195.52 -71.1665 -254.2619 334.6194 1269093.5 33559.3438)">
				<stop  offset="0" style="stop-color:#A1818F"/>
				<stop  offset="1" style="stop-color:#FF0672"/>
			</linearGradient>
			<path id="Path_39" class="st22" d="M-177.9,296.4c8.1,12.2,12.4,23.3,16.4,36.3l0.2,0.6c0.4,1.2,0.7,2.4,1.1,3.6
				c1.7,4.9,3.8,9.7,6.1,15.3c6.4,15.1,14.3,33.9,22.1,68.1c0.3,1.4,0.6,2.8,0.9,4.2c1.7,8.1,3.1,17.1,4.5,26.5
				c1.5,9.5,3,19.4,5,29.8c4.6,23.5,12.2,44.9,21.4,60.2c17.4,28.9,36.8,45.5,60.8,52.4c6.2,1.8,12.6,2.9,19.1,3.2
				c44.9,1.5,99.4-30.8,145.8-86.3c19.3-23.1,37-48.3,55.8-75c22-31.3,44.8-63.7,70.3-92.4c9.4-10.6,19.4-20.6,30-30.1
				c44.9-39.7,92-59.5,132.7-55.5c21.8,2.1,42.2,9.8,64.4,24.1c12.1,7.8,24.5,17.6,39.1,30.9c7.1,6.4,14.1,13.1,21.6,20.3
				c25.9,24.7,52.7,50.1,83.1,66.6c14.2,7.6,29.3,13.5,45,17.4c14.7,3.7,29.7,6.4,44.8,8c11.7,1.3,23.1,2.1,35.1,2.9
				c16.5,1.2,33.6,2.3,51.7,4.9c21,3.1,44.9,8.7,71.2,16.7c25.8,7.8,51.4,16.4,74.2,25c28.9,10.9,54.4,21.8,73,29.7
				c12,5.1,20.6,8.8,25.5,10.5l-0.5,2.1c-4.9-1.7-13.6-5.4-25.6-10.5c-18.6-7.9-44.1-18.8-73-29.7c-22.8-8.6-48.4-17.2-74.1-25
				c-26.2-8-50.1-13.6-71-16.6c-18-2.6-35.1-3.8-51.5-4.9c-12-0.8-23.4-1.6-35.1-2.9c-15.2-1.6-30.2-4.3-45-8
				c-15.8-4-31-9.9-45.3-17.6c-30.6-16.5-57.5-42.1-83.5-66.9c-7.5-7.1-14.5-13.8-21.6-20.2c-14.5-13.2-26.8-22.9-38.9-30.7
				c-22-14.2-42.2-21.8-63.7-23.9c-40.3-3.9-87,15.7-131.5,55.1c-10.5,9.4-20.5,19.4-29.9,29.9c-25.5,28.6-48.2,60.9-70.2,92.2
				c-18.8,26.8-36.6,52.1-55.9,75.2c-45.7,54.7-99.4,87-144.1,87c-1,0-2,0-2.9-0.1c-6.6-0.3-13.1-1.4-19.4-3.2
				c-24.5-7-44.2-23.9-61.9-53.2c-9.4-15.5-17.1-37.2-21.7-61c-2-10.5-3.6-20.3-5-29.9c-1.5-9.4-2.8-18.3-4.5-26.4
				c-0.3-1.4-0.6-2.8-0.9-4.1c-7.8-34-15.6-52.7-22-67.7c-2.4-5.6-4.4-10.5-6.2-15.4c-0.4-1.2-0.8-2.4-1.2-3.7l-0.2-0.6
				c-4-12.8-8.2-23.7-16.1-35.7"/>
		</g>
		<g id="Group_24" transform="translate(76.598 435.47)">
			
				<linearGradient id="Path_40_1_" gradientUnits="userSpaceOnUse" x1="1038.7134" y1="117.5186" x2="1039.7134" y2="117.5186" gradientTransform="matrix(-1198.5398 -69.7173 -254.9042 327.8054 1274716.125 34317.1289)">
				<stop  offset="0" style="stop-color:#9B7F90"/>
				<stop  offset="1" style="stop-color:#FF0571"/>
			</linearGradient>
			<path id="Path_40" class="st23" d="M-178.1,303.4c8.7,10.2,13.8,19.4,18.8,29.9l0.2,0.5c0.5,1,0.9,1.9,1.4,2.9
				c1.6,3.1,3.5,6.2,5.5,9.5c7.5,12.6,17.9,29.9,27.7,65.6c0.4,1.3,0.7,2.6,1,4c2.3,9,4.1,19,6,29.7c1.5,8,3,16.4,4.8,25.1
				c3.5,16.3,9.9,39.9,21.2,59.1c17.2,29.5,36,46.9,59,55c6.1,2.2,12.4,3.6,18.8,4.3c44.9,4.1,99.8-25.7,146.8-79.8
				c20.7-23.7,39.5-50.1,59.5-78c21-29.3,42.7-59.6,66.8-86.7c9.3-10.5,19.2-20.6,29.6-30c44.2-39.8,90.7-60.3,130.9-57.9
				c21.8,1.3,42.3,8.1,64.5,21.4c12.4,7.4,24.9,16.7,39.5,29.3c8.3,7.2,16.6,14.8,25.4,22.8c24.8,22.8,50.5,46.4,79.1,62.3
				c14.1,7.7,28.9,13.9,44.3,18.4c14.5,4.2,29.2,7.5,44.2,9.8c12.3,2,24.3,3.3,36.9,4.8c15.6,1.8,31.8,3.7,48.9,6.8
				c20.6,3.7,43.6,9.6,70.4,17.9c26.1,8.1,51.6,16.5,73.7,24.3c12.5,4.4,24.1,8.6,35.4,12.7c30.4,11,54.3,19.7,63.8,20.4l-0.1,2.2
				c-9.7-0.8-33.7-9.5-64.2-20.5c-11.3-4.1-22.9-8.3-35.4-12.7c-22.1-7.8-47.6-16.2-73.7-24.3c-26.7-8.3-49.7-14.2-70.2-17.9
				c-17-3-33.1-4.9-48.8-6.8c-12.6-1.5-24.6-2.9-36.9-4.9c-15-2.3-29.8-5.6-44.4-9.8c-15.5-4.5-30.5-10.7-44.7-18.5
				c-28.8-16.1-54.5-39.7-79.5-62.6c-8.8-8-17-15.6-25.3-22.8c-14.5-12.5-26.9-21.8-39.2-29.1c-21.9-13.1-42.2-19.8-63.8-21.2
				c-39.8-2.4-85.9,18-129.8,57.5c-10.4,9.4-20.2,19.4-29.5,29.9c-24,27-45.7,57.3-66.6,86.6c-20,27.9-38.9,54.3-59.6,78.1
				c-44.5,51.2-96,80.8-139.7,80.8c-2.9,0-5.7-0.1-8.5-0.4c-6.5-0.7-13-2.1-19.2-4.4c-23.4-8.2-42.5-26-59.9-55.9
				c-11.4-19.6-18-43.3-21.5-59.9c-1.8-8.8-3.4-17.1-4.8-25.2c-1.9-10.6-3.8-20.6-6-29.5c-0.3-1.3-0.7-2.7-1-3.9
				c-9.7-35.4-20-52.5-27.4-65c-2-3.4-3.9-6.5-5.5-9.6c-0.5-1-1-2-1.5-3l-0.2-0.5c-4.9-10.4-10-19.4-18.5-29.5"/>
		</g>
		<g id="Group_25" transform="translate(73.804 439.123)">
			
				<linearGradient id="Path_41_1_" gradientUnits="userSpaceOnUse" x1="1041.5038" y1="113.8834" x2="1042.5038" y2="113.8834" gradientTransform="matrix(-1201.7645 -68.368 -255.59 321.4609 1280570.375 35017.2578)">
				<stop  offset="0" style="stop-color:#957C90"/>
				<stop  offset="0.161" style="stop-color:#A6688A"/>
				<stop  offset="1" style="stop-color:#FF0571"/>
			</linearGradient>
			<path id="Path_41" class="st24" d="M-178.3,310.5c8,7,15.1,14.9,21.3,23.6l0.3,0.4c0.5,0.8,1.1,1.5,1.7,2.2
				c1.4,1.7,2.9,3.5,4.6,5.4c9.1,10.4,21.6,24.8,33.6,61.5c0.4,1.3,0.8,2.6,1.2,3.9c3,9.8,5.3,21.1,7.8,33.1
				c1.4,6.5,2.8,13.2,4.3,20.1c3.7,16.1,10.3,39.2,21,58.1c17.1,30.1,35.2,48.5,57.1,57.7c5.9,2.6,12.2,4.4,18.6,5.4
				c44.2,6.7,100.8-21.4,147.9-73.3c22.1-24.4,42.1-51.8,63.3-80.9c19.9-27.3,40.6-55.6,63.1-81.1c9.2-10.5,19-20.5,29.2-29.9
				c43.5-39.8,89.4-61.2,129.2-60.2c21.6,0.5,42.7,6.6,64.6,18.6C503,282,516,291,530.4,302.8c9.6,7.9,19.2,16.4,29.4,25.4
				c23.7,21,48.1,42.7,74.9,58.1c13.9,7.9,28.5,14.4,43.7,19.4c14.3,4.7,28.8,8.6,43.6,11.6c13.1,2.7,25.9,4.8,39.4,7.1
				c14.5,2.4,29.6,4.9,45.4,8.3c19.9,4.3,42,10.4,69.5,19.2c22.5,7.2,48.8,15.6,73.2,23.5c46.4,15.2,86.4,28.3,99.9,26l0.2,2.2
				c-13.8,2.3-54-10.8-100.6-26c-24.4-8-50.7-16.4-73.2-23.5c-27.5-8.8-49.6-14.9-69.4-19.1c-15.8-3.3-30.8-5.8-45.3-8.3
				c-13.5-2.3-26.3-4.4-39.4-7.1c-14.8-3-29.4-6.9-43.7-11.6c-15.3-5-30-11.6-44-19.5C607,372.8,582.4,351,558.7,330
				c-10.1-9-19.7-17.5-29.3-25.4c-14.3-11.7-27.2-20.7-39.6-27.5c-21.6-11.9-42.5-17.9-63.9-18.4c-39.5-1-84.9,20.3-128.1,59.8
				c-10.2,9.4-19.9,19.4-29.1,29.8c-22.5,25.5-43.1,53.7-63,81c-21.2,29.1-41.3,56.6-63.4,81c-43.2,47.7-92.7,74.9-135.2,74.9
				c-4.7,0-9.4-0.3-14.1-1c-6.5-1.1-12.9-2.9-18.9-5.5c-22.3-9.4-40.7-28-58-58.5c-10.9-19.2-17.6-42.6-21.3-58.8
				c-1.6-7-3-13.7-4.4-20.2c-2.5-11.9-4.9-23.2-7.8-32.9c-0.4-1.3-0.8-2.6-1.2-3.8c-11.9-36.3-24.2-50.5-33.2-60.7
				c-1.6-1.9-3.2-3.7-4.6-5.4c-0.6-0.8-1.2-1.5-1.8-2.3l-0.3-0.4c-6.1-8.5-13.1-16.4-21-23.3"/>
		</g>
		<g id="Group_26" transform="translate(71.024 442.649)">
			
				<linearGradient id="Path_42_1_" gradientUnits="userSpaceOnUse" x1="1044.2802" y1="110.3748" x2="1045.2802" y2="110.3748" gradientTransform="matrix(-1205.0621 -67.0968 -256.2914 315.484 1286531.375 35664.1445)">
				<stop  offset="0" style="stop-color:#8F7991"/>
				<stop  offset="0.292" style="stop-color:#B05687"/>
				<stop  offset="1" style="stop-color:#FF0571"/>
			</linearGradient>
			<path id="Path_42" class="st25" d="M-178.5,317.7c8.3,5.1,16.2,10.9,23.6,17.2l0.5,0.4c0.6,0.5,1.2,1,1.8,1.5
				c1.1,0.8,2.2,1.7,3.4,2.5c10.8,7.9,25.5,18.7,39.8,56.1c0.5,1.2,0.9,2.4,1.3,3.7c3.8,10.7,6.8,23.4,9.9,36.8
				c1.1,4.8,2.3,9.8,3.6,14.9c3.9,15.8,10.7,38.5,20.8,57.1c17.2,31.4,34.2,50,55.3,60.3c5.8,2.9,12,5.1,18.3,6.5
				c44.1,9.4,101.2-16.1,148.9-66.7c23.5-24.9,44.7-53.5,67.1-83.7c18.8-25.4,38.3-51.6,59.3-75.6c9.4-10.8,19.2-20.8,28.9-29.9
				c42.9-39.9,88.1-62.1,127.5-62.6c21.7-0.2,42.8,4.9,64.7,15.9c12.7,6.4,25.8,14.9,40.2,26.1c11.1,8.6,22.1,18,33.8,28.1
				c22.3,19.2,45.5,39,70.3,53.7c13.7,8,28.1,14.8,43.1,20.3c14.1,5.2,28.4,9.7,43,13.4c14.3,3.7,28.2,6.7,42.9,9.9
				c13.1,2.8,26.7,5.8,40.8,9.3c23.9,6,49.3,14.1,68.7,20.4c22.4,7.3,46.9,15,72.7,22.8c43.7,13.2,86.2,24.6,100.6,18.9l0.5,2.1
				c-14.8,5.9-57.6-5.6-101.5-18.9c-25.8-7.8-50.3-15.5-72.7-22.8c-19.4-6.4-44.7-14.4-68.6-20.4c-14.1-3.5-27.7-6.4-40.8-9.2
				c-14.7-3.2-28.7-6.2-43-9.9c-14.6-3.7-29-8.2-43.1-13.4c-15-5.5-29.5-12.4-43.3-20.5c-25-14.8-48.1-34.7-70.5-53.9
				c-11.7-10-22.7-19.5-33.7-28c-14.3-11.1-27.4-19.6-39.9-25.9c-21.6-10.8-42.5-15.9-64-15.7c-39,0.5-83.8,22.6-126.4,62.2
				c-9.7,9-19.4,19-28.7,29.7c-21,23.9-40.4,50.1-59.2,75.4c-22.5,30.3-43.7,58.9-67.3,83.9c-41.5,44-90.1,69.2-131.3,69.2
				c-6.4,0-12.8-0.6-19.1-2c-6.5-1.5-12.7-3.7-18.7-6.7c-21.4-10.5-38.7-29.4-56.1-61.2c-10.3-18.8-17.1-41.8-21-57.7
				c-1.3-5.1-2.5-10.1-3.6-14.9c-3.2-13.4-6.1-26-9.8-36.6c-0.4-1.2-0.9-2.4-1.3-3.6c-14.1-36.8-28.5-47.4-39.1-55.2
				c-1.2-0.9-2.3-1.7-3.4-2.6c-0.7-0.5-1.3-1-1.9-1.6l-0.5-0.4c-7.3-6.3-15.2-12-23.4-17.1"/>
		</g>
		<g id="Group_27" transform="translate(67.842 445.977)">
			
				<linearGradient id="Path_43_1_" gradientUnits="userSpaceOnUse" x1="1047.4589" y1="107.0632" x2="1048.4589" y2="107.0632" gradientTransform="matrix(-1208.7198 -65.944 -257.0692 310.0635 1293427.625 36292.2266)">
				<stop  offset="0" style="stop-color:#8A7692"/>
				<stop  offset="0.401" style="stop-color:#BA4784"/>
				<stop  offset="1" style="stop-color:#FF0571"/>
			</linearGradient>
			<path id="Path_43" class="st26" d="M-178.8,325l0.4,0.2c10.8,4.2,18.5,7.5,26,10.9l0.7,0.3c0.7,0.3,1.3,0.6,2,0.9l2,0.8
				c12.5,5,29.5,11.9,46.2,49.5c0.5,1.2,1,2.3,1.5,3.5c4.7,11.6,8.2,25.1,12.3,40.9c0.8,3.1,1.6,6.2,2.5,9.4
				c6,22.7,13,41.6,20.6,56.1c17.1,32.3,33.5,51.8,53.4,63c5.7,3.3,11.7,5.9,18.1,7.7c44,12.2,101.5-10.9,150-60.2
				c25-25.5,47.4-55.1,71.1-86.5c17.7-23.5,36-47.7,55.5-70c9.4-10.7,19-20.8,28.5-29.8c42.2-39.9,86.9-63,125.7-65
				c21.8-1.1,42.9,3.2,64.7,13.1c12.9,5.8,26.2,13.8,40.6,24.4c12.6,9.3,25.2,19.8,38.5,30.8c20.9,17.4,42.5,35.3,65.3,49.3
				c13.6,8.2,27.7,15.3,42.4,21.3c12.9,5.3,26.3,10.1,42.4,15.2c16,5,31.7,9.1,48.2,13.5c11.1,2.9,22.6,6,34.6,9.4
				c21.1,6.1,43.2,13.4,67.9,21.7c23.2,7.7,48.1,15.3,72.2,22c56.6,15.7,88.8,19.5,101.3,11.8l0.8,2c-12.9,7.8-45.4,4.1-102.5-11.7
				c-24.1-6.7-49.1-14.3-72.3-22c-24.7-8.3-46.8-15.6-67.8-21.7c-11.9-3.4-23.4-6.4-34.5-9.4c-16.6-4.4-32.2-8.6-48.3-13.5
				c-16.1-5-29.6-9.9-42.5-15.2c-14.7-6-29-13.2-42.6-21.4c-22.9-14-44.6-32-65.5-49.4c-13.3-11.1-25.9-21.5-38.5-30.8
				c-14.3-10.5-27.5-18.4-40.3-24.2c-21.6-9.8-42.5-14-64-13c-38.5,1.9-82.8,24.8-124.7,64.5c-9.5,9-19,19-28.4,29.7
				c-19.4,22.3-37.7,46.5-55.4,69.9c-23.7,31.5-46.1,61.2-71.3,86.7c-40.3,40.9-86.7,63.9-126.7,63.9c-8.4,0-16.7-1-24.8-3.2
				c-6.4-1.8-12.6-4.5-18.4-7.8C-32,551-48.8,531.3-66,498.7c-7.8-14.7-14.8-33.7-20.8-56.6c-0.8-3.2-1.7-6.3-2.5-9.4
				c-4.1-15.6-7.6-29.1-12.2-40.6c-0.5-1.2-1-2.3-1.5-3.5c-16.4-36.9-33-43.6-45.2-48.5l-2-0.8c-0.7-0.3-1.4-0.6-2.1-0.9l-0.7-0.3
				c-7.4-3.4-15.1-6.6-25.9-10.8l-0.4-0.2"/>
		</g>
		<g id="Group_28" transform="translate(60.849 449.127)">
			
				<linearGradient id="Path_44_1_" gradientUnits="userSpaceOnUse" x1="1054.4487" y1="103.9292" x2="1055.4487" y2="103.9292" gradientTransform="matrix(-1216.0765 -64.8563 -258.6339 304.9493 1308990.625 37106.9023)">
				<stop  offset="0" style="stop-color:#857393"/>
				<stop  offset="0.497" style="stop-color:#C33A81"/>
				<stop  offset="1" style="stop-color:#FF0571"/>
			</linearGradient>
			<path id="Path_44" class="st27" d="M-179,331.9c1.6,0.3,3.2,0.6,4.6,0.9c9.1,1.7,16.4,2.8,22.9,3.8l6.4,1
				c0.7,0.1,1.4,0.2,2.1,0.3l0.4,0.1c14.2,1.8,33.7,4.3,52.9,41.9c0.6,1.1,1.1,2.2,1.6,3.4c5.8,12.4,10.1,27.6,15.1,45.1l1,3.6
				c6.5,22.8,13.2,40.9,20.4,55.1c17.3,33.9,32.7,53.5,51.6,65.7c5.6,3.7,11.5,6.6,17.8,8.8c43.2,14.7,102.5-6.4,151-53.7
				c26.6-25.9,50.2-56.7,75.1-89.3c16.5-21.5,33.5-43.8,51.5-64.5c9.3-10.7,18.8-20.7,28.1-29.7c29.4-28.3,74.8-63,124-67.3
				c21.8-1.9,43,1.5,64.8,10.4c13.1,5.3,26.5,12.8,41,22.8c14.4,9.9,28.6,21.5,43.8,33.7c19.2,15.6,39.2,31.7,59.9,44.7
				c13.4,8.3,27.4,15.8,41.8,22.3c12.8,5.8,26,11.2,41.8,17c18.7,6.8,37.2,12.6,56.6,18.7c8.2,2.6,16.5,5.2,25.1,7.9
				c15,4.9,30.5,10.2,46.8,15.9c6.7,2.3,13.4,4.7,20.3,7c23.2,7.9,48,15.3,71.7,21.3c54.6,13.8,89,15.4,102.1,4.8l1,1.8
				c-13.7,11-47.6,9.6-103.4-4.5c-23.7-6-48.5-13.3-71.8-21.3c-6.8-2.3-13.6-4.7-20.3-7c-16.3-5.7-31.8-11-46.8-15.9
				c-8.6-2.8-16.9-5.4-25.1-7.9c-19.5-6.1-37.9-11.9-56.7-18.7c-15.8-5.8-29.1-11.2-41.9-17c-14.5-6.5-28.5-14-42-22.4
				c-20.8-13.1-40.7-29.2-60-44.8c-15.1-12.2-29.3-23.7-43.7-33.6c-14.4-9.9-27.7-17.3-40.6-22.6c-21.6-8.8-42.5-12.1-64.1-10.3
				c-48.7,4.3-93.8,38.7-123,66.9c-9.3,9-18.7,19-28,29.6c-17.9,20.6-35,42.9-51.4,64.4c-25,32.7-48.6,63.5-75.3,89.5
				c-38.6,37.6-84,58.7-122.9,58.7c-10.1,0.1-20.1-1.5-29.7-4.7c-6.4-2.2-12.5-5.3-18.2-9c-19.2-12.4-34.8-32.2-52.2-66.4
				c-7.3-14.4-14.1-32.5-20.6-55.6l-1-3.6c-4.9-17.4-9.2-32.5-14.9-44.7c-0.5-1.1-1.1-2.2-1.6-3.3c-18.7-36.7-37.7-39.1-51.6-40.9
				l-0.4-0.1c-0.7-0.1-1.4-0.2-2.1-0.3l-6.4-1c-6.5-1-13.9-2.1-23-3.8c-1.5-0.3-3-0.6-4.6-0.9"/>
		</g>
		<g id="Group_29" transform="translate(51.749 452.059)">
			
				<linearGradient id="Path_45_1_" gradientUnits="userSpaceOnUse" x1="1063.546" y1="101.0116" x2="1064.546" y2="101.0116" gradientTransform="matrix(-1225.4543 -63.9084 -260.6283 300.4924 1329474.375 38026.418)">
				<stop  offset="0" style="stop-color:#807094"/>
				<stop  offset="0.565" style="stop-color:#CA317F"/>
				<stop  offset="1" style="stop-color:#FF0571"/>
			</linearGradient>
			<path id="Path_45" class="st28" d="M-179.3,340.7c3.9,0.1,7.6,0.1,10.9,0.1c13-0.2,22.8-1,30.7-1.7l1.4-0.1
				c0.6-0.1,1.3-0.1,2-0.2c13.7-1.3,36.6-3.5,58.3,33.6c0.6,1,1.2,2.1,1.8,3.2c6.6,12.3,11.4,27.3,17.4,47.2
				c4.4,14.6,11.4,36,20.2,54.1c12.8,26,27.6,52.3,49.7,68.3c5.4,4,11.3,7.4,17.6,9.9c43,17.4,102.7-1.1,152-47.1
				c28.3-26.4,53.1-58.3,79.3-92.1c15.2-19.6,31-40,47.5-59c9.2-10.7,18.6-20.7,27.8-29.7c29-28.4,73.7-63.5,122.2-69.7
				c21.9-2.8,43.1-0.3,64.9,7.6c13.3,4.8,26.8,11.7,41.3,21.2c16.3,10.6,32.4,23.3,49.5,36.8c17.4,13.7,35.4,28,53.9,39.9
				c13.3,8.5,27,16.3,41.1,23.3c12.5,6.2,26,12.4,41.2,18.7c23.6,9.8,47.1,18.3,71.9,27.2l8.8,3.2c7.8,2.8,15.8,5.8,23.9,8.8
				c13.7,5.1,27.9,10.3,42.3,15.4c23.3,8.2,47.1,15,71.2,20.5c53.5,12.1,89.1,11.4,102.9-2.2l1.1,1.7
				c-14.4,14.2-49.5,15.1-104.3,2.7c-24.1-5.5-48-12.4-71.3-20.6c-14.5-5.1-28.7-10.3-42.4-15.4c-8.1-3-16.1-6-23.9-8.8l-8.8-3.2
				c-24.9-8.9-48.4-17.4-72-27.2c-15.2-6.4-28.7-12.6-41.3-18.8c-14.2-7-28-14.8-41.3-23.3c-18.6-12-36.6-26.3-54.1-40
				c-17-13.4-33.1-26.1-49.3-36.7c-14.4-9.4-27.8-16.3-41-21c-21.6-7.8-42.5-10.3-64.2-7.5c-48.1,6.1-92.5,41-121.3,69.2
				c-9.1,9-18.4,18.9-27.6,29.6c-16.4,19-32.2,39.3-47.4,58.9c-26.3,33.9-51.1,65.9-79.5,92.3c-37.4,34.8-80.6,54-118.3,54
				c-12.1,0.1-24.1-2.1-35.4-6.5c-6.4-2.6-12.4-6-17.9-10.1C-10.1,530.8-25.1,504.2-38,478c-8.9-18.2-15.9-39.8-20.4-54.5
				c-6-19.8-10.8-34.7-17.2-46.8c-0.6-1.1-1.1-2.1-1.7-3.2c-21.1-36.1-42.6-34-56.7-32.7c-0.7,0.1-1.4,0.1-2,0.2l-1.4,0.1
				c-7.9,0.7-17.7,1.4-30.8,1.7c-3.4,0.1-7.1,0-11-0.1"/>
		</g>
		<g id="Group_30" transform="translate(45.83 454.75)">
			
				<linearGradient id="Path_46_1_" gradientUnits="userSpaceOnUse" x1="1069.4625" y1="98.3337" x2="1070.4625" y2="98.3337" gradientTransform="matrix(-1231.748 -63.0658 -261.9669 296.5307 1342889.125 38695.6602)">
				<stop  offset="0" style="stop-color:#7B6C94"/>
				<stop  offset="0.621" style="stop-color:#CF297C"/>
				<stop  offset="1" style="stop-color:#FF0570"/>
			</linearGradient>
			<path id="Path_46" class="st29" d="M-179.3,350.8c4.9-0.6,9.6-1.2,13.9-1.9c11.2-2,22.2-4.6,33.1-8c0.7-0.2,1.3-0.4,2-0.6
				l1.7-0.5c13.7-3.9,39.2-11,63.3,25.1c0.7,1,1.3,2,1.9,3.1c7.6,12.6,13.4,29.4,18.7,45.7c5.5,17,12.3,36.6,20,53.1
				c15.2,32.2,28.5,55.3,47.8,71c5.3,4.4,11.1,8.1,17.3,11.1c42.8,20.1,102.9,4.2,153.1-40.6c30-26.7,56-59.8,83.6-94.9
				c14-17.8,28.4-36.1,43.3-53.4c9.2-10.7,18.4-20.6,27.4-29.6c28.6-28.5,72.7-64.1,120.5-72c21.7-3.6,44-2,65,4.9
				c13.5,4.3,27.1,10.7,41.7,19.6c18.4,11.2,36.6,25.3,55.8,40.1c15.4,11.9,31.3,24.2,47.4,34.9c12.3,8.1,25.5,16.1,40.5,24.2
				c12.5,6.8,25.8,13.5,40.6,20.6c27.2,12.9,54.4,24,79.8,34.1l3.7,1.5c19.8,8,40.3,16.2,61.8,24c23,8.3,46.7,14.9,70.7,19.8
				c37.1,7.5,85.3,11.9,103.7-9.3l1.2,1.6c-18.9,21.9-67.7,17.4-105.2,9.9c-24.1-4.9-47.7-11.5-70.8-19.8c-21.5-7.8-42-16-61.8-24
				l-3.7-1.5c-25.4-10.2-52.7-21.3-79.9-34.2c-14.8-7.1-28.1-13.8-40.7-20.6c-15-8.2-28.3-16.1-40.6-24.3
				c-16.1-10.8-32.1-23.1-47.5-35c-19.2-14.8-37.3-28.8-55.7-40c-14.5-8.8-28-15.2-41.4-19.4c-20.7-6.8-42.8-8.4-64.3-4.8
				c-47.4,7.8-91.2,43.2-119.6,71.5c-9,9-18.1,18.9-27.3,29.5c-14.9,17.3-29.3,35.6-43.3,53.4c-27.6,35.1-53.7,68.3-83.8,95.1
				c-36.1,32.2-77.3,49.6-113.7,49.6c-14.2,0.2-28.2-2.8-41.1-8.7c-6.3-3-12.2-6.8-17.7-11.3C2.6,523.8-10.8,500.4-26.1,468
				c-7.8-16.6-14.6-36.3-20.1-53.4c-5.2-16.1-11-32.8-18.5-45.2c-0.6-1-1.2-2-1.9-3c-21.7-32.4-43.1-29.6-61.5-24.4l-1.7,0.5
				c-0.7,0.2-1.3,0.4-2,0.6c-10.9,3.3-22,6-33.3,8c-4.3,0.7-9,1.3-13.9,1.9"/>
		</g>
		<g id="Group_31" transform="translate(37.848 457.189)">
			
				<linearGradient id="Path_47_1_" gradientUnits="userSpaceOnUse" x1="1077.4421" y1="95.9073" x2="1078.4421" y2="95.9073" gradientTransform="matrix(-1240.0121 -62.2808 -263.7245 292.8396 1361155.125 39424.7031)">
				<stop  offset="0" style="stop-color:#756995"/>
				<stop  offset="0.667" style="stop-color:#D4237B"/>
				<stop  offset="1" style="stop-color:#FF0470"/>
			</linearGradient>
			<path id="Path_47" class="st30" d="M-179.3,362.6c6.8-1.8,13.1-3.4,18.9-5.3c13.8-4.4,25.3-9.6,35.5-14.2c1-0.4,1.9-0.9,2.9-1.3
				l1.1-0.5c20.6-9,44.9-14.1,68.3,16.7c0.7,0.9,1.4,1.9,2.1,2.9c8.3,12,14.5,28.3,20,44.2l0.2,0.6c5.8,16.6,12.3,35.3,19.6,51.5
				c13.5,29.8,26.3,55.9,46,73.7c5.2,4.7,10.9,8.8,17.1,12.2c41.9,22.5,103.8,8.8,154.1-34.1c31.7-27,59-61.3,87.9-97.6
				c12.6-15.9,25.7-32.3,39.1-47.9c9.1-10.7,18.2-20.6,27-29.5c28.2-28.6,71.7-64.7,118.8-74.4c21.5-4.6,43.9-3.8,65,2.1
				c13.6,3.7,27.3,9.5,42.1,18c20.9,11.9,41.3,27.4,62.9,43.8c13.1,9.9,26.6,20.2,40.1,29.5c12,8.2,25,16.5,39.9,25.2
				c12.6,7.4,25.7,14.7,40,22.4c24.4,12.9,49.4,25,78.8,37.9c20,8.8,41.6,18.2,64.6,26.7c22.8,8.4,46.2,14.7,70.1,19
				c52.3,9.2,89.5,3.4,104.5-16.4l1.3,1.5c-15.5,20.3-53.1,26.3-106.1,17c-24-4.3-47.5-10.7-70.4-19.1c-23-8.5-44.7-17.9-64.7-26.7
				c-29.4-12.9-54.5-25-78.9-38c-14.3-7.6-27.4-15-40-22.4c-14.9-8.8-28-17-40-25.3c-13.6-9.3-27.1-19.6-40.1-29.5
				c-21.6-16.4-42-31.9-62.7-43.7c-14.6-8.3-28.3-14.2-41.7-17.8c-21-5.9-43.1-6.6-64.4-2.1c-46.7,9.6-89.9,45.5-117.9,73.9
				c-8.7,8.9-17.8,18.8-26.9,29.4c-13.3,15.6-26.4,32-39,47.9c-28.9,36.4-56.3,70.8-88.1,97.9c-34.5,29.4-74.4,45.2-109.8,45.2
				c-16.8,0-32.5-3.5-46.1-10.9c-6.3-3.4-12.1-7.6-17.4-12.4c-20-18-32.9-44.3-46.5-74.4c-7.3-16.2-13.9-35-19.7-51.6l-0.2-0.6
				c-5.5-15.7-11.6-31.8-19.8-43.6c-0.7-1-1.3-1.9-2-2.8c-22.6-29.8-45.3-25.3-66.4-16.1l-1.1,0.5c-1,0.4-2,0.8-2.9,1.3
				c-10.2,4.6-21.8,9.8-35.7,14.3c-5.8,1.8-12.2,3.5-18.9,5.3"/>
		</g>
		<g id="Group_32" transform="translate(29.665 459.371)">
			
				<linearGradient id="Path_48_1_" gradientUnits="userSpaceOnUse" x1="1085.6233" y1="93.7356" x2="1086.6233" y2="93.7356" gradientTransform="matrix(-1248.4728 -61.6555 -265.5239 289.8994 1380080.875 40165.4297)">
				<stop  offset="0" style="stop-color:#6F6695"/>
				<stop  offset="4.500000e-002" style="stop-color:#766193"/>
				<stop  offset="0.704" style="stop-color:#D81E7A"/>
				<stop  offset="1" style="stop-color:#FF0470"/>
			</linearGradient>
			<path id="Path_48" class="st31" d="M-179.3,375.9c8.6-3.3,16.7-6.5,24.1-9.9c14.6-6.7,27.5-14.3,37.9-20.5
				c1.4-0.8,2.9-1.7,4.4-2.5c21.9-12.5,47.7-21.2,73.2,8.3c0.8,0.9,1.5,1.8,2.2,2.7c9.3,11.9,16,28.2,21.4,42.7
				c1.3,3.5,2.7,7.2,4,10.8C-7.1,421-2,435,3.5,447.7c12.7,29.4,24.7,57.1,44.1,76.3c5.1,5.1,10.7,9.6,16.8,13.3
				c41.6,25.2,103.9,14.1,155.2-27.6c33.6-27.3,62.1-62.8,92.4-100.5c11.3-14,22.9-28.5,34.7-42.4c9.1-10.7,18.1-20.6,26.6-29.5
				c40-41.3,80.4-67.8,117-76.7c21.3-5.5,43.7-5.7,65.1-0.6c13.7,3.1,27.6,8.5,42.5,16.3c23.6,12.5,47.6,30.6,70.9,48.1
				c10.4,7.9,21.2,16,31.9,23.6c11.8,8.3,24.2,16.6,39.2,26.2c12.8,8.1,25.7,16.1,39.4,24.2c26.5,15.6,51.2,28.8,77.8,41.6
				c15.4,7.4,38.8,18.4,63.8,27.9c22.5,8.5,45.8,14.6,69.6,18.3c52.2,7.8,89.6-0.5,105.3-23.4l1.4,1.4
				c-16.1,23.5-54.1,32.1-106.9,24.2c-23.9-3.7-47.3-9.8-69.9-18.3c-25.1-9.5-48.5-20.5-63.9-28c-26.6-12.8-51.4-26.1-77.9-41.7
				c-13.7-8.1-26.6-16-39.4-24.2c-15-9.5-27.5-17.9-39.3-26.2c-10.7-7.6-21.5-15.7-31.9-23.6c-23.2-17.4-47.1-35.5-70.6-47.9
				c-14.7-7.8-28.5-13.1-42.1-16.2c-21.2-5-43.3-4.8-64.5,0.6c-36.3,8.8-76.5,35.2-116.2,76.3c-8.5,8.8-17.5,18.7-26.5,29.4
				c-11.8,13.8-23.4,28.3-34.7,42.3c-29,36.1-58.9,73.4-92.6,100.8c-33.2,27-71.1,41.3-105.2,41.3c-19,0-36.7-4.4-51.8-13.6
				c-6.2-3.8-12-8.4-17.1-13.6c-19.6-19.5-31.7-47.4-44.6-77C-3.6,436-8.7,422-13.7,408.4c-1.3-3.7-2.7-7.3-4-10.8
				c-5.3-14.3-12-30.4-21-42c-0.7-0.9-1.4-1.8-2.2-2.7c-24.7-28.6-49.9-20-71.2-7.9c-1.5,0.8-3,1.7-4.4,2.5
				c-10.4,6.2-23.4,13.8-38.1,20.6c-7.4,3.4-15.5,6.6-24.2,9.9"/>
		</g>
		<g id="Group_33" transform="translate(21.296 461.332)">
			
				<linearGradient id="Path_49_1_" gradientUnits="userSpaceOnUse" x1="1093.9907" y1="91.7834" x2="1094.9907" y2="91.7834" gradientTransform="matrix(-1257.1162 -61.1331 -267.3621 287.4431 1399633.625 40899.9766)">
				<stop  offset="0" style="stop-color:#696396"/>
				<stop  offset="0.149" style="stop-color:#80538F"/>
				<stop  offset="0.735" style="stop-color:#DB1A79"/>
				<stop  offset="1" style="stop-color:#FF0470"/>
			</linearGradient>
			<path id="Path_49" class="st32" d="M-179.3,390.7c10.5-5.4,20.5-10.4,29.5-15.7c14.2-8.3,26.7-17,40.4-26.8
				c1.5-1.1,3.1-2.2,4.7-3.3c21.8-14.9,50.4-28.4,78.1-0.2c0.8,0.8,1.6,1.7,2.4,2.6c7.9,9,14.9,21.7,22.7,41.1
				c2.6,6.5,5.3,13.6,7.8,20.3c3.8,9.9,7.7,20.2,11.6,29.7l1.9,4.7c12.3,29.7,22.8,55.3,40.3,74.3c4.9,5.4,10.5,10.3,16.6,14.5
				c41.3,27.8,104.1,19.4,156.3-21.1c35.5-27.5,66.7-66,96.9-103.3c9.8-12.1,20-24.7,30.3-36.8c9.2-10.9,17.8-20.5,26.2-29.4
				c40-42.1,78.8-68.7,115.3-79.1c22.1-6.4,43.5-7.5,65.2-3.4c13.8,2.6,27.8,7.4,42.8,14.7c26.9,13.3,54,33.6,80.1,53.3
				c7.3,5.5,14.9,11.2,22.4,16.7c11.3,8.3,23.2,16.6,38.6,27.1c13.2,9.1,26.3,17.8,38.8,25.9c27.9,18.1,52.3,32.5,76.8,45.4
				c23.4,12.3,43.5,21.6,63,29.2c22.2,8.6,45.4,14.5,69.1,17.5c52.2,6.4,89.9-4.5,106.2-30.5l1.4,1.3c-16.7,26.7-55,37.8-107.8,31.4
				c-23.8-3.1-47.1-9-69.4-17.6c-19.6-7.6-39.6-16.9-63.1-29.2c-24.6-12.9-49-27.3-76.9-45.5c-12.5-8.1-25.6-16.9-38.8-26
				c-15.4-10.5-27.3-18.9-38.6-27.2c-7.5-5.5-15.1-11.2-22.4-16.7c-26.1-19.6-53.1-39.9-79.9-53.1c-14.9-7.3-28.8-12-42.4-14.6
				c-21.5-4.1-42.6-3-64.5,3.3c-36.2,10.3-74.8,36.7-114.5,78.6c-8.4,8.9-17,18.5-26.2,29.3c-10.2,12.1-20.4,24.6-30.2,36.8
				c-30.3,37.4-61.6,76-97.2,103.6c-32,24.8-67.9,37.7-100.6,37.7c-21.2,0-41-5.4-57.5-16.5c-6.2-4.2-11.9-9.2-16.9-14.7
				c-17.7-19.3-28.4-45.1-40.7-75l-1.9-4.7c-3.9-9.5-7.8-19.8-11.6-29.8c-2.6-6.8-5.2-13.8-7.8-20.3c-7.7-19.2-14.5-31.7-22.3-40.5
				c-0.8-0.9-1.5-1.7-2.3-2.5c-26.7-27.2-53.5-15.1-76.1,0.4c-1.6,1.1-3.2,2.2-4.7,3.3c-13.7,9.7-26.2,18.5-40.5,26.8
				c-9,5.3-19,10.4-29.6,15.7"/>
		</g>
		<g id="Group_34" transform="translate(12.754 463.053)">
			
				<linearGradient id="Path_50_1_" gradientUnits="userSpaceOnUse" x1="1102.5315" y1="90.0696" x2="1103.5315" y2="90.0696" gradientTransform="matrix(-1265.9161 -60.7078 -269.2337 285.4435 1419783 41624.9219)">
				<stop  offset="0" style="stop-color:#636096"/>
				<stop  offset="0.234" style="stop-color:#8A488C"/>
				<stop  offset="0.76" style="stop-color:#DD1678"/>
				<stop  offset="1" style="stop-color:#FF0370"/>
			</linearGradient>
			<path id="Path_50" class="st33" d="M-179.3,406.9c12.5-7.8,24.3-15.1,35.1-22.7c15.4-10.8,29.6-22.3,42.8-33
				c1.6-1.4,3.3-2.7,5.1-4c23-18,53.2-35.3,83-8.6c0.9,0.8,1.7,1.6,2.5,2.4c8.5,8.5,16.1,21.1,24,39.6c4.2,10,8.4,20.9,12.5,31.5
				c2.3,5.9,4.5,11.8,6.8,17.5c1.4,3.5,2.8,7.1,4.1,10.5c10.4,26.8,20.3,52.2,36.2,71.1c4.8,5.8,10.3,11,16.3,15.6
				c40.9,30.5,104.2,24.7,157.3-14.5c37.5-27.7,70.1-67.6,101.6-106.2c8.4-10.3,17-20.9,25.7-31.1c9.2-10.9,17.7-20.5,25.9-29.3
				c39.5-42.4,77.7-69.8,113.6-81.4c22.2-7.3,43.6-9.3,65.3-6.1c14,2,28.1,6.3,43.2,13.1c30.7,14,61.2,37.1,90.7,59.5
				c3.9,2.9,7.8,5.9,11.7,8.8c11.7,8.7,24.1,17.9,37.9,28.1c13,9.6,25.9,18.9,38.2,27.7c29.2,20.8,52.6,35.9,75.8,49.2
				c22.4,12.7,42.7,22.7,62.2,30.4c22,8.7,45.1,14.3,68.6,16.7c51.3,4.9,90.3-8.7,107.1-37.6l1.4,1.3
				c-17.1,29.5-56.7,43.5-108.6,38.5c-23.7-2.4-46.9-8.1-69-16.8c-19.5-7.8-39.9-17.7-62.4-30.5c-23.3-13.2-46.7-28.4-76-49.3
				c-12.3-8.8-25.2-18.1-38.2-27.8c-13.9-10.2-26.3-19.4-38-28.1c-3.9-2.9-7.8-5.9-11.7-8.8c-29.4-22.3-59.8-45.4-90.4-59.3
				c-14.9-6.7-28.9-11-42.8-13c-21.5-3.2-42.6-1.2-64.6,6.1c-35.6,11.6-73.5,38.8-112.8,81c-8.2,8.8-16.6,18.4-25.8,29.3
				c-8.6,10.3-17.3,20.9-25.7,31.1c-31.6,38.7-64.2,78.8-101.9,106.6c-30.7,22.7-64.8,34.3-96.1,34.3c-23.4,0-45.3-6.5-63.1-19.7
				c-6.1-4.6-11.7-10-16.6-15.9C55.4,493.5,45.4,468,34.9,441c-1.4-3.5-2.7-7-4.1-10.5c-2.2-5.7-4.5-11.6-6.8-17.5
				c-4-10.6-8.2-21.5-12.4-31.5C3.8,363.2-3.7,350.9-12,342.6c-0.8-0.8-1.6-1.6-2.5-2.3c-28.9-25.9-58.5-9-81,8.7
				c-1.7,1.3-3.4,2.7-5,4c-13.2,10.8-27.4,22.3-42.9,33.1c-10.8,7.6-22.6,15-35.2,22.8"/>
		</g>
		<g id="Group_35" transform="translate(4.443 464.522)">
			
				<linearGradient id="Path_51_1_" gradientUnits="userSpaceOnUse" x1="1110.8413" y1="88.6077" x2="1111.8413" y2="88.6077" gradientTransform="matrix(-1274.4944 -60.3007 -271.0581 283.5292 1439599.625 42263.0859)">
				<stop  offset="0" style="stop-color:#5D5D97"/>
				<stop  offset="0.306" style="stop-color:#923F8A"/>
				<stop  offset="0.781" style="stop-color:#E01477"/>
				<stop  offset="1" style="stop-color:#FF0370"/>
			</linearGradient>
			<path id="Path_51" class="st34" d="M-179.3,424.2c14.3-10.5,27.9-20.5,40.4-30.6c16.5-13.5,32-27.4,45.2-39.3
				c1.8-1.6,3.6-3.2,5.4-4.8c24.2-21.1,56.1-42.1,87.9-17c0.9,0.7,1.8,1.5,2.7,2.3c9.2,8.1,17.2,20.2,25.3,38
				c6.2,13.6,11.8,28.8,17.3,43.4l1.7,4.7c1.9,5.1,3.8,10.2,5.6,15.2c9.4,25.8,18.2,50.1,32.9,69.1c4.7,6.2,10.1,11.8,16.1,16.7
				c39.9,32.6,105.1,29.3,158.4-8c39.6-27.7,73.5-69.2,106.4-109.2c6.8-8.4,13.9-17,21-25.4c9.2-11,17.6-20.6,25.5-29.3
				c39-42.6,76.6-70.8,111.8-83.8c22.2-8.3,43.6-11.2,65.4-8.9c14.2,1.5,28.4,5.2,43.6,11.5c35.3,14.7,69.2,41.1,102.1,66.6
				c12.3,9.5,24.8,19.3,37.3,29.1c13.4,10.5,25.4,20,37.6,29.6c21.3,16.5,46.8,35.8,74.8,52.9c21.8,13.4,41.8,23.7,61.3,31.7
				c21.7,8.8,44.7,14.2,68.1,16c51.3,3.6,90.6-12.7,107.9-44.7l1.5,1.2c-17.7,32.7-57.6,49.3-109.5,45.7
				c-23.5-1.8-46.6-7.2-68.5-16.1c-19.6-8-39.8-18.4-61.6-31.8c-28.1-17.2-53.7-36.5-75-53c-12.2-9.5-24.3-19-37.6-29.6
				c-12.5-9.8-25-19.6-37.3-29.1c-32.8-25.4-66.7-51.7-101.7-66.4c-15-6.2-29.1-9.9-43.2-11.4c-21.5-2.3-42.7,0.6-64.7,8.8
				c-34.9,12.9-72.3,40.9-111.1,83.3c-7.9,8.7-16.2,18.2-25.4,29.2c-7,8.4-14.1,17.1-21,25.4c-32.9,40.1-66.9,81.7-106.7,109.6
				c-53.9,37.7-119.8,41-160.3,7.9c-6.1-5-11.6-10.8-16.4-17c-14.9-19.3-23.8-43.8-33.2-69.7c-1.8-5-3.7-10.1-5.6-15.2l-1.7-4.7
				c-5.5-14.6-11.1-29.7-17.2-43.3c-8-17.5-15.9-29.4-24.8-37.3c-0.9-0.8-1.7-1.5-2.6-2.2c-30.9-24.3-62.1-3.7-85.9,17
				c-1.8,1.6-3.6,3.2-5.4,4.8c-13.2,12-28.7,25.9-45.3,39.4c-12.6,10.2-26.1,20.2-40.5,30.7"/>
		</g>
		<g id="Group_36" transform="translate(41.946 465.755)">
			
				<linearGradient id="Path_52_1_" gradientUnits="userSpaceOnUse" x1="1073.3362" y1="87.3786" x2="1074.3362" y2="87.3786" gradientTransform="matrix(-1238.2419 -60.0574 -263.348 282.3855 1351881.5 40188.2422)">
				<stop  offset="0" style="stop-color:#585A97"/>
				<stop  offset="0.363" style="stop-color:#993887"/>
				<stop  offset="0.798" style="stop-color:#E21175"/>
				<stop  offset="1" style="stop-color:#FF036F"/>
			</linearGradient>
			<path id="Path_52" class="st35" d="M-179.3,403.2c17.1-15.6,33.5-31.8,47.6-45.6c1.9-1.8,3.8-3.7,5.7-5.5
				c23.5-22.2,58.6-49,92.8-25.4c1,0.7,1.9,1.4,2.8,2.1c9.7,7.6,18.5,19.6,26.7,36.5c7.1,14.8,13.2,31.3,18.8,47.1
				c2.3,6.4,4.4,12.8,6.5,19c8.5,25,16.5,48.7,30.1,67.9c4.6,6.5,9.9,12.5,15.8,17.8c39.5,35.1,105,34.5,159.4-1.5
				c41.9-28,77.3-71,111.6-112.7c5.3-6.4,10.6-12.8,15.9-19.2c9.3-11.2,17.5-20.7,25.1-29.2c39.1-43.6,75.1-71.7,110.1-86.1
				c22.3-9.2,43.7-13,65.4-11.6c15.1,1,29.9,4.4,43.9,9.9c36.5,13.8,71.7,40.7,101.9,64.9c11.8,9.4,23.8,19.2,36.7,30.1
				c6,5.1,12,10.2,18,15.2c6.4,5.4,12.7,10.8,19,16.1c22.6,19.1,47.2,39.1,73.8,56.7c21.2,14,41,24.8,60.5,32.9
				c21.5,8.9,44.3,14.1,67.5,15.2c51.2,2.3,90.8-16.6,108.8-51.8l1.5,1.2c-18.3,35.9-58.5,55.1-110.3,52.8
				c-23.4-1.2-46.4-6.4-68-15.4c-19.6-8.1-39.5-19-60.8-33c-26.7-17.6-51.3-37.7-74-56.8c-6.3-5.3-12.7-10.7-19-16.1
				c-5.9-5.1-11.9-10.1-17.9-15.2c-12.9-10.8-24.9-20.7-36.6-30c-30.1-24.1-65.2-50.9-101.5-64.6c-13.9-5.4-28.6-8.7-43.5-9.8
				c-21.5-1.4-42.7,2.4-64.8,11.5c-34.7,14.3-70.5,42.3-109.4,85.7c-7.6,8.5-15.8,18-25.1,29.1c-5.3,6.4-10.6,12.8-15.9,19.2
				c-34.4,41.8-69.9,84.9-112,113.1c-55,36.4-121.3,37-161.3,1.4c-6-5.4-11.5-11.5-16.1-18.2c-13.8-19.5-21.9-43.3-30.4-68.6
				c-2.1-6.2-4.3-12.6-6.5-19C8,397.5,1.9,381-5.2,366.3c-8.1-16.7-16.6-28.4-26.1-35.8c-0.9-0.7-1.8-1.4-2.7-2
				c-32.9-22.6-65.8,1.6-90.8,25.3c-1.9,1.8-3.9,3.7-5.7,5.5c-14.1,13.9-30.5,30-47.7,45.6"/>
		</g>
		<g id="Group_37" transform="translate(39.009 466.753)">
			
				<linearGradient id="Path_53_1_" gradientUnits="userSpaceOnUse" x1="1076.2727" y1="86.3831" x2="1077.2727" y2="86.3831" gradientTransform="matrix(-1241.5522 -59.9173 -264.052 281.7266 1358879.125 40551.4805)">
				<stop  offset="0" style="stop-color:#525698"/>
				<stop  offset="0.411" style="stop-color:#9E3185"/>
				<stop  offset="0.813" style="stop-color:#E30F75"/>
				<stop  offset="1" style="stop-color:#FF036F"/>
			</linearGradient>
			<path id="Path_53" class="st36" d="M-179.3,413.1c17.8-17.9,35.2-36.2,50.1-51.9c2-2.1,4-4.2,6.1-6.3
				c24.6-24.9,61.5-55.6,97.6-33.8c1,0.6,2,1.3,3,1.9c10.4,7.2,19.5,18.6,28,35c6.3,12.2,12.2,26.8,18.6,46.1
				c2.5,7.4,4.8,14.9,7.1,22.2c7.7,24.6,14.9,47.9,27.6,67.5c4.5,6.9,9.7,13.2,15.6,19c39.2,37.7,105.2,39.7,160.5,5
				c44.2-27.9,81-72.6,116.6-115.8c3.7-4.5,7.3-8.9,11-13.4c9.6-11.6,17.5-20.8,24.7-29.1c38.7-44,74.1-72.9,108.3-88.5
				c22.3-10.2,43.8-14.9,65.5-14.4c15.1,0.5,30.1,3.2,44.3,8.2c37.9,13,74.3,40.6,101.7,63.2c11.5,9.5,23.3,19.6,36,31
				c8.1,7.3,16.2,14.6,24.2,22c4.1,3.7,8.1,7.5,12.2,11.2c21.2,19.3,46.1,41.5,72.8,60.4c20.8,14.7,40.3,25.9,59.7,34.1
				c21.2,9,44,13.9,67,14.5c51.1,1,91.1-20.5,109.6-58.9l1.5,1.1c-18.9,39.1-59.4,60.9-111.2,59.9c-23.2-0.6-46.2-5.5-67.6-14.6
				c-19.5-8.3-39.1-19.5-60-34.3c-26.8-19-51.8-41.2-73-60.6c-4.1-3.7-8.1-7.4-12.2-11.2c-8-7.3-16.1-14.7-24.2-22
				c-12.7-11.4-24.4-21.5-36-31c-27.3-22.5-63.5-50-101.2-62.9c-14.1-5-28.9-7.7-43.9-8.1c-21.5-0.5-42.8,4.1-64.9,14.2
				c-34,15.5-69.2,44.3-107.7,88c-7.3,8.3-15.1,17.5-24.7,29.1c-3.7,4.4-7.3,8.9-11,13.3c-35.7,43.3-72.5,88.1-117,116.2
				c-55.9,35.1-122.7,33-162.4-5.2c-6-5.8-11.3-12.3-15.9-19.3c-12.9-19.8-20.2-43.2-27.9-68.1c-2.3-7.3-4.6-14.8-7.1-22.2
				c-6.4-19.1-12.3-33.6-18.5-45.7c-8.3-16-17.2-27.2-27.4-34.2c-0.9-0.7-1.9-1.3-2.9-1.9c-35.3-21.2-71.5,9-95.7,33.6
				c-2.1,2.1-4.1,4.2-6.1,6.3c-14.9,15.7-32.3,34-50.1,51.9"/>
		</g>
		<g id="Group_38" transform="translate(36.085 467.529)">
			
				<linearGradient id="Path_54_1_" gradientUnits="userSpaceOnUse" x1="1079.1968" y1="85.6078" x2="1080.1968" y2="85.6078" gradientTransform="matrix(-1244.8657 -59.8736 -264.7567 281.5211 1365941 40915.4102)">
				<stop  offset="0" style="stop-color:#4C5399"/>
				<stop  offset="0.456" style="stop-color:#A42B84"/>
				<stop  offset="0.827" style="stop-color:#E50E74"/>
				<stop  offset="1" style="stop-color:#FF036F"/>
			</linearGradient>
			<path id="Path_54" class="st37" d="M-179.3,423.2c18.4-20.2,36.8-40.6,52.5-58.2c2.1-2.3,4.2-4.7,6.4-7
				c25.7-27.7,64.3-62.1,102.5-42.2c1.1,0.5,2.1,1.1,3.1,1.8c11,6.7,20.6,17.6,29.3,33.4c6.7,12.2,12.7,27,18.4,45.1
				c2.6,8.3,5,16.7,7.3,24.9c6.9,24.5,13.5,47.6,25.5,67.5c4.4,7.2,9.5,14,15.3,20.1c38.8,40.3,105.2,45,161.6,11.5
				c46.6-27.8,84.7-74.2,121.6-119l6.1-7.4c7.2-8.8,15.8-19.1,24.4-29.1c38.3-44.4,73.2-74.1,106.6-90.8c22-11,44.1-16.8,65.6-17.1
				c15.2-0.2,30.2,2.1,44.7,6.6c31,9.5,63.3,29.1,101.5,61.5c11.3,9.6,22.9,20,35.4,32c8.9,8.6,18,17.4,26.7,26l9.1,8.9
				c22.2,21.8,46.1,44.7,71.9,64.1c20.4,15.4,39.6,27,58.9,35.4c21,9.1,43.6,13.8,66.5,13.7c51.1-0.3,91.4-24.4,110.5-66l1.6,1.1
				c-19.4,42.3-60.3,66.7-112,67.1h-0.9c-22.8-0.1-45.3-4.8-66.2-13.9c-19.4-8.5-38.8-20.1-59.2-35.6c-25.9-19.5-49.8-42.5-72-64.3
				l-9.1-8.9c-8.7-8.6-17.7-17.4-26.7-26c-12.5-11.9-24-22.4-35.3-31.9c-38.1-32.3-70.1-51.7-100.9-61.2
				c-14.3-4.5-29.2-6.7-44.2-6.5c-21.3,0.4-43.2,6.1-64.9,17c-33.2,16.6-67.9,46.1-106,90.4c-8.6,10-17.1,20.3-24.3,29l-6.1,7.4
				c-37,45-75.2,91.5-122,119.5c-57,33.9-124.2,29-163.5-11.8c-5.9-6.2-11.2-13.1-15.6-20.5c-12.2-20.2-18.8-43.4-25.8-68.1
				c-2.3-8.1-4.7-16.6-7.3-24.8c-5.7-18-11.6-32.6-18.3-44.6C4.6,336.7-4.8,326-15.6,319.5c-1-0.6-2-1.2-3-1.7
				c-37.2-19.4-75.3,14.6-100.6,41.9c-2.2,2.3-4.3,4.7-6.4,7c-15.7,17.6-34.1,38-52.5,58.2"/>
		</g>
		<g id="Group_39" transform="translate(88.063 468.105)">
			
				<linearGradient id="Path_55_1_" gradientUnits="userSpaceOnUse" x1="1027.2168" y1="85.0316" x2="1028.2168" y2="85.0316" gradientTransform="matrix(-1194.4657 -59.8652 -254.0377 281.4815 1248397.125 37960.1016)">
				<stop  offset="0" style="stop-color:#45509A"/>
				<stop  offset="8.000000e-003" style="stop-color:#464F99"/>
				<stop  offset="0.498" style="stop-color:#A92682"/>
				<stop  offset="0.839" style="stop-color:#E60C74"/>
				<stop  offset="1" style="stop-color:#FF036F"/>
			</linearGradient>
			<path id="Path_55" class="st38" d="M-179.3,369c31.4-36.9,72.8-76.9,114.1-58.4c22.4,10,39.9,36.1,52.1,77.5
				c2.6,8.9,5,18.1,7.3,27c6,23.4,12.3,47.6,23.7,68c37.1,66.3,119.5,72,177.7,39.3c49.1-27.6,88.5-75.7,126.6-122.3
				c8.2-10,16.7-20.4,25.1-30.4c42.7-50.6,100.7-109.2,170.5-113c72.4-4,138,53.9,181.1,97.8c9.3,9.5,18.6,19.3,27.7,28.9
				c41.6,43.9,84.7,89.3,136.4,112.4c62,27.7,145.2,12.8,177.3-60.1l1.6,1c-32.5,73.9-116.8,89.1-179.5,61.1
				c-52.1-23.3-95.2-68.8-137-112.8c-9-9.5-18.4-19.4-27.7-28.8C655,312.5,589.7,254.9,518,258.9c-69.2,3.9-126.9,62.1-169.4,112.4
				c-8.4,10-16.9,20.3-25.1,30.3c-38.2,46.7-77.7,95-127.1,122.8C166,541.5,130.2,548,98,542.3c-24.9-4.4-59.3-18.1-81.6-57.9
				c-11.6-20.7-17.8-45-23.9-68.6c-2.3-8.9-4.7-18.1-7.3-26.9c-12.1-40.8-29.2-66.5-51.1-76.2c-40.4-18.1-81.2,21.5-112.3,57.9"/>
		</g>
	</g>
</g>
</svg>
