<?xml version="1.0" encoding="utf-8"?>
<!-- Generator: Adobe Illustrator 19.0.1, SVG Export Plug-In . SVG Version: 6.00 Build 0)  -->
<svg version="1.1" id="Слой_1" xmlns="http://www.w3.org/2000/svg" xmlns:xlink="http://www.w3.org/1999/xlink" x="0px" y="0px"
	 viewBox="-307 7.5 584.9 546.5" style="enable-background:new -307 7.5 584.9 546.5;" xml:space="preserve">
<style type="text/css">
	.st0{fill:#FFFFFF;stroke:#292929;stroke-width:5;stroke-linecap:round;stroke-linejoin:round;stroke-miterlimit:10;}
</style>
<g id="Group_1" transform="translate(28.554)">
	<path id="Path_1" class="st0" d="M-278.8,140c-11.8,20.9-20.8,43.2-26.8,66.4"/>
	<path id="Path_2" class="st0" d="M-307,336.2c5.6,23.3,14.2,45.8,25.7,66.9"/>
	<path id="Path_3" class="st0" d="M-173.6,511.1c21.1,11.5,43.5,20.1,66.9,25.7"/>
	<path id="Path_4" class="st0" d="M-110.8,11.9c-23.2,6-45.5,15-66.4,26.8"/>
	<path id="Path_5" class="st0" d="M191,407.2c11.8-20.9,20.8-43.2,26.8-66.4"/>
	<path id="Path_6" class="st0" d="M219.2,211.1c-5.6-23.3-14.2-45.8-25.7-66.9"/>
	<path id="Path_7" class="st0" d="M85.8,36.2C64.7,24.7,42.2,16.1,18.9,10.5"/>
	<path id="Path_8" class="st0" d="M23,535.4c23.2-6,45.5-15,66.4-26.8"/>
</g>
</svg>
