<?xml version="1.0" encoding="utf-8"?>
<!-- Generator: Adobe Illustrator 19.0.1, SVG Export Plug-In . SVG Version: 6.00 Build 0)  -->
<svg version="1.1" id="Слой_1" xmlns="http://www.w3.org/2000/svg" xmlns:xlink="http://www.w3.org/1999/xlink" x="0px" y="0px"
	 viewBox="-295 26 534 532" style="enable-background:new -295 26 534 532;" xml:space="preserve">
<style type="text/css">
	.st0{opacity:0.65;}
	.st1{fill:#F5F5F5;}
	.st2{clip-path:url(#SVGID_2_);fill:none;stroke:#F3F3F3;stroke-width:2;stroke-miterlimit:20;}
	.st3{opacity:0.8;}
	.st4{fill:#FFFFFF;}
	.st5{fill:none;stroke:#292929;stroke-width:5;stroke-linecap:round;stroke-linejoin:round;stroke-miterlimit:20;}
	.st6{fill:#E3E5E9;}
</style>
<g class="st0">
	<path class="st1" d="M-232,295.5C-232,182.6-140.4,91-27.5,91S177,182.6,177,295.5S85.4,500-27.5,500S-232,408.4-232,295.5z"/>
	<g>
		<defs>
			<circle id="SVGID_1_" cx="-27.5" cy="295.5" r="204.5"/>
		</defs>
		<clipPath id="SVGID_2_">
			<use xlink:href="#SVGID_1_"  style="overflow:visible;"/>
		</clipPath>
		<path class="st2" d="M-232,295.5C-232,182.6-140.4,91-27.5,91S177,182.6,177,295.5S85.4,500-27.5,500S-232,408.4-232,295.5z"/>
	</g>
</g>
<g>
	<g>
		<g>
			<g>
				<g class="st3">
					<g class="st3">
						<g class="st3">
							<g class="st3">
								<g class="st3">
									<g class="st3">
										<defs>
											<rect id="SVGID_3_" x="-44.2" y="165" class="st3" width="62.7" height="64.8"/>
										</defs>
										<clipPath id="SVGID_4_">
											<use xlink:href="#SVGID_3_"  style="overflow:visible;"/>
										</clipPath>
									</g>
								</g>
							</g>
						</g>
					</g>
				</g>
				<g>
					<g>
						<g>
							<g class="st3">
								<defs>
									<rect id="SVGID_5_" x="-27.4" y="254.6" class="st3" width="32.9" height="33"/>
								</defs>
								<clipPath id="SVGID_6_">
									<use xlink:href="#SVGID_5_"  style="overflow:visible;"/>
								</clipPath>
							</g>
						</g>
					</g>
					<g>
						<g>
							<g>
								<path class="st4" d="M-262.5,159.1c-5.9,10.4-11.1,21.2-15.6,32.3c-4.5,11.1-8.2,22.5-11.2,34.1"/>
								<path class="st5" d="M-262.5,159.1c-5.9,10.4-11.1,21.2-15.6,32.3c-4.5,11.1-8.2,22.5-11.2,34.1"/>
							</g>
							<g>
								<path class="st4" d="M-290.6,355c2.8,11.6,6.3,23.1,10.6,34.3c4.3,11.2,9.3,22.1,15,32.6"/>
								<path class="st5" d="M-290.6,355c2.8,11.6,6.3,23.1,10.6,34.3c4.3,11.2,9.3,22.1,15,32.6"/>
							</g>
							<g>
								<path class="st4" d="M-157.2,529.8c10.5,5.7,21.4,10.7,32.6,15c11.2,4.3,22.6,7.8,34.3,10.6"/>
								<path class="st5" d="M-157.2,529.8c10.5,5.7,21.4,10.7,32.6,15c11.2,4.3,22.6,7.8,34.3,10.6"/>
							</g>
							<g>
								<path class="st4" d="M-94.4,31.1c-11.6,3-23,6.7-34.1,11.2c-11.1,4.5-21.9,9.7-32.3,15.6"/>
								<path class="st5" d="M-94.4,31.1c-11.6,3-23,6.7-34.1,11.2c-11.1,4.5-21.9,9.7-32.3,15.6"/>
							</g>
							<g>
								<path class="st4" d="M207.5,426.1c5.9-10.4,11.1-21.2,15.6-32.3c4.5-11.1,8.2-22.5,11.2-34.1"/>
								<path class="st5" d="M207.5,426.1c5.9-10.4,11.1-21.2,15.6-32.3c4.5-11.1,8.2-22.5,11.2-34.1"/>
							</g>
							<g>
								<path class="st4" d="M235.6,230.1c-2.8-11.6-6.3-23.1-10.6-34.3c-4.3-11.2-9.3-22.1-15-32.6"/>
								<path class="st5" d="M235.6,230.1c-2.8-11.6-6.3-23.1-10.6-34.3c-4.3-11.2-9.3-22.1-15-32.6"/>
							</g>
							<g>
								<path class="st4" d="M102.2,55.3c-10.5-5.7-21.4-10.7-32.6-15C58.5,36,47,32.5,35.4,29.7"/>
								<path class="st5" d="M102.2,55.3c-10.5-5.7-21.4-10.7-32.6-15C58.5,36,47,32.5,35.4,29.7"/>
							</g>
							<g>
								<path class="st4" d="M39.4,554.1c11.6-3,23-6.7,34.1-11.2c11.1-4.5,21.9-9.7,32.3-15.6"/>
								<path class="st5" d="M39.4,554.1c11.6-3,23-6.7,34.1-11.2c11.1-4.5,21.9-9.7,32.3-15.6"/>
							</g>
						</g>
						<g>
							<path class="st6" d="M-212,74.6 M-230.9,130.4"/>
						</g>
					</g>
					<g>
						<g>
							<path class="st6" d="M-27.6,44.6L-27.6,44.6"/>
						</g>
					</g>
				</g>
			</g>
		</g>
	</g>
</g>
</svg>
