<svg id="Group_178" data-name="Group 178" xmlns="http://www.w3.org/2000/svg" width="28.424" height="28.424" viewBox="0 0 28.424 28.424">
  <path id="Path_74" data-name="Path 74" d="M14.212,28.424A14.212,14.212,0,1,0,0,14.212,14.212,14.212,0,0,0,14.212,28.424Z" fill="#2b2b2b" fill-rule="evenodd"/>
  <path id="Path_75" data-name="Path 75" d="M10.247,14.141a.761.761,0,0,0-.239-.634L8.239,11.326V11h5.494l4.246,9.531L21.712,11h5.237v.326L25.436,12.81a.458.458,0,0,0-.168.434V24.152a.458.458,0,0,0,.168.434l1.477,1.484V26.4H19.483V26.07l1.53-1.521c.15-.154.15-.2.15-.434V15.3L16.908,26.36h-.575L11.379,15.3v7.413a1.038,1.038,0,0,0,.274.851l1.99,2.471v.326H8v-.326l1.99-2.471a1,1,0,0,0,.257-.851Z" transform="translate(-3.263 -4.486)" fill="#fff"/>
</svg>
