<svg xmlns="http://www.w3.org/2000/svg" xmlns:xlink="http://www.w3.org/1999/xlink" width="59.558" height="59.546" viewBox="0 0 59.558 59.546">
  <defs>
    <linearGradient id="linear-gradient" x1="0.5" x2="0.5" y2="1" gradientUnits="objectBoundingBox">
      <stop offset="0" stop-color="#f16a46"/>
      <stop offset="0.498" stop-color="#ed337c"/>
      <stop offset="1" stop-color="#8e489b"/>
    </linearGradient>
  </defs>
  <g id="Group_19042" data-name="Group 19042" transform="translate(-4956.033 -2817.197)">
    <g id="Group_3" data-name="Group 3" transform="translate(2935.169 1505.366)">
      <g id="Group_2" data-name="Group 2">
        <path id="Path_9" data-name="Path 9" d="M2039.373,1356.979l1.341-2.989a14.506,14.506,0,0,1-3.325-2.06l-1.474,3.289-4.551-2.534-6.692,12.006,12.011,6.688,6.69-12.006-3.735-2.08C2039.547,1357.188,2039.473,1357.075,2039.373,1356.979Z" fill="url(#linear-gradient)"/>
        <path id="Path_10" data-name="Path 10" d="M2033.1,1328.333l2.48,2.854a14.649,14.649,0,0,1,2.888-2.583l-2.394-2.754,4.155-3.468-8.809-10.551-10.555,8.809,3.782,4.53a6.518,6.518,0,0,0,1.29,1.745c.122.114.27.174.4.278l3.339,4Z" fill="url(#linear-gradient)"/>
        <path id="Path_11" data-name="Path 11" d="M2079.238,1348.926l1.184-13.693-13.7-1.184-.459,5.306c-.041.076-.108.141-.147.218l-4.947-.466a14.435,14.435,0,0,1-.088,3.883l4.666.441c.033.11.1.208.137.316l-.347,4Z" fill="url(#linear-gradient)"/>
      </g>
    </g>
    <g id="Group_11" data-name="Group 11" transform="translate(2935.169 1505.366)">
      <path id="Path_32" data-name="Path 32" d="M2047.957,1341.488c-.186,0-6.253-1.125-6.253-1.125l1.986-11.58-1.7-.182-7.621,10.467,5.255,11.831,3.649.386C2045.082,1347.517,2048.09,1341.488,2047.957,1341.488Z" fill="url(#linear-gradient)"/>
      <path id="Path_33" data-name="Path 33" d="M2054.866,1329.966l-3.655-.388-4.617,9.013,7.613.743s-6.153,7.764-9.741,12.078l8.033.853,7.621-10.467Z" fill="url(#linear-gradient)"/>
    </g>
  </g>
</svg>
