<svg xmlns="http://www.w3.org/2000/svg" width="40.389" height="42.332" viewBox="0 0 40.389 42.332">
  <g id="Group_18989" data-name="Group 18989" transform="translate(0 0)">
    <g id="Group_7" data-name="Group 7" transform="translate(0 7.288)">
      <g id="Group_6" data-name="Group 6">
        <path id="Path_15" data-name="Path 15" d="M1426.123,1070.529a2.149,2.149,0,0,0-1.094-.37.918.918,0,0,0-.824.269.784.784,0,0,0-.005.83l1.171,2.676,2.666.151-1.171-2.677A2.009,2.009,0,0,0,1426.123,1070.529Z" transform="translate(-1412.91 -1070.156)" fill="#e3e5e9"/>
        <path id="Path_16" data-name="Path 16" d="M1431.235,1070.571a.862.862,0,0,0,0,.925l1.2,2.752,2.849.16-1.2-2.752a2.273,2.273,0,0,0-1.981-1.374A.985.985,0,0,0,1431.235,1070.571Z" transform="translate(-1415.071 -1070.193)" fill="#e3e5e9"/>
        <path id="Path_17" data-name="Path 17" d="M1434.88,1084.7a8.845,8.845,0,0,1-1.483.553,12.9,12.9,0,0,1-2.389.406c-.231.011-.465.028-.7.037a24.637,24.637,0,0,1-10.77-2.45c-5.122-2.361-8.952-5.88-10.517-9.237a8.568,8.568,0,0,1-.55-1.491,6.612,6.612,0,0,1-.2-1.617c-.115.412-.225.826-.335,1.238a6.115,6.115,0,0,0,.061.621,7.414,7.414,0,0,0,.423,1.431c1.377,3.533,5.344,7.321,10.763,9.82a25.4,25.4,0,0,0,9.823,2.445c.544.016,1.083,0,1.6-.031a12.033,12.033,0,0,0,3.047-.6,7.81,7.81,0,0,0,1.357-.61,5.682,5.682,0,0,0,1.658-1.4,4.694,4.694,0,0,0,.6-.962c.058-.126.109-.256.16-.385a4.912,4.912,0,0,1-.693.916A6.112,6.112,0,0,1,1434.88,1084.7Z" transform="translate(-1407.934 -1070.387)" fill="#e3e5e9"/>
      </g>
    </g>
    <path id="Path_18" data-name="Path 18" d="M1453.7,1096.349a8.99,8.99,0,0,1-.4,1.53,12.754,12.754,0,0,1-1.046,2.186c-.124.194-.243.4-.375.6a24.626,24.626,0,0,1-8.207,7.389c-4.882,2.824-9.964,3.926-13.612,3.271a8.578,8.578,0,0,1-1.534-.41,6.7,6.7,0,0,1-1.437-.768c.27.331.546.659.819.987.179.1.349.217.543.307a7.347,7.347,0,0,0,1.415.479c3.681.912,9.063-.148,14.229-3.136a25.439,25.439,0,0,0,7.659-6.618c.326-.435.625-.883.893-1.322a12.008,12.008,0,0,0,1.267-2.835,7.884,7.884,0,0,0,.282-1.459,5.663,5.663,0,0,0-.191-2.163,4.675,4.675,0,0,0-.442-1.042c-.069-.121-.146-.236-.224-.353a4.856,4.856,0,0,1,.35,1.095A6.12,6.12,0,0,1,1453.7,1096.349Z" transform="translate(-1413.833 -1069.902)" fill="#e3e5e9"/>
    <path id="Path_21" data-name="Path 21" d="M1428.255,1062.086a27.576,27.576,0,0,0-6.413-2.082,18.638,18.638,0,0,0-5.736-.265,11.433,11.433,0,0,0-2.16.471l4,3.162-6.851-1.428a5.116,5.116,0,0,0-1.313,4.049,8.07,8.07,0,0,0,.739,2.506,12.408,12.408,0,0,0,.958,1.679,23.562,23.562,0,0,0,9.562,7.551,24.583,24.583,0,0,0,10.906,2.448c.194-.01.38-.023.567-.035.157-.01.319-.026.479-.041a13.271,13.271,0,0,0,1.907-.358,8.473,8.473,0,0,0,2.388-1.065,6.051,6.051,0,0,0,.939-.8,4.213,4.213,0,0,0,.29-.335,4.743,4.743,0,0,0,.6-.962C1441.1,1072.254,1436.242,1065.77,1428.255,1062.086Zm3.648,11.3h-.019l.8,1.835-2.241-.126-.8-1.835-7.756-.437.8,1.835-2.241-.126-.8-1.835-.034-.076-.773-.044-.9-2.06.773.043-.518-1.185-.775-.043-.9-2.06.783.043a1.892,1.892,0,0,1,.014-1.975,2.13,2.13,0,0,1,1.883-.635,4.8,4.8,0,0,1,2.091.6,4.2,4.2,0,0,1,1.478,1.286,1.185,1.185,0,0,1,.412-1.312,2.472,2.472,0,0,1,1.758-.444,5.5,5.5,0,0,1,2.708.9,4.914,4.914,0,0,1,1.878,2.2l.027.064.885.05.9,2.059-.885-.049.518,1.186.885.05.9,2.06-.885-.05Z" transform="translate(-1408.49 -1059.624)" fill="#e3e5e9"/>
    <path id="Path_24" data-name="Path 24" d="M1451.084,1089.792c-.027-.136-.068-.285-.109-.421a4.732,4.732,0,0,0-.434-1.044c-2.388-4.123-10.488-3.893-18.112.515a27.4,27.4,0,0,0-5.386,4.042,18.429,18.429,0,0,0-3.528,4.53,9.048,9.048,0,0,0-1.221,4.368,5.16,5.16,0,0,0,2.686,4.408,7.88,7.88,0,0,0,2.483.841,12.039,12.039,0,0,0,1.913.19,23.509,23.509,0,0,0,11.682-3.472,24.5,24.5,0,0,0,8.29-7.5c.108-.163.2-.312.3-.475.082-.136.163-.271.244-.42a11.856,11.856,0,0,0,.8-1.763,8.616,8.616,0,0,0,.516-2.563A6.152,6.152,0,0,0,1451.084,1089.792Zm-7.5,5.354-16.952,9.059s9.819-7.132,10.2-7.2-6.82.514-6.82.514l8.485-7.067,6.633-.991-9.494,6.114Z" transform="translate(-1412.357 -1067.558)" fill="#e3e5e9"/>
  </g>
</svg>
