<svg xmlns="http://www.w3.org/2000/svg" width="36.138" height="41.262" viewBox="0 0 36.138 41.262">
  <g id="Security" transform="translate(0 0)">
    <path id="Path_25" data-name="Path 25" d="M1806.212,711.135l-18-9.032-18,9.032-.069.069,3.631,22.493s14.377,9.641,14.438,9.668h0l14.436-9.259,3.631-22.9Zm-11.928,21.342h-12.146l-6.072-10.515,6.072-10.516h12.146l6.074,10.516Z" transform="translate(-1770.142 -702.103)" fill="#e3e5e9"/>
    <path id="Path_26" data-name="Path 26" d="M1798.069,724.3h-1.26V723.3l-1.847-1.846-2.439-2.438-4.286,4.284V724.3h-1.261l-.5.5v7.057l3.556.418,1.975-3.01h-2.573l1.329-3.584h3.53l-2.607,2.226,3.467-.145-3.909,4.6h3.144l4.191-.5v-7.057Zm-3.781,0h-3.53V723.3l1.765-1.764,1.765,1.764Z" transform="translate(-1774.454 -706.567)" fill="#e3e5e9"/>
  </g>
</svg>
