<svg xmlns="http://www.w3.org/2000/svg" xmlns:xlink="http://www.w3.org/1999/xlink" width="54.865" height="54.865" viewBox="0 0 54.865 54.865">
  <defs>
    <linearGradient id="linear-gradient" x1="0.5" x2="0.5" y2="1" gradientUnits="objectBoundingBox">
      <stop offset="0" stop-color="#f16a46"/>
      <stop offset="0.498" stop-color="#ed337c"/>
      <stop offset="1" stop-color="#8e489b"/>
    </linearGradient>
  </defs>
  <path id="Path_9" data-name="Path 9" d="M2180.335,1094.293v-9.635l-5.293-.306a22.5,22.5,0,0,0-2.865-6.9l3.531-3.963-6.813-6.813-3.963,3.53a22.635,22.635,0,0,0-6.905-2.866l-.306-5.293h-9.634l-.306,5.293a22.613,22.613,0,0,0-6.9,2.866l-3.964-3.53-6.813,6.813,3.532,3.963a22.558,22.558,0,0,0-2.867,6.9l-5.293.306v9.635l5.293.306a22.581,22.581,0,0,0,2.867,6.905l-3.532,3.964,6.813,6.813,3.964-3.531a22.51,22.51,0,0,0,6.9,2.865l.306,5.293h9.634l.306-5.293a22.532,22.532,0,0,0,6.905-2.865l3.963,3.531,6.813-6.813-3.531-3.964a22.523,22.523,0,0,0,2.865-6.905Zm-43.713-4.817a16.253,16.253,0,0,1,22.135-15.18l-3.286-2.258-11.909,19,9.032.376L2145.578,1104A16.268,16.268,0,0,1,2136.622,1089.476Zm16.282,16.281a16.232,16.232,0,0,1-5.978-1.148l17.045-18.018-11.7-.132,10.006-10.285a16.272,16.272,0,0,1-9.37,29.582Z" transform="translate(-2125.469 -1062.042)" fill="url(#linear-gradient)"/>
</svg>
