<svg xmlns="http://www.w3.org/2000/svg" xmlns:xlink="http://www.w3.org/1999/xlink" width="62.851" height="74.406" viewBox="0 0 62.851 74.406">
  <defs>
    <linearGradient id="linear-gradient" x1="0.5" x2="0.5" y2="1" gradientUnits="objectBoundingBox">
      <stop offset="0" stop-color="#f16a46"/>
      <stop offset="0.498" stop-color="#ed337c"/>
      <stop offset="1" stop-color="#8e489b"/>
    </linearGradient>
  </defs>
  <g id="Group_19002" data-name="Group 19002" transform="matrix(0.875, -0.485, 0.485, 0.875, -1843.529, -1499.364)">
    <g id="Group_5" data-name="Group 5" transform="translate(866.934 2244.224)">
      <g id="Group_4" data-name="Group 4" transform="translate(2.54 0)">
        <path id="Path_12" data-name="Path 12" d="M2023.488,825.289l.176,4.088.04.025-.015.01,5.676,5.2,8.194-8.94Z" transform="translate(-2023.488 -825.289)" fill="url(#linear-gradient)"/>
        <path id="Path_13" data-name="Path 13" d="M2058.416,844.49l-8.155,8.9,5.451,4.994a.211.211,0,0,0,.033-.037c.079.091.23.265.23.265l4.087-.183Z" transform="translate(-2025.292 -826.583)" fill="url(#linear-gradient)"/>
      </g>
      <path id="Path_14" data-name="Path 14" d="M2024.391,849.414l-1.759,6.352,5.368-2.131-6.171,5.03-1.064,3.84,13.557-4,1.934-4.907-6.488-5.852Z" transform="translate(-2020.765 -826.803)" fill="url(#linear-gradient)"/>
    </g>
    <path id="Path_23" data-name="Path 23" d="M2073.371,804.67l-3.121-.62-16.8,6.027-1.689.956L2039.5,824.409l-8.817,9.623-1.492,1.627.221,4.948,2.211,2.024-.488,1.066,2.317,2.12c2.046-1.594,9.346-6.188,9.346-6.188l-6.032-2.256,8.446-5.68,8.113,1.155-9.463,3.5,5.255,2.941s-12.032,5.561-15.349,6.813l4.409,4.036,1.018-.576,2.275,2.082,4.946-.216,1.49-1.627,8.775-9.573,12.3-13.425.667-1.108.026.024,4.99-18.355Zm-12.822,22.007-7.59.336-.331-7.592,11.992-4.634Z" transform="translate(-1154.399 1420.366)" fill="url(#linear-gradient)"/>
  </g>
</svg>
