<svg xmlns="http://www.w3.org/2000/svg" xmlns:xlink="http://www.w3.org/1999/xlink" width="67.045" height="67.141" viewBox="0 0 67.045 67.141">
  <defs>
    <linearGradient id="linear-gradient" x1="0.5" x2="0.5" y2="1" gradientUnits="objectBoundingBox">
      <stop offset="0" stop-color="#f16a46"/>
      <stop offset="0.498" stop-color="#ed337c"/>
      <stop offset="1" stop-color="#8e489b"/>
    </linearGradient>
  </defs>
  <path id="Path_27" data-name="Path 27" d="M1556.773,802.788l-16.713,1.8-10.371,15.055,5.99-.643,6.234-9.051,10.884-1.172,2.787,10.581-8.091,11.75-5.264.569,1.34-1.95-2.788-10.576-2.256.242-.177-.674-8.631.925-8.082.867-12.428,18.051L1513.5,854.8l16.707-1.794,10.369-15.055,0,0,8.056-.87,1.14-1.655,11.285-16.388Zm-24.832,36.094,1.471-.158-5.4,7.846-9.707,1.042-2.491-9.438,7.219-10.489,4.7-.5-1.194,1.736,2.488,9.442,2.708-.292-.5-1.911-.229.185.2-.308-3.531-13.4,3.531,13.4,3.858-6.026-4.986-.5,5.012-6.483,4.75.3-4.042,4.694,4.474.9-9.034,7.236Z" transform="translate(-1696.659 -190.036) rotate(-21)" fill="url(#linear-gradient)"/>
</svg>
