<svg xmlns="http://www.w3.org/2000/svg" xmlns:xlink="http://www.w3.org/1999/xlink" width="52.33" height="59.751" viewBox="0 0 52.33 59.751">
  <defs>
    <linearGradient id="linear-gradient" x1="0.5" x2="0.5" y2="1" gradientUnits="objectBoundingBox">
      <stop offset="0" stop-color="#f16a46"/>
      <stop offset="0.498" stop-color="#ed337c"/>
      <stop offset="1" stop-color="#8e489b"/>
    </linearGradient>
  </defs>
  <g id="Group_19011" data-name="Group 19011" transform="translate(-4705.312 -2207.469)">
    <path id="Path_25" data-name="Path 25" d="M1822.375,715.182,1796.309,702.1l-26.065,13.079-.1.1,5.258,32.571s20.819,13.961,20.907,14h0l20.9-13.407,5.258-33.165Zm-17.273,30.9h-17.588l-8.793-15.227,8.793-15.229H1805.1l8.8,15.229Z" transform="translate(2935.169 1505.366)" fill="url(#linear-gradient)"/>
    <path id="Path_26" data-name="Path 26" d="M1803.265,726.673h-1.824v-1.458l-2.675-2.674-3.531-3.53-6.206,6.2v1.458H1787.2l-.729.731v10.219l5.149.606,2.859-4.359h-3.727l1.925-5.189h5.111l-3.774,3.223,5.02-.211-5.661,6.66h4.553l6.068-.729V727.4Zm-5.475,0h-5.111v-1.458l2.556-2.555,2.555,2.555Z" transform="translate(2936.243 1506.477)" fill="url(#linear-gradient)"/>
  </g>
</svg>
