<svg xmlns="http://www.w3.org/2000/svg" width="63.346" height="63.346" viewBox="0 0 63.346 63.346">
  <path id="Path_9" data-name="Path 9" d="M2188.815,1099.279v-11.124l-6.111-.353a25.986,25.986,0,0,0-3.309-7.972l4.077-4.576-7.866-7.866-4.576,4.075a26.128,26.128,0,0,0-7.973-3.309l-.354-6.111h-11.123l-.354,6.111a26.106,26.106,0,0,0-7.972,3.309l-4.577-4.075-7.866,7.866,4.078,4.576a26.057,26.057,0,0,0-3.311,7.972l-6.112.353v11.124l6.112.353a26.083,26.083,0,0,0,3.311,7.972l-4.078,4.576,7.866,7.866,4.577-4.077a25.994,25.994,0,0,0,7.972,3.308l.354,6.112h11.123l.354-6.112a26.016,26.016,0,0,0,7.973-3.308l4.576,4.077,7.866-7.866-4.077-4.576a26.013,26.013,0,0,0,3.309-7.972Zm-50.47-5.562a18.765,18.765,0,0,1,25.556-17.526l-3.794-2.607-13.75,21.936,10.428.434-8.1,14.534A18.783,18.783,0,0,1,2138.345,1093.717Zm18.8,18.8a18.734,18.734,0,0,1-6.9-1.325l19.68-20.8-13.513-.152,11.553-11.874a18.787,18.787,0,0,1-10.818,34.154Z" transform="translate(-2125.469 -1062.042)" fill="#e3e5e9"/>
</svg>
