<svg xmlns="http://www.w3.org/2000/svg" width="54.736" height="64.799" viewBox="0 0 54.736 64.799">
  <g id="API" transform="matrix(0.875, -0.485, 0.485, 0.875, -5.986, 22.519)">
    <g id="Group_5" data-name="Group 5" transform="translate(0 17.25)">
      <g id="Group_4" data-name="Group 4" transform="translate(2.212 0)">
        <path id="Path_12" data-name="Path 12" d="M0,0,.153,3.56l.035.022L.175,3.59,5.119,8.118,12.254.331Z" fill="#e3e5e9"/>
        <path id="Path_13" data-name="Path 13" d="M7.1,0,0,7.75,4.747,12.1a.186.186,0,0,0,.029-.032c.068.08.2.231.2.231l3.559-.159Z" transform="translate(21.744 15.594)" fill="#e3e5e9"/>
      </g>
      <path id="Path_14" data-name="Path 14" d="M3.158,1.45,1.626,6.981,6.3,5.125.927,9.506,0,12.85,11.806,9.37,13.49,5.1,7.84,0Z" transform="translate(0 18.242)" fill="#e3e5e9"/>
    </g>
    <path id="Path_23" data-name="Path 23" d="M38.475.54,35.757,0,21.125,5.249l-1.471.833L8.978,17.73,1.3,26.11,0,27.527l.193,4.31L2.118,33.6l-.425.928L3.71,36.374c1.782-1.388,8.139-5.389,8.139-5.389L6.6,29.02l7.356-4.946,7.066,1.006-8.241,3.052,4.577,2.561S6.875,35.536,3.986,36.627l3.839,3.515.887-.5,1.981,1.813L15,41.266l1.3-1.417,7.642-8.337L34.655,19.82l.581-.965.022.021L39.6,2.891ZM27.309,19.706,20.7,20l-.288-6.611L30.854,9.351Z" transform="translate(6.844 0)" fill="#e3e5e9"/>
  </g>
</svg>
