<svg xmlns="http://www.w3.org/2000/svg" width="51.868" height="51.858" viewBox="0 0 51.868 51.858">
  <g id="Developed_in_house" data-name="Developed in house" transform="translate(0)">
    <g id="Group_3" data-name="Group 3" transform="translate(0)">
      <g id="Group_2" data-name="Group 2" transform="translate(0)">
        <path id="Path_9" data-name="Path 9" d="M2037.474,1356.327l1.168-2.6a12.637,12.637,0,0,1-2.9-1.794l-1.284,2.864-3.963-2.207-5.828,10.456,10.46,5.824,5.826-10.456-3.253-1.811C2037.626,1356.509,2037.561,1356.41,2037.474,1356.327Z" transform="translate(-2021.355 -1317.009)" fill="#e3e5e9"/>
        <path id="Path_10" data-name="Path 10" d="M2031.519,1326.2l2.16,2.485a12.753,12.753,0,0,1,2.515-2.25l-2.085-2.4,3.618-3.02-7.672-9.189-9.192,7.671,3.294,3.945a5.676,5.676,0,0,0,1.123,1.519c.106.1.235.152.348.242l2.908,3.481Z" transform="translate(-2020.864 -1311.831)" fill="#e3e5e9"/>
        <path id="Path_11" data-name="Path 11" d="M2076.894,1347.005l1.031-11.925L2066,1334.049l-.4,4.621c-.036.067-.094.123-.128.189l-4.308-.406a12.574,12.574,0,0,1-.077,3.381l4.064.384c.029.1.085.181.12.275l-.3,3.481Z" transform="translate(-2026.057 -1314.7)" fill="#e3e5e9"/>
      </g>
    </g>
    <g id="Group_11" data-name="Group 11" transform="translate(11.76 14.604)">
      <path id="Path_32" data-name="Path 32" d="M2046.2,1339.824c-.162,0-5.445-.98-5.445-.98l1.73-10.085L2041,1328.6l-6.637,9.115,4.576,10.3,3.178.336C2043.7,1345.074,2046.318,1339.824,2046.2,1339.824Z" transform="translate(-2034.367 -1328.6)" fill="#e3e5e9"/>
      <path id="Path_33" data-name="Path 33" d="M2053.523,1329.916l-3.183-.338-4.021,7.849,6.63.647s-5.358,6.762-8.483,10.519l7,.742,6.637-9.115Z" transform="translate(-2035.671 -1328.726)" fill="#e3e5e9"/>
    </g>
  </g>
</svg>
