<svg id="Trading_Tools" data-name="Trading Tools" xmlns="http://www.w3.org/2000/svg" width="44.735" height="35.648" viewBox="0 0 44.735 35.648">
  <g id="Group_9" data-name="Group 9" transform="translate(7.124 32.45)">
    <path id="Path_28" data-name="Path 28" d="M1537.423,1354.829h-13.361l-.477.643v1.911l.477.644h12.208Z" transform="translate(-1523.585 -1354.829)" fill="#e3e5e9"/>
    <path id="Path_29" data-name="Path 29" d="M1555.471,1354.829h-12.434l-2.436,3.2h14.87l.477-.644v-1.911Z" transform="translate(-1525.782 -1354.829)" fill="#e3e5e9"/>
  </g>
  <path id="Path_30" data-name="Path 30" d="M1560.141,1325.257l-.616-.855-13.439,7.354-.568-.224-7.355-13.964h-.777l-7.356,13.964-.568.224-13.439-7.354-.616.855,3.765,11.565,6.017,5.107-4.308.144,1.61,4.944.437.385h14.385l1.142-3.165-9.367.12,4.221-11.872,9.376.354-4.5,6.788,9.253.35-5.655,7.424h10.844l.436-.385,1.527-4.691-4.837.161,6.822-6.258Z" transform="translate(-1515.405 -1317.568)" fill="#e3e5e9"/>
</svg>
