<svg xmlns="http://www.w3.org/2000/svg" xmlns:xlink="http://www.w3.org/1999/xlink" width="46.377" height="48.609" viewBox="0 0 46.377 48.609">
  <defs>
    <linearGradient id="linear-gradient" x1="0.5" x2="0.5" y2="1" gradientUnits="objectBoundingBox">
      <stop offset="0" stop-color="#f16a46"/>
      <stop offset="0.498" stop-color="#ed337c"/>
      <stop offset="1" stop-color="#8e489b"/>
    </linearGradient>
  </defs>
  <g id="Group_18989" data-name="Group 18989" transform="translate(-4343.103 -2564.99)">
    <g id="Group_7" data-name="Group 7" transform="translate(4343.103 2573.358)">
      <g id="Group_6" data-name="Group 6">
        <path id="Path_15" data-name="Path 15" d="M1426.425,1070.584a2.467,2.467,0,0,0-1.256-.425,1.054,1.054,0,0,0-.946.308.9.9,0,0,0-.006.953l1.344,3.073,3.061.173-1.344-3.074A2.306,2.306,0,0,0,1426.425,1070.584Z" transform="translate(-1411.252 -1070.156)" fill="url(#linear-gradient)"/>
        <path id="Path_16" data-name="Path 16" d="M1431.255,1070.614a.991.991,0,0,0,0,1.062l1.382,3.16,3.271.184-1.383-3.16a2.61,2.61,0,0,0-2.275-1.578A1.131,1.131,0,0,0,1431.255,1070.614Z" transform="translate(-1412.694 -1070.181)" fill="url(#linear-gradient)"/>
        <path id="Path_17" data-name="Path 17" d="M1438.875,1086.751a10.177,10.177,0,0,1-1.7.635,14.808,14.808,0,0,1-2.744.466c-.265.012-.534.033-.807.042a28.291,28.291,0,0,1-12.366-2.813c-5.881-2.711-10.279-6.751-12.077-10.606a9.83,9.83,0,0,1-.631-1.712,7.587,7.587,0,0,1-.229-1.856c-.133.473-.259.948-.385,1.422a6.994,6.994,0,0,0,.07.713,8.511,8.511,0,0,0,.486,1.643c1.581,4.057,6.136,8.407,12.359,11.276a29.169,29.169,0,0,0,11.279,2.808c.625.019,1.243,0,1.832-.036a13.821,13.821,0,0,0,3.5-.687,8.977,8.977,0,0,0,1.558-.7,6.526,6.526,0,0,0,1.9-1.61,5.39,5.39,0,0,0,.686-1.1c.067-.145.125-.294.184-.442a5.65,5.65,0,0,1-.8,1.051A7.021,7.021,0,0,1,1438.875,1086.751Z" transform="translate(-1407.934 -1070.31)" fill="url(#linear-gradient)"/>
      </g>
    </g>
    <path id="Path_18" data-name="Path 18" d="M1457.646,1096.847a10.321,10.321,0,0,1-.463,1.757,14.641,14.641,0,0,1-1.2,2.51c-.142.223-.279.455-.43.684a28.278,28.278,0,0,1-9.424,8.485c-5.605,3.242-11.441,4.509-15.63,3.756a9.852,9.852,0,0,1-1.762-.47,7.692,7.692,0,0,1-1.65-.881c.31.38.626.757.941,1.134.206.118.4.249.623.352a8.437,8.437,0,0,0,1.625.55c4.226,1.047,10.406-.17,16.339-3.6a29.211,29.211,0,0,0,8.794-7.6c.374-.5.718-1.014,1.025-1.518a13.784,13.784,0,0,0,1.455-3.255,9.046,9.046,0,0,0,.324-1.676,6.5,6.5,0,0,0-.22-2.484,5.372,5.372,0,0,0-.508-1.2c-.079-.139-.168-.271-.257-.405a5.582,5.582,0,0,1,.4,1.257A7.029,7.029,0,0,1,1457.646,1096.847Z" transform="translate(2931.234 1498.511)" fill="url(#linear-gradient)"/>
    <path id="Path_21" data-name="Path 21" d="M1431,1062.451a31.667,31.667,0,0,0-7.364-2.391,21.4,21.4,0,0,0-6.587-.3,13.123,13.123,0,0,0-2.48.541l4.588,3.63-7.867-1.64a5.875,5.875,0,0,0-1.508,4.649,9.272,9.272,0,0,0,.849,2.878,14.253,14.253,0,0,0,1.1,1.928,27.055,27.055,0,0,0,10.98,8.67,28.228,28.228,0,0,0,12.522,2.811c.223-.011.436-.026.651-.041.181-.011.366-.03.55-.047a15.235,15.235,0,0,0,2.19-.411,9.731,9.731,0,0,0,2.742-1.223,6.949,6.949,0,0,0,1.078-.922,4.862,4.862,0,0,0,.333-.385,5.449,5.449,0,0,0,.685-1.1C1445.755,1074.127,1440.172,1066.681,1431,1062.451Zm4.189,12.98-.022,0,.922,2.107-2.574-.145-.922-2.107-8.906-.5.922,2.107-2.574-.145-.922-2.107-.039-.087-.888-.05-1.034-2.366.888.05-.6-1.361-.889-.05-1.034-2.366.9.05a2.173,2.173,0,0,1,.016-2.268,2.446,2.446,0,0,1,2.162-.729,5.515,5.515,0,0,1,2.4.691,4.828,4.828,0,0,1,1.7,1.476,1.361,1.361,0,0,1,.474-1.506,2.838,2.838,0,0,1,2.019-.509,6.315,6.315,0,0,1,3.109,1.034,5.643,5.643,0,0,1,2.156,2.529l.031.073,1.016.057,1.036,2.364-1.016-.056.595,1.361,1.016.058,1.034,2.366-1.016-.058Z" transform="translate(2934.798 1505.366)" fill="url(#linear-gradient)"/>
    <path id="Path_24" data-name="Path 24" d="M1455.352,1090.447c-.031-.156-.078-.327-.125-.483a5.414,5.414,0,0,0-.5-1.2c-2.742-4.735-12.042-4.47-20.8.592a31.474,31.474,0,0,0-6.185,4.641,21.164,21.164,0,0,0-4.051,5.2,10.39,10.39,0,0,0-1.4,5.015,5.925,5.925,0,0,0,3.085,5.062,9.047,9.047,0,0,0,2.851.966,13.824,13.824,0,0,0,2.2.218,27,27,0,0,0,13.413-3.987,28.129,28.129,0,0,0,9.519-8.613c.125-.187.234-.358.343-.545.094-.156.187-.311.28-.483a13.628,13.628,0,0,0,.919-2.025,9.892,9.892,0,0,0,.592-2.943A7.069,7.069,0,0,0,1455.352,1090.447Zm-8.609,6.147-19.466,10.4s11.275-8.189,11.717-8.264-7.832.59-7.832.59l9.743-8.114,7.617-1.138-10.9,7.021Z" transform="translate(2932.219 1500.075)" fill="url(#linear-gradient)"/>
  </g>
</svg>
