<svg xmlns="http://www.w3.org/2000/svg" width="28.366" height="28.366" viewBox="0 0 28.366 28.366">
  <g id="Layer_2" transform="translate(0 0)">
    <path id="Path_70" data-name="Path 70" d="M34.366,21.062A14.183,14.183,0,1,1,20.183,6.879,14.183,14.183,0,0,1,34.366,21.062Zm0,0" transform="translate(-6 -6.879)" fill="#fff"/>
    <path id="Path_71" data-name="Path 71" d="M142.45,122.962v5.848h-3.39v-5.455c0-1.37-.489-2.306-1.717-2.306a1.855,1.855,0,0,0-1.738,1.241,2.3,2.3,0,0,0-.112.826v5.695H132.1s.046-9.24,0-10.2h3.391v1.445c-.006.011-.016.022-.022.033h.022v-.033a3.366,3.366,0,0,1,3.055-1.685C140.778,118.373,142.45,119.831,142.45,122.962ZM128.555,113.7a1.766,1.766,0,1,0-.044,3.523h.021a1.767,1.767,0,1,0,.023-3.523Zm-1.717,15.111h3.389v-10.2h-3.389Zm0,0" transform="translate(-119.793 -107.638)" fill="#292929"/>
  </g>
</svg>
