<svg id="Group_162" data-name="Group 162" xmlns="http://www.w3.org/2000/svg" width="29" height="29" viewBox="0 0 29 29">
  <path id="Path_18063" data-name="Path 18063" d="M14.5,0A14.5,14.5,0,1,1,0,14.5,14.5,14.5,0,0,1,14.5,0Z" fill="#fff"/>
  <path id="Path_68" data-name="Path 68" d="M333.9,92.677H330.84c-1.817,0-3.838.764-3.838,3.4.009.918,0,1.8,0,2.786h-2.1v3.345h2.167v9.629h3.982v-9.693h2.628l.238-3.291H330.98s.007-1.464,0-1.889c0-1.041,1.083-.981,1.148-.981.515,0,1.517,0,1.775,0v-3.3h0Z" transform="translate(-314.88 -88.918)" fill="#292929"/>
</svg>
