<svg id="Group_178" data-name="Group 178" xmlns="http://www.w3.org/2000/svg" width="29" height="29" viewBox="0 0 29 29">
  <path id="Path_74" data-name="Path 74" d="M14.5,29A14.5,14.5,0,1,0,0,14.5,14.5,14.5,0,0,0,14.5,29Z" transform="translate(0 0)" fill="#fff" fill-rule="evenodd"/>
  <path id="Path_75" data-name="Path 75" d="M10.315,14.258a.792.792,0,0,0-.246-.657L8.246,11.338V11h5.661l4.375,9.888L22.129,11h5.4v.338l-1.559,1.54a.477.477,0,0,0-.173.451V24.644a.477.477,0,0,0,.173.451l1.522,1.54v.338H19.832v-.338l1.577-1.578c.155-.16.155-.207.155-.451V15.46L17.179,26.935h-.593l-5.1-11.475v7.69a1.082,1.082,0,0,0,.283.883L13.816,26.6v.338H8V26.6l2.051-2.563a1.044,1.044,0,0,0,.264-.883Z" transform="translate(-3.263 -4.486)" fill="#292929"/>
</svg>
