<svg id="Group_164" data-name="Group 164" xmlns="http://www.w3.org/2000/svg" width="29" height="29" viewBox="0 0 29 29">
  <circle id="Ellipse_2" data-name="Ellipse 2" cx="14.5" cy="14.5" r="14.5" transform="translate(0 0)" fill="#fff"/>
  <g id="Group_163" data-name="Group 163" transform="translate(6.74 9.015)">
    <path id="Path_69" data-name="Path 69" d="M41.527,35.608a6.723,6.723,0,0,1-1.935.53,3.379,3.379,0,0,0,1.482-1.864,6.745,6.745,0,0,1-2.14.817,3.372,3.372,0,0,0-5.742,3.074,9.565,9.565,0,0,1-6.945-3.521,3.373,3.373,0,0,0,1.043,4.5,3.346,3.346,0,0,1-1.526-.422c0,.014,0,.029,0,.043a3.371,3.371,0,0,0,2.7,3.3,3.383,3.383,0,0,1-1.522.058,3.373,3.373,0,0,0,3.148,2.34,6.8,6.8,0,0,1-4.989,1.4,9.582,9.582,0,0,0,14.752-8.073c0-.146,0-.291-.01-.436a6.833,6.833,0,0,0,1.682-1.744Z" transform="translate(-25.103 -34.028)" fill="#292929"/>
  </g>
</svg>
