<svg xmlns="http://www.w3.org/2000/svg" width="58.388" height="58.472" viewBox="0 0 58.388 58.472">
  <path id="Path_27" data-name="Path 27" d="M41.425,0,26.87,1.568,17.838,14.679l5.217-.56,5.429-7.882,9.479-1.02,2.427,9.215L33.342,24.664l-4.584.5,1.167-1.7L27.5,14.25l-1.964.211-.154-.587-7.517.806-7.038.755L0,31.154,3.735,45.3l14.55-1.562,9.03-13.111v0l7.016-.758.993-1.442,9.828-14.272ZM19.8,31.433,21.08,31.3l-4.706,6.833-8.454.908-2.17-8.219,6.287-9.135,4.09-.437-1.04,1.512,2.167,8.223,2.358-.254-.439-1.664-.2.161.172-.268L16.071,17.281l3.075,11.672,3.359-5.248-4.342-.433,4.365-5.646,4.137.264-3.521,4.087,3.9.781-7.868,6.3Z" transform="translate(0 16.181) rotate(-21)" fill="#e3e5e9"/>
</svg>
