<svg id="Social_Media" data-name="Social Media" xmlns="http://www.w3.org/2000/svg" xmlns:xlink="http://www.w3.org/1999/xlink" width="467" height="50.571" viewBox="0 0 467 50.571">
  <defs>
    <linearGradient id="linear-gradient" x1="0.383" y1="0.602" x2="0.896" y2="0.5" gradientUnits="objectBoundingBox">
      <stop offset="0" stop-color="#f16a46"/>
      <stop offset="0.498" stop-color="#ed337c"/>
      <stop offset="1" stop-color="#8e489b"/>
    </linearGradient>
  </defs>
  <g id="Group_179" data-name="Group 179" transform="translate(82.119 -837.429)">
    <g id="Group_162" data-name="Group 162" transform="translate(209.086 837.706)">
      <circle id="Ellipse_1" data-name="Ellipse 1" cx="14" cy="14" r="14" transform="translate(-0.204 0.483)" fill="#2b2b2b"/>
      <path id="Path_68" data-name="Path 68" d="M333.9,92.677H330.84c-1.817,0-3.838.764-3.838,3.4.009.918,0,1.8,0,2.786h-2.1v3.345h2.167v9.629h3.982v-9.693h2.628l.238-3.291H330.98s.007-1.464,0-1.889c0-1.041,1.083-.981,1.148-.981.515,0,1.517,0,1.775,0v-3.3h0Z" transform="translate(-315.586 -88.434)" fill="#fff"/>
    </g>
    <g id="Group_164" data-name="Group 164" transform="translate(253.504 837.792)">
      <circle id="Ellipse_2" data-name="Ellipse 2" cx="14.097" cy="14.097" r="14.097" transform="translate(0 0)" fill="#2b2b2b"/>
      <g id="Group_163" data-name="Group 163" transform="translate(6.308 8.551)">
        <path id="Path_69" data-name="Path 69" d="M41.527,35.608a6.723,6.723,0,0,1-1.935.53,3.379,3.379,0,0,0,1.482-1.864,6.745,6.745,0,0,1-2.14.817,3.372,3.372,0,0,0-5.742,3.074,9.565,9.565,0,0,1-6.945-3.521,3.373,3.373,0,0,0,1.043,4.5,3.346,3.346,0,0,1-1.526-.422c0,.014,0,.029,0,.043a3.371,3.371,0,0,0,2.7,3.3,3.383,3.383,0,0,1-1.522.058,3.373,3.373,0,0,0,3.148,2.34,6.8,6.8,0,0,1-4.989,1.4,9.582,9.582,0,0,0,14.752-8.073c0-.146,0-.291-.01-.436a6.833,6.833,0,0,0,1.682-1.744Z" transform="translate(-25.103 -34.028)" fill="#f1f2f2"/>
      </g>
    </g>
    <g id="Layer_2" transform="translate(298.264 837.619)">
      <path id="Path_70" data-name="Path 70" d="M34.366,21.062A14.183,14.183,0,1,1,20.183,6.879,14.183,14.183,0,0,1,34.366,21.062Zm0,0" transform="translate(-6 -6.879)" fill="#2b2b2b"/>
      <path id="Path_71" data-name="Path 71" d="M142.45,122.962v5.848h-3.39v-5.455c0-1.37-.489-2.306-1.717-2.306a1.855,1.855,0,0,0-1.738,1.241,2.3,2.3,0,0,0-.112.826v5.695H132.1s.046-9.24,0-10.2h3.391v1.445c-.006.011-.016.022-.022.033h.022v-.033a3.366,3.366,0,0,1,3.055-1.685C140.778,118.373,142.45,119.831,142.45,122.962ZM128.555,113.7a1.766,1.766,0,1,0-.044,3.523h.021a1.767,1.767,0,1,0,.023-3.523Zm-1.717,15.111h3.389v-10.2h-3.389Zm0,0" transform="translate(-119.793 -107.638)" fill="#f2f2f2"/>
    </g>
    <g id="Group_178" data-name="Group 178" transform="translate(343.147 837.429)">
      <path id="Path_74" data-name="Path 74" d="M14.212,28.424A14.212,14.212,0,1,0,0,14.212,14.212,14.212,0,0,0,14.212,28.424Z" fill="#2b2b2b" fill-rule="evenodd"/>
      <path id="Path_75" data-name="Path 75" d="M10.247,14.141a.761.761,0,0,0-.239-.634L8.239,11.326V11h5.494l4.246,9.531L21.712,11h5.237v.326L25.436,12.81a.458.458,0,0,0-.168.434V24.152a.458.458,0,0,0,.168.434l1.477,1.484V26.4H19.483V26.07l1.53-1.521c.15-.154.15-.2.15-.434V15.3L16.908,26.36h-.575L11.379,15.3v7.413a1.038,1.038,0,0,0,.274.851l1.99,2.471v.326H8v-.326l1.99-2.471a1,1,0,0,0,.257-.851Z" transform="translate(-3.263 -4.486)" fill="#fff"/>
    </g>
  </g>
  <rect id="Rectangle_139" data-name="Rectangle 139" width="467" height="3" transform="translate(0 47.571)" fill="url(#linear-gradient)"/>
</svg>
