<svg xmlns="http://www.w3.org/2000/svg" xmlns:xlink="http://www.w3.org/1999/xlink" width="1309.397" height="888.817" viewBox="0 0 1309.397 888.817">
  <defs>
    <linearGradient id="linear-gradient" y1="0.5" x2="1" y2="0.5" gradientUnits="objectBoundingBox">
      <stop offset="0" stop-color="#ffc180"/>
      <stop offset="0.166" stop-color="#ffa87e"/>
      <stop offset="0.517" stop-color="#ff6b7a"/>
      <stop offset="1" stop-color="#ff0d75"/>
    </linearGradient>
    <linearGradient id="linear-gradient-2" y1="0.5" x2="1" y2="0.5" gradientUnits="objectBoundingBox">
      <stop offset="0" stop-color="#ffbe81"/>
      <stop offset="0.175" stop-color="#ffa47f"/>
      <stop offset="0.549" stop-color="#ff637a"/>
      <stop offset="1" stop-color="#ff0d75"/>
    </linearGradient>
    <linearGradient id="linear-gradient-3" y1="0.5" x2="1" y2="0.5" gradientUnits="objectBoundingBox">
      <stop offset="0" stop-color="#ffbb81"/>
      <stop offset="0.185" stop-color="#ff9f7f"/>
      <stop offset="0.583" stop-color="#ff5a7a"/>
      <stop offset="1" stop-color="#ff0c75"/>
    </linearGradient>
    <linearGradient id="linear-gradient-4" y1="0.5" x2="1" y2="0.5" gradientUnits="objectBoundingBox">
      <stop offset="0" stop-color="#ffb882"/>
      <stop offset="0.197" stop-color="#ff9b7f"/>
      <stop offset="0.62" stop-color="#ff527a"/>
      <stop offset="1" stop-color="#ff0c75"/>
    </linearGradient>
    <linearGradient id="linear-gradient-5" y1="0.5" x2="1" y2="0.5" gradientUnits="objectBoundingBox">
      <stop offset="0" stop-color="#fcb583"/>
      <stop offset="0.211" stop-color="#fc9680"/>
      <stop offset="0.668" stop-color="#fd4879"/>
      <stop offset="1" stop-color="#ff0c74"/>
    </linearGradient>
    <linearGradient id="linear-gradient-6" y1="0.5" x2="1" y2="0.5" gradientUnits="objectBoundingBox">
      <stop offset="0" stop-color="#f6b284"/>
      <stop offset="0.227" stop-color="#f79080"/>
      <stop offset="0.723" stop-color="#fc3d78"/>
      <stop offset="1" stop-color="#ff0c74"/>
    </linearGradient>
    <linearGradient id="linear-gradient-7" y1="0.5" x2="1" y2="0.5" gradientUnits="objectBoundingBox">
      <stop offset="0" stop-color="#f1b084"/>
      <stop offset="0.243" stop-color="#f48c80"/>
      <stop offset="0.779" stop-color="#fb3177"/>
      <stop offset="1" stop-color="#ff0b74"/>
    </linearGradient>
    <linearGradient id="linear-gradient-8" y1="0.5" x2="1" y2="0.5" gradientUnits="objectBoundingBox">
      <stop offset="0" stop-color="#ecad85"/>
      <stop offset="0.265" stop-color="#f08680"/>
      <stop offset="0.855" stop-color="#fc2476"/>
      <stop offset="1" stop-color="#ff0b74"/>
    </linearGradient>
    <linearGradient id="linear-gradient-9" y1="0.5" x2="1" y2="0.5" gradientUnits="objectBoundingBox">
      <stop offset="0" stop-color="#e6aa85"/>
      <stop offset="0.291" stop-color="#ec7f80"/>
      <stop offset="0.947" stop-color="#fd1474"/>
      <stop offset="1" stop-color="#ff0b74"/>
    </linearGradient>
    <linearGradient id="linear-gradient-10" y1="0.5" x2="1" y2="0.5" gradientUnits="objectBoundingBox">
      <stop offset="0" stop-color="#e1a787"/>
      <stop offset="0.322" stop-color="#ea7781"/>
      <stop offset="1" stop-color="#ff0a74"/>
    </linearGradient>
    <linearGradient id="linear-gradient-11" y1="0.5" x2="1" y2="0.5" gradientUnits="objectBoundingBox">
      <stop offset="0" stop-color="#dba387"/>
      <stop offset="0.365" stop-color="#e76e80"/>
      <stop offset="1" stop-color="#ff0a73"/>
    </linearGradient>
    <linearGradient id="linear-gradient-12" y1="0.5" x2="1" y2="0.5" gradientUnits="objectBoundingBox">
      <stop offset="0" stop-color="#d6a088"/>
      <stop offset="0.417" stop-color="#e6647f"/>
      <stop offset="1" stop-color="#ff0a73"/>
    </linearGradient>
    <linearGradient id="linear-gradient-13" y1="0.5" x2="1" y2="0.5" gradientUnits="objectBoundingBox">
      <stop offset="0" stop-color="#d19d88"/>
      <stop offset="0.479" stop-color="#e6577e"/>
      <stop offset="1" stop-color="#ff0873"/>
    </linearGradient>
    <linearGradient id="linear-gradient-14" y1="0.5" x2="1" y2="0.5" gradientUnits="objectBoundingBox">
      <stop offset="0" stop-color="#cc9a89"/>
      <stop offset="0.566" stop-color="#e8487c"/>
      <stop offset="1" stop-color="#ff0873"/>
    </linearGradient>
    <linearGradient id="linear-gradient-15" y1="0.5" x2="1" y2="0.5" gradientUnits="objectBoundingBox">
      <stop offset="0" stop-color="#c6978b"/>
      <stop offset="0.701" stop-color="#ed337a"/>
      <stop offset="1" stop-color="#ff0873"/>
    </linearGradient>
    <linearGradient id="linear-gradient-16" y1="0.5" x2="1" y2="0.5" gradientUnits="objectBoundingBox">
      <stop offset="0" stop-color="#c1948b"/>
      <stop offset="0.914" stop-color="#f91475"/>
      <stop offset="1" stop-color="#ff0873"/>
    </linearGradient>
    <linearGradient id="linear-gradient-17" y1="0.5" x2="1" y2="0.5" gradientUnits="objectBoundingBox">
      <stop offset="0" stop-color="#bb918c"/>
      <stop offset="1" stop-color="#ff0772"/>
    </linearGradient>
    <linearGradient id="linear-gradient-18" y1="0.5" x2="1" y2="0.5" gradientUnits="objectBoundingBox">
      <stop offset="0" stop-color="#b68e8c"/>
      <stop offset="1" stop-color="#ff0772"/>
    </linearGradient>
    <linearGradient id="linear-gradient-19" y1="0.5" x2="1" y2="0.5" gradientUnits="objectBoundingBox">
      <stop offset="0" stop-color="#b08b8d"/>
      <stop offset="1" stop-color="#ff0772"/>
    </linearGradient>
    <linearGradient id="linear-gradient-20" y1="0.5" x2="1" y2="0.5" gradientUnits="objectBoundingBox">
      <stop offset="0" stop-color="#ac878e"/>
      <stop offset="1" stop-color="#ff0672"/>
    </linearGradient>
    <linearGradient id="linear-gradient-21" y1="0.5" x2="1" y2="0.5" gradientUnits="objectBoundingBox">
      <stop offset="0" stop-color="#a6848f"/>
      <stop offset="1" stop-color="#ff0672"/>
    </linearGradient>
    <linearGradient id="linear-gradient-22" y1="0.5" x2="1" y2="0.5" gradientUnits="objectBoundingBox">
      <stop offset="0" stop-color="#a1818f"/>
      <stop offset="1" stop-color="#ff0672"/>
    </linearGradient>
    <linearGradient id="linear-gradient-23" y1="0.5" x2="1" y2="0.5" gradientUnits="objectBoundingBox">
      <stop offset="0" stop-color="#9b7f90"/>
      <stop offset="1" stop-color="#ff0571"/>
    </linearGradient>
    <linearGradient id="linear-gradient-24" y1="0.5" x2="1" y2="0.5" gradientUnits="objectBoundingBox">
      <stop offset="0" stop-color="#957c90"/>
      <stop offset="0.161" stop-color="#a6688a"/>
      <stop offset="1" stop-color="#ff0571"/>
    </linearGradient>
    <linearGradient id="linear-gradient-25" y1="0.5" x2="1" y2="0.5" gradientUnits="objectBoundingBox">
      <stop offset="0" stop-color="#8f7991"/>
      <stop offset="0.292" stop-color="#b05687"/>
      <stop offset="1" stop-color="#ff0571"/>
    </linearGradient>
    <linearGradient id="linear-gradient-26" y1="0.5" x2="1" y2="0.5" gradientUnits="objectBoundingBox">
      <stop offset="0" stop-color="#8a7692"/>
      <stop offset="0.401" stop-color="#ba4784"/>
      <stop offset="1" stop-color="#ff0571"/>
    </linearGradient>
    <linearGradient id="linear-gradient-27" y1="0.5" x2="1" y2="0.5" gradientUnits="objectBoundingBox">
      <stop offset="0" stop-color="#857393"/>
      <stop offset="0.497" stop-color="#c33a81"/>
      <stop offset="1" stop-color="#ff0571"/>
    </linearGradient>
    <linearGradient id="linear-gradient-28" y1="0.5" x2="1" y2="0.5" gradientUnits="objectBoundingBox">
      <stop offset="0" stop-color="#807094"/>
      <stop offset="0.565" stop-color="#ca317f"/>
      <stop offset="1" stop-color="#ff0571"/>
    </linearGradient>
    <linearGradient id="linear-gradient-29" y1="0.5" x2="1" y2="0.5" gradientUnits="objectBoundingBox">
      <stop offset="0" stop-color="#7b6c94"/>
      <stop offset="0.621" stop-color="#cf297c"/>
      <stop offset="1" stop-color="#ff0570"/>
    </linearGradient>
    <linearGradient id="linear-gradient-30" y1="0.5" x2="1" y2="0.5" gradientUnits="objectBoundingBox">
      <stop offset="0" stop-color="#756995"/>
      <stop offset="0.667" stop-color="#d4237b"/>
      <stop offset="1" stop-color="#ff0470"/>
    </linearGradient>
    <linearGradient id="linear-gradient-31" y1="0.5" x2="1" y2="0.5" gradientUnits="objectBoundingBox">
      <stop offset="0" stop-color="#6f6695"/>
      <stop offset="0.045" stop-color="#766193"/>
      <stop offset="0.704" stop-color="#d81e7a"/>
      <stop offset="1" stop-color="#ff0470"/>
    </linearGradient>
    <linearGradient id="linear-gradient-32" y1="0.5" x2="1" y2="0.5" gradientUnits="objectBoundingBox">
      <stop offset="0" stop-color="#696396"/>
      <stop offset="0.149" stop-color="#80538f"/>
      <stop offset="0.735" stop-color="#db1a79"/>
      <stop offset="1" stop-color="#ff0470"/>
    </linearGradient>
    <linearGradient id="linear-gradient-33" y1="0.5" x2="1" y2="0.5" gradientUnits="objectBoundingBox">
      <stop offset="0" stop-color="#636096"/>
      <stop offset="0.234" stop-color="#8a488c"/>
      <stop offset="0.76" stop-color="#dd1678"/>
      <stop offset="1" stop-color="#ff0370"/>
    </linearGradient>
    <linearGradient id="linear-gradient-34" y1="0.5" x2="1" y2="0.5" gradientUnits="objectBoundingBox">
      <stop offset="0" stop-color="#5d5d97"/>
      <stop offset="0.306" stop-color="#923f8a"/>
      <stop offset="0.781" stop-color="#e01477"/>
      <stop offset="1" stop-color="#ff0370"/>
    </linearGradient>
    <linearGradient id="linear-gradient-35" y1="0.5" x2="1" y2="0.5" gradientUnits="objectBoundingBox">
      <stop offset="0" stop-color="#585a97"/>
      <stop offset="0.363" stop-color="#993887"/>
      <stop offset="0.798" stop-color="#e21175"/>
      <stop offset="1" stop-color="#ff036f"/>
    </linearGradient>
    <linearGradient id="linear-gradient-36" y1="0.5" x2="1" y2="0.5" gradientUnits="objectBoundingBox">
      <stop offset="0" stop-color="#525698"/>
      <stop offset="0.411" stop-color="#9e3185"/>
      <stop offset="0.813" stop-color="#e30f75"/>
      <stop offset="1" stop-color="#ff036f"/>
    </linearGradient>
    <linearGradient id="linear-gradient-37" y1="0.5" x2="1" y2="0.5" gradientUnits="objectBoundingBox">
      <stop offset="0" stop-color="#4c5399"/>
      <stop offset="0.456" stop-color="#a42b84"/>
      <stop offset="0.827" stop-color="#e50e74"/>
      <stop offset="1" stop-color="#ff036f"/>
    </linearGradient>
    <linearGradient id="linear-gradient-38" y1="0.5" x2="1" y2="0.5" gradientUnits="objectBoundingBox">
      <stop offset="0" stop-color="#45509a"/>
      <stop offset="0.008" stop-color="#464f99"/>
      <stop offset="0.498" stop-color="#a92682"/>
      <stop offset="0.839" stop-color="#e60c74"/>
      <stop offset="1" stop-color="#ff036f"/>
    </linearGradient>
  </defs>
  <g id="Vector_Smart_Object" data-name="Vector Smart Object" transform="translate(-99.04 -89.891)" opacity="0.12">
    <g id="Group_40" data-name="Group 40" transform="translate(99.04 89.891)">
      <g id="Group_2" data-name="Group 2" transform="translate(5.493)">
        <path id="Path_18" data-name="Path 18" d="M125.855,89.891c41,13.079,72.715,45.785,91.732,94.6,16.28,41.807,23.044,95.055,19.017,149.958-4.772,65.148-22.786,127.6-40.184,188.015L119.707,788.6c-8.2,28.411-16.667,57.79-17.541,88.454-.974,33.744,8.67,64.268,25.781,81.677,35.025,35.593,89.1,12.674,124.507-23.676,57.8-59.339,92.792-146.807,123.676-223.978,31-77.47,66.137-165.272,123.89-224.893C552.1,432.423,639.072,397.8,706.986,448.829c38.708,29.1,62.268,79.195,85.054,127.638q4.471,9.505,8.942,18.888c23.8,49.657,57.739,108.451,109.431,122.357,33.2,8.942,71.11-1.655,115.865-32.407,10.6-7.288,21.181-15.244,31.4-22.954,24.076-18.131,48.969-36.9,76.126-48.2,57.424-23.9,123.8-11.988,173.246,31.122s80.5,116.143,81.07,190.62l-1.791.018c-.559-73.773-31.342-146.138-80.31-188.843s-114.747-54.516-171.641-30.84c-26.971,11.231-51.777,29.925-75.767,47.985-10.232,7.71-20.823,15.7-31.456,23.007-45.157,31.016-83.463,41.7-117.126,32.636-52.365-14.1-86.6-73.351-110.577-123.4-3-6.249-5.962-12.568-8.957-18.905-22.672-48.214-46.117-98.065-84.438-126.846-67.154-50.467-153.283-16.124-204.889,37.142-57.467,59.321-92.52,146.913-123.432,224.207C346.78,789.408,311.7,877.1,253.6,936.725c-23.245,23.869-54.443,41.983-83.277,41.983a59.212,59.212,0,0,1-43.509-18.289c-17.541-17.832-27.429-49.024-26.44-83.437.9-31,9.415-60.554,17.641-89.123l76.713-266.136c17.369-60.272,35.34-122.6,40.1-187.469C241.677,240.8,217.128,121.277,125.411,92" transform="translate(-100.307 -89.891)" fill="url(#linear-gradient)"/>
      </g>
      <g id="Group_3" data-name="Group 3" transform="translate(11.713 20.472)">
        <path id="Path_19" data-name="Path 19" d="M118.547,94.613c3.1.933,6.177,2.007,9.172,3.151,37.074,14.417,65.85,46.225,83.219,92.01,14.918,39.325,21.3,88.947,17.985,139.766-3.683,56.54-17.856,110.933-32.058,161.8q-2.515,9.03-5.059,18.06l-.315,1.127c-25.251,89.651-48.037,171.521-69.662,250.276l-2.006,7.34c-7.681,27.935-15.621,56.839-16.251,86.9-.717,33.234,8.842,63.388,25.566,80.638,23.689,24.609,60.419,24.45,98.252-.4A157.767,157.767,0,0,0,251.509,915.8c54.228-53.372,88.579-130.049,124.736-217.412l.172-.422c33.19-80.339,67.513-163.424,123.833-221.742a226.83,226.83,0,0,1,37.518-31.4c58.3-38.849,120.852-41.93,167.356-8.256,28.934,20.947,48.754,53.248,62.783,79.054,8.068,14.839,15.707,30.488,23.087,45.644,2.852,5.844,5.7,11.688,8.57,17.479,24.119,48.707,58.341,106.444,109.2,120.667,17.684,4.946,37.146,4.33,57.839-1.813,17.613-5.246,36.185-14.346,56.779-27.865,10.519-6.9,21.023-14.47,31.184-21.81,23.832-17.18,48.481-34.959,75.337-45.556a161.362,161.362,0,0,1,87.5-8.52,178.624,178.624,0,0,1,84.423,40.134c49.4,41.947,80.8,112.253,81.93,183.509l-1.777.035c-1.132-70.552-32.23-140.189-81.156-181.731a177.272,177.272,0,0,0-83.678-39.782,160.089,160.089,0,0,0-86.687,8.432c-26.684,10.544-51.247,28.252-74.993,45.38-10.175,7.34-20.694,14.927-31.256,21.845-20.708,13.607-39.424,22.778-57.194,28.059-20.952,6.231-40.685,6.83-58.656,1.813-51.52-14.4-86.014-72.576-110.319-121.653q-4.3-8.687-8.584-17.5c-7.366-15.121-14.99-30.752-23.044-45.556-13.915-25.612-33.577-57.649-62.21-78.368-45.93-33.287-107.84-30.189-165.593,8.291A226.045,226.045,0,0,0,501.4,477.9c-56.034,58.036-90.27,140.91-123.389,221.056l-.172.422c-36.257,87.609-70.709,164.5-125.209,218.134a160.337,160.337,0,0,1-24.391,19.715c-19.289,12.674-38.321,19.011-55.561,19.011a60.344,60.344,0,0,1-44.684-18.87C110.851,919.69,101.049,888.885,101.78,855c.645-30.4,8.627-59.462,16.351-87.556l2.006-7.34c21.625-78.755,44.411-160.625,69.662-250.294l.315-1.127q2.537-9,5.073-18.06c14.159-50.731,28.289-104.965,31.958-161.259,5.861-89.88-17.312-197.38-99.958-229.5-2.967-1.144-6.019-2.183-9.071-3.116" transform="translate(-101.742 -94.613)" fill="url(#linear-gradient-2)"/>
      </g>
      <g id="Group_4" data-name="Group 4" transform="translate(17.926 40.962)">
        <path id="Path_20" data-name="Path 20" d="M111.231,99.339c3.053.863,6.091,1.848,9.028,2.94,36.415,13.537,64.833,43.937,82.216,87.943,14.875,37.705,21.539,85.426,18.773,134.4-3.067,54.34-16.323,106.62-29.636,155.521q-2.279,8.37-4.572,16.7l-.473,1.743c-23.5,85.62-44.684,164.744-64.761,241.9l-1.877,7.182c-7.18,27.584-14.56,55.942-14.961,85.374-.444,32.618,9.028,62.384,25.38,79.617,33.506,35.346,78.548,13.325,96.361,2.218a150.66,150.66,0,0,0,23.861-18.359c54.959-51.7,90.858-129.24,125.8-210.846l1.949-4.559c33.09-77.611,67.312-157.862,122.171-214.877A230.953,230.953,0,0,1,537.631,434.9c57.524-38.814,119.448-42.792,165.622-10.614,22.5,15.649,41.875,39.184,62.87,76.308,8.355,14.769,16.266,30.4,23.9,45.521,2.709,5.351,5.4,10.7,8.126,15.983C822.6,609.872,857.1,666.57,907.124,681.075c17.5,5.07,36.73,4.788,57.18-.862,17.383-4.77,35.77-13.29,56.177-26.052,10.461-6.531,20.894-13.73,31-20.683,23.589-16.23,47.98-33.023,74.549-42.933a164.087,164.087,0,0,1,86.688-7.252,183.6,183.6,0,0,1,83.922,39.4c49.355,40.75,81.084,108.345,82.789,176.362l-1.791.07c-1.691-67.331-33.1-134.239-82-174.62a182.129,182.129,0,0,0-83.176-39.043,162.64,162.64,0,0,0-85.914,7.182c-26.383,9.84-50.688,26.58-74.191,42.757-10.118,6.953-20.565,14.153-31.055,20.719-20.551,12.85-39.066,21.423-56.607,26.246-20.708,5.721-40.212,6-57.983.845-50.66-14.7-85.441-71.819-110.076-119.928-2.708-5.3-5.417-10.65-8.125-16-7.638-15.1-15.52-30.717-23.861-45.433C743.824,465,724.621,441.677,702.379,426.2c-45.644-31.808-106.908-27.83-163.888,10.632a230.026,230.026,0,0,0-36.859,31.069c-54.586,56.751-88.722,136.809-121.726,214.226l-1.949,4.559c-35.039,81.835-71.067,159.587-126.3,211.568a154.227,154.227,0,0,1-24.148,18.571c-18.487,11.53-36.4,17.286-52.709,17.286-17.484,0-33.119-6.6-45.63-19.8-16.738-17.656-26.455-48.056-25.982-81.307.4-29.749,7.825-58.265,15-85.849l1.906-7.34c20.092-77.153,41.273-156.3,64.776-241.932l.473-1.743q2.3-8.343,4.572-16.687c13.285-48.76,26.5-100.9,29.536-154.992,4.915-86.658-18.7-189.987-99.714-220.088-2.895-1.056-5.89-2.042-8.914-2.9" transform="translate(-103.174 -99.339)" fill="url(#linear-gradient-3)"/>
      </g>
      <g id="Group_5" data-name="Group 5" transform="translate(23.073 61.434)">
        <path id="Path_21" data-name="Path 21" d="M104.734,104.06c3,.81,5.99,1.725,8.885,2.728,80.367,28.464,104.759,128.641,100.775,212.923-2.451,52.157-14.789,102.325-27.214,149.236-1.275,4.788-2.537,9.541-3.812,14.311l-.9,3.38c-21.7,81.4-41.287,157.791-59.86,233.554l-1.892,7.693c-6.564,26.721-13.356,54.357-13.514,83.155-.2,32.548,8.971,61.187,25.165,78.579,23.1,24.855,57.553,26.633,94.483,4.876a147.831,147.831,0,0,0,23.617-17.233c55.7-49.992,93.208-128.342,126.857-204.3l3.826-8.7c32.947-74.882,67.011-152.317,120.394-207.994A234.371,234.371,0,0,1,538.3,425.012c56.779-38.814,118.043-43.673,163.9-12.991,22.414,14.962,41.832,37.652,62.956,73.562,8.656,14.681,16.839,30.294,24.764,45.4q3.826,7.288,7.638,14.5c24.793,46.841,59.559,102.483,108.728,117.287,17.312,5.193,36.343,5.228,56.55.088,17.154-4.313,35.326-12.252,55.575-24.257,10.39-6.179,20.765-12.973,30.811-19.557,23.345-15.279,47.478-31.087,73.747-40.31,26.885-9.4,56.578-11.477,85.871-5.985a189.137,189.137,0,0,1,83.42,38.638c49.313,39.589,81.356,104.437,83.649,169.251l-1.792.088c-2.264-64.109-34.007-128.307-82.832-167.508a187.561,187.561,0,0,0-82.718-38.3c-29.034-5.439-58.456-3.4-85.111,5.932-26.082,9.153-50.129,24.908-73.388,40.134-10.06,6.583-20.464,13.4-30.883,19.592-20.378,12.075-38.693,20.085-55.991,24.433-20.465,5.21-39.754,5.158-57.324-.106-49.785-14.98-84.839-71.045-109.817-118.22q-3.826-7.208-7.638-14.5c-7.911-15.086-16.079-30.682-24.706-45.31-20.966-35.628-40.2-58.124-62.354-72.911-45.314-30.33-105.948-25.471-162.182,12.973a231.456,231.456,0,0,0-36.486,31.016c-53.11,55.413-87.1,132.654-119.964,207.361l-3.841,8.713c-33.735,76.167-71.368,154.746-127.373,205.02a147.332,147.332,0,0,1-23.89,17.427c-17.412,10.245-34.279,15.349-49.743,15.349-17.942,0-33.978-6.865-46.69-20.542-16.581-17.832-25.982-47.07-25.767-80.251.158-29.1,6.979-56.892,13.586-83.772l1.877-7.692c18.587-75.78,38.177-152.176,59.874-233.607l.917-3.38q1.892-7.129,3.8-14.293c12.4-46.788,24.706-96.8,27.143-148.708,3.927-83.42-20.135-182.576-99.485-210.67-2.866-1-5.818-1.9-8.771-2.693" transform="translate(-104.362 -104.06)" fill="url(#linear-gradient-4)"/>
      </g>
      <g id="Group_6" data-name="Group 6" transform="translate(20.565 81.906)">
        <path id="Path_22" data-name="Path 22" d="M104.127,108.782c3.124.792,5.99,1.619,8.742,2.535,78.719,26.158,103.569,122.269,100.56,203.471-1.82,49.974-13.256,98.03-24.807,142.987l-4.371,16.934C164.345,551.862,146.36,625.529,129.278,699.9l-1.863,8.115c-5.99,26-12.167,52.9-12.1,81.026.057,31.967,9.157,60.237,24.95,77.558,22.557,24.7,56.306,27.443,92.606,7.5a142.629,142.629,0,0,0,23.359-16.089c56.521-48.214,95.673-127.356,127.917-197.732l5.79-12.762C422.7,575.308,456.58,500.637,508.487,446.3a238.462,238.462,0,0,1,36.386-31.192c56.005-38.8,116.639-44.535,162.183-15.35,22.328,14.276,41.76,36.1,63.027,70.816,8.971,14.61,17.469,30.224,25.681,45.327q3.547,6.5,7.08,12.973c26.713,48.742,60.491,100.6,108.513,115.58,17.125,5.334,35.928,5.686,55.89,1.056,16.925-3.873,34.9-11.231,54.973-22.479,10.332-5.791,20.665-12.2,30.654-18.412,23.087-14.329,46.962-29.168,72.915-37.67,26.627-8.7,56.034-10.333,85.068-4.735a195.27,195.27,0,0,1,82.9,37.881c49.27,38.409,81.643,100.529,84.509,162.122l-1.777.123c-2.837-60.906-34.9-122.357-83.678-160.4a193.626,193.626,0,0,0-82.231-37.564c-28.791-5.562-57.954-3.943-84.323,4.682-25.781,8.449-49.571,23.236-72.586,37.529-10,6.214-20.35,12.621-30.711,18.448-20.221,11.319-38.335,18.729-55.389,22.637-20.207,4.682-39.281,4.313-56.664-1.091-48.6-15.156-82.646-67.4-109.545-116.5q-3.547-6.443-7.079-12.973c-8.212-15.068-16.7-30.664-25.638-45.222-21.095-34.431-40.341-56.083-62.425-70.182-45-28.851-104.988-23.13-160.463,15.314a236.484,236.484,0,0,0-36.114,30.946C457.985,502.046,424.193,576.541,391.5,648.589l-5.79,12.762C353.355,731.938,314.089,811.327,257.252,859.8a143.44,143.44,0,0,1-23.646,16.282c-16.323,8.977-32.144,13.431-46.719,13.431-18.458,0-34.9-7.147-47.808-21.282-16.18-17.726-25.495-46.594-25.552-79.177-.072-28.446,6.148-55.484,12.167-81.642l1.863-8.115c17.1-74.389,35.082-148.075,54.988-225.263l4.385-16.934c11.508-44.8,22.9-92.714,24.721-142.424,2.967-80.357-21.539-175.429-99.256-201.253-2.709-.9-5.532-1.725-8.613-2.5" transform="translate(-103.783 -108.782)" fill="url(#linear-gradient-5)"/>
      </g>
      <g id="Group_7" data-name="Group 7" transform="translate(18.057 102.395)">
        <path id="Path_23" data-name="Path 23" d="M103.534,113.508c3.1.722,5.9,1.461,8.584,2.306,77.057,24.1,102.365,116.037,100.345,194.053-1.2,47.774-11.723,93.735-22.385,136.7l-4.041,16.177c-18.1,72.787-34.48,143.709-50.072,216.831l-1.849,8.625c-5.4,25.26-10.992,51.4-10.676,78.825.315,31.4,9.329,59.3,24.735,76.519,30.21,33.762,69.806,20.842,90.729,10.139a135.7,135.7,0,0,0,23.1-14.945c51.419-41.314,88.751-106.321,128.978-191.184,2.622-5.562,5.245-11.178,7.868-16.793,32.531-69.549,66.166-141.474,116.582-194.44a241.241,241.241,0,0,1,36.013-31.139c55.246-38.779,115.235-45.4,160.448-17.708,22.256,13.572,41.717,34.572,63.113,68.07,9.315,14.557,18.143,30.189,26.684,45.31q3.224,5.7,6.449,11.371C835.24,560,869.3,610.909,916.424,626.118c16.925,5.457,35.526,6.143,55.245,2.024,16.681-3.433,34.466-10.192,54.371-20.683,10.275-5.422,20.551-11.442,30.482-17.286,22.844-13.378,46.461-27.231,72.1-35.047,26.326-7.992,55.46-9.189,84.251-3.468a201.976,201.976,0,0,1,82.4,37.124c49.212,37.23,81.915,96.622,85.355,154.993l-1.777.158c-3.4-57.684-35.784-116.425-84.509-153.285a200.484,200.484,0,0,0-81.758-36.825c-28.562-5.668-57.438-4.489-83.535,3.433-25.466,7.763-49,21.563-71.755,34.906-9.96,5.844-20.25,11.864-30.553,17.321-20.035,10.544-37.948,17.374-54.773,20.824-19.992,4.172-38.822,3.468-56-2.06-47.679-15.4-82-66.662-109.287-114.77-2.149-3.767-4.3-7.569-6.449-11.371-8.527-15.1-17.34-30.7-26.627-45.2-21.224-33.234-40.5-54.04-62.511-67.454-44.669-27.372-104.028-20.771-158.757,17.656A239.978,239.978,0,0,0,516.593,438c-50.172,52.72-83.735,124.469-116.195,193.859q-3.934,8.449-7.868,16.793C352.175,733.794,314.7,799.013,262.98,840.573a137.473,137.473,0,0,1-23.388,15.138c-10.963,5.615-26.956,11.812-44.11,11.812-16.208,0-33.477-5.545-48.51-22.356-15.764-17.62-24.993-46.1-25.323-78.1-.315-27.724,5.3-54.005,10.748-79.424l1.834-8.608c15.606-73.157,31.986-144.114,50.1-216.919l4.041-16.195c10.633-42.828,21.109-88.612,22.3-136.122,2.006-77.171-22.958-168.089-99-191.853-2.651-.827-5.417-1.584-8.47-2.288" transform="translate(-103.205 -113.508)" fill="url(#linear-gradient-6)"/>
      </g>
      <g id="Group_8" data-name="Group 8" transform="translate(15.549 122.867)">
        <path id="Path_24" data-name="Path 24" d="M102.927,118.229c3.067.651,5.818,1.338,8.427,2.095C186.763,142.363,212.53,230.13,211.5,304.942c-.573,45.591-10.175,89.44-19.963,130.437l-3.712,15.438c-16.552,69.408-30.912,135.647-45.171,208.47l-1.806,9.136c-4.829,24.521-9.831,49.886-9.3,76.607.588,30.84,9.516,58.353,24.534,75.5,29.55,33.709,68.358,22.461,88.851,12.762a129.86,129.86,0,0,0,22.858-13.818c55.632-42.106,95.372-113.608,130.038-184.618q5.5-11.3,11.035-22.76c32-66.2,65.091-134.679,113.515-185.727A245.132,245.132,0,0,1,558.018,395.3c54.5-38.761,113.83-46.278,158.714-20.085,22.184,12.885,41.674,33.023,63.2,65.341,9.673,14.47,18.859,30.136,27.745,45.274,1.92,3.257,3.841,6.531,5.761,9.787,27.5,46.806,61.838,96.745,108.055,112.2,16.739,5.58,35.111,6.583,54.6,2.975,16.437-2.975,34.021-9.153,53.755-18.888,10.232-5.052,20.465-10.7,30.367-16.159,22.571-12.428,45.916-25.3,71.239-32.407,26.039-7.288,54.887-8.044,83.434-2.218a209.3,209.3,0,0,1,81.9,36.385c48.4,35.47,82.245,93.506,86.215,147.863l-1.777.194c-3.927-53.671-37.432-111.056-85.354-146.191a207.852,207.852,0,0,0-81.285-36.086c-28.3-5.791-56.922-5.034-82.732,2.183-25.151,7.076-48.424,19.891-70.909,32.283-9.917,5.457-20.164,11.107-30.425,16.177-19.877,9.8-37.59,16.036-54.171,19.046C956.617,616.6,938,615.6,921.019,609.928,874.272,594.3,839.663,544.005,811.99,496.9c-1.92-3.257-3.841-6.531-5.761-9.787-8.871-15.121-18.043-30.752-27.687-45.186-21.339-32.037-40.642-52-62.583-64.725-44.34-25.876-103.068-18.413-157.052,20a243.917,243.917,0,0,0-35.369,30.822c-48.195,50.837-81.213,119.136-113.142,185.2q-5.525,11.433-11.035,22.76c-34.781,71.238-74.678,143-130.64,185.357a131,131,0,0,1-23.144,13.994c-10.232,4.841-24.95,10.069-40.843,10.069-16.566,0-34.423-5.651-49.871-23.271C139.5,804.6,130.357,776.52,129.769,745.082c-.545-27,4.486-52.509,9.344-77.171l1.791-9.154c14.288-72.84,28.647-139.115,45.214-208.558l3.7-15.438c9.759-40.856,19.318-84.529,19.891-129.856,1.017-73.949-24.391-160.713-98.754-182.435-2.579-.757-5.3-1.443-8.326-2.077" transform="translate(-102.626 -118.229)" fill="url(#linear-gradient-7)"/>
      </g>
      <g id="Group_9" data-name="Group 9" transform="translate(13.041 143.357)">
        <path id="Path_25" data-name="Path 25" d="M102.32,122.955c3.038.581,5.761,1.2,8.283,1.883C184.321,144.8,210.561,228.413,210.533,300c.043,43.426-8.642,85.145-17.555,124.17l-3.368,14.681c-14.746,64.919-27.544,128.518-40.284,200.108l-1.763,9.822c-4.256,23.729-8.656,48.284-7.9,74.231.831,30.294,9.7,57.438,24.32,74.459,28.92,33.674,66.911,24.116,86.974,15.4a124.827,124.827,0,0,0,22.6-12.674c56.578-40.152,98.023-112.552,131.1-178.07q6.728-13.308,13.428-26.844C449.729,531.727,482.447,466,529.323,416.376a249.327,249.327,0,0,1,35.268-31c53.741-38.744,112.426-47.14,156.98-22.444,22.127,12.2,41.646,31.491,63.285,62.6,10.075,14.417,19.648,30.118,28.905,45.31l4.973,8.132c29.321,48.161,62.669,94.879,107.811,110.51,16.552,5.721,34.71,7.041,53.97,3.943,16.194-2.535,33.592-8.132,53.153-17.11,10.189-4.682,20.393-9.928,30.252-15.015,22.3-11.477,45.357-23.359,70.35-29.784,25.767-6.566,54.328-6.9,82.632-.933a217.717,217.717,0,0,1,81.385,35.61c48.353,34.29,82.532,89.545,87.074,140.734l-1.777.229c-4.486-50.52-38.321-105.106-86.186-139.062a216.519,216.519,0,0,0-80.8-35.364c-28.074-5.9-56.421-5.58-81.958.933-24.821,6.372-47.808,18.219-70.035,29.661-9.874,5.087-20.092,10.35-30.31,15.05-19.7,9.03-37.217,14.663-53.555,17.233-19.49,3.133-37.891,1.778-54.672-4.013-45.658-15.807-79.264-62.842-108.771-111.3l-4.973-8.132c-9.229-15.156-18.788-30.84-28.834-45.2-21.453-30.84-40.786-49.974-62.655-62.015-44.024-24.4-102.107-16.054-155.347,22.32a248.5,248.5,0,0,0-35.01,30.787c-46.661,49.393-79.307,114.964-110.864,178.387-4.5,9.013-8.957,17.99-13.442,26.862-33.2,65.746-74.807,138.41-131.715,178.809a127.613,127.613,0,0,1-22.9,12.85c-13.027,5.65-25.538,8.449-37.246,8.449-20.035,0-37.7-8.2-51.548-24.327-14.961-17.427-24.033-45.134-24.893-75.991-.76-26.228,3.669-50.907,7.954-74.777l1.748-9.822c12.754-71.626,25.566-135.26,40.313-200.214l3.368-14.7c8.871-38.867,17.527-80.427,17.484-123.572.029-70.728-25.839-153.338-98.525-173.018-2.494-.687-5.159-1.285-8.169-1.866" transform="translate(-102.048 -122.955)" fill="url(#linear-gradient-8)"/>
      </g>
      <g id="Group_10" data-name="Group 10" transform="translate(10.533 163.829)">
        <path id="Path_26" data-name="Path 26" d="M101.713,127.677c3.009.51,5.675,1.074,8.14,1.672,72.013,17.92,98.725,97.361,99.714,165.73.659,41.243-7.108,80.867-15.133,117.9l-.573,2.623c-.817,3.785-1.648,7.552-2.451,11.319-12.955,60.325-24.2,121.265-35.4,191.729l-1.691,10.491c-3.683,22.954-7.509,46.683-6.535,71.872,1.089,29.731,9.874,56.5,24.1,73.439,26.87,31.967,61.121,27.443,85.1,18.043a120.718,120.718,0,0,0,22.356-11.548c57.667-38.18,100.918-111.707,132.159-171.5,5.3-10.174,10.691-20.7,15.907-30.858,31.227-60.976,63.529-124.012,108.857-172.173a254.791,254.791,0,0,1,34.9-30.946c53-38.726,111.036-47.985,155.246-24.8,22.07,11.495,41.617,29.942,63.371,59.849,10.5,14.382,20.493,30.154,30.166,45.4l4.07,6.443c29.78,47.158,63.429,93,107.6,108.82,16.366,5.826,34.308,7.481,53.311,4.893,15.979-2.095,33.162-7.112,52.566-15.314,10.146-4.313,20.321-9.171,30.152-13.871,22.027-10.544,44.813-21.44,69.462-27.161,25.466-5.862,53.755-5.756,81.815.317A227.73,227.73,0,0,1,1299.8,554.9c48.266,33.111,82.789,85.55,87.934,133.605l-1.777.282c-5.073-47.387-39.238-99.174-87.031-131.968A226.318,226.318,0,0,0,1218.6,522.19c-27.845-6.02-55.919-6.126-81.17-.317-24.492,5.686-47.192,16.547-69.132,27.056-9.86,4.7-20.049,9.576-30.238,13.906-19.519,8.256-36.845,13.308-52.938,15.42-19.246,2.605-37.418.933-54.013-4.982-44.655-15.983-78.533-62.12-108.5-109.577l-4.084-6.425c-9.645-15.226-19.619-30.963-30.081-45.292-21.568-29.643-40.915-47.932-62.74-59.286C682.013,329.774,624.575,339,572.081,377.355a254.339,254.339,0,0,0-34.652,30.717c-45.114,47.95-77.344,110.845-108.513,171.68-5.2,10.174-10.6,20.7-15.922,30.875-31.342,60.025-74.764,133.834-132.8,172.243a120.778,120.778,0,0,1-22.657,11.706c-11.751,4.612-23.073,6.9-33.749,6.9-20.708,0-38.966-8.59-53.125-25.454C156.1,758.7,147.113,731.4,146,701.123c-.974-25.454,2.866-49.323,6.578-72.4l1.677-10.474c11.207-70.534,22.457-131.51,35.426-191.888q1.225-5.65,2.465-11.319l.573-2.623c7.982-36.9,15.721-76.326,15.062-117.287-.974-67.524-27.3-145.962-98.281-163.635-2.422-.6-5.045-1.144-8.025-1.655" transform="translate(-101.469 -127.677)" fill="url(#linear-gradient-9)"/>
      </g>
      <g id="Group_11" data-name="Group 11" transform="translate(8.025 184.319)">
        <path id="Path_27" data-name="Path 27" d="M101.106,132.4c3,.44,5.618.915,8,1.461,70.293,15.878,97.479,91.147,99.5,156.3,1.275,39.043-5.589,76.537-12.712,111.6l-.186.88q-1.268,6.179-2.508,12.322c-11.336,56.434-20.751,112.992-30.51,183.386-.272,2.007-.559,4.031-.846,6.055l-.745,5.228c-3.124,22.127-6.377,45.01-5.2,69.373,1.361,29.185,10.075,55.572,23.918,72.4,26.283,31.967,59.76,28.886,83.219,20.683a114.091,114.091,0,0,0,22.084-10.421C344.2,725.44,389.443,650.188,418.334,596.729c6.177-11.424,12.425-23.271,18.458-34.748,30.8-58.424,62.626-118.836,106.421-165.554a259.99,259.99,0,0,1,34.509-30.858c52.265-38.708,109.646-48.865,153.527-27.179,22.026,10.808,41.588,28.411,63.443,57.1,10.978,14.329,21.425,30.189,31.514,45.521l3.11,4.7c28.189,43.039,62.053,90.355,107.367,107.13,16.165,5.967,33.893,7.939,52.666,5.862,15.735-1.655,32.732-6.091,51.964-13.519,10.117-3.943,20.278-8.414,30.095-12.745,21.74-9.594,44.225-19.5,68.53-24.538,25.165-5.14,53.168-4.612,81,1.584a238.767,238.767,0,0,1,80.382,34.1c48.18,31.931,83.033,81.571,88.78,126.458l-1.763.352c-5.661-44.253-40.155-93.26-87.877-124.874a237.488,237.488,0,0,0-79.837-33.885c-27.63-6.126-55.417-6.672-80.382-1.567-24.162,5-46.561,14.874-68.229,24.433-9.831,4.348-20.006,8.837-30.167,12.779-19.361,7.481-36.472,11.935-52.336,13.607-19,2.095-36.945.105-53.34-5.95-45.8-16.951-79.894-64.549-108.241-107.852l-3.11-4.7c-10.075-15.3-20.493-31.122-31.428-45.4-21.654-28.446-41.029-45.891-62.8-56.558-43.38-21.44-100.173-11.354-151.936,27A256.862,256.862,0,0,0,544.388,398.1C500.78,444.605,469.022,504.877,438.3,563.178c-6.048,11.477-12.3,23.324-18.473,34.765-29.006,53.671-74.449,129.24-133.908,165.7a115.89,115.89,0,0,1-22.4,10.562,93.611,93.611,0,0,1-30.639,5.58c-18.114,0-37.618-6.5-54.328-26.809-14.159-17.2-23.058-44.13-24.434-73.844-1.189-24.609,2.078-47.615,5.231-69.883l.731-5.21c.287-2.042.573-4.049.846-6.055,9.774-70.446,19.189-127.039,30.539-183.544q1.247-6.152,2.508-12.322l.186-.88c7.094-34.906,13.93-72.242,12.654-111-1.978-64.285-28.776-138.569-98.038-154.218-2.336-.528-4.915-1-7.882-1.443" transform="translate(-100.891 -132.403)" fill="url(#linear-gradient-10)"/>
      </g>
      <g id="Group_12" data-name="Group 12" transform="translate(5.517 204.791)">
        <path id="Path_28" data-name="Path 28" d="M100.5,137.124c3.024.387,5.517.775,7.839,1.25,68.559,13.871,96.246,84.951,99.3,146.86,1.892,36.843-4.041,72.242-10.3,105.335q-1.182,6.231-2.35,12.445c-9.559,51.611-17.455,105.581-25.609,175.024-.229,1.954-.473,3.926-.717,5.9l-.745,6.284c-2.594,21.282-5.259,43.285-3.9,66.785,1.605,28.64,10.247,54.657,23.7,71.379,25.724,31.984,58.441,30.329,81.342,23.306a109.2,109.2,0,0,0,21.84-9.277c45.515-25.665,88.178-75.991,134.266-158.39,7.079-12.639,14.216-25.823,21.124-38.568,30.3-55.906,61.623-113.749,103.87-158.988a265.439,265.439,0,0,1,34.136-30.8c51.52-38.691,108.255-49.728,151.793-29.537,21.984,10.1,41.574,26.862,63.529,54.357,11.493,14.293,22.414,30.259,32.99,45.7L834.6,429.1c28.662,42.141,62.941,88.507,107.152,105.441,16.108,6.126,33.118,8.361,52.021,6.812,15.635-1.267,32.431-5.1,51.362-11.723,10.1-3.573,20.249-7.657,30.066-11.6,21.439-8.643,43.623-17.585,67.57-21.915,24.864-4.454,52.594-3.468,80.181,2.834a251.731,251.731,0,0,1,79.866,33.339c48.109,30.735,83.291,77.576,89.64,119.329l-1.749.4c-6.262-41.12-41.072-87.345-88.722-117.78a250.337,250.337,0,0,0-79.364-33.128c-27.4-6.267-54.916-7.235-79.594-2.834-23.8,4.313-45.9,13.22-67.283,21.828-9.817,3.961-19.977,8.062-30.124,11.618-19.046,6.671-35.956,10.544-51.72,11.829-19.132,1.549-36.358-.7-52.68-6.918-44.669-17.11-79.164-63.757-107.983-106.127l-2.006-2.922c-10.547-15.4-21.453-31.333-32.889-45.574-21.754-27.249-41.144-43.849-62.884-53.829-43.036-19.962-99.184-9-150.231,29.344a263.969,263.969,0,0,0-33.893,30.594C509.258,433.168,478,490.87,447.765,546.671c-6.908,12.762-14.044,25.947-21.124,38.6C380.366,668.006,337.474,718.579,291.658,744.4A112.075,112.075,0,0,1,269.5,753.82a92.542,92.542,0,0,1-26.856,4.26c-18.558,0-38.908-6.654-56.206-28.147-13.743-17.11-22.571-43.62-24.2-72.787-1.39-23.729,1.3-45.855,3.9-67.26l.76-6.267c.244-1.972.473-3.943.717-5.9,8.154-69.5,16.065-123.519,25.638-175.2q1.161-6.2,2.35-12.445c6.22-32.935,12.138-68.14,10.261-104.719-3.009-61.064-30.3-131.158-97.808-144.818-2.279-.458-4.744-.845-7.739-1.232" transform="translate(-100.313 -137.124)" fill="url(#linear-gradient-11)"/>
      </g>
      <g id="Group_13" data-name="Group 13" transform="translate(3.009 225.263)">
        <path id="Path_29" data-name="Path 29" d="M99.892,141.846c3.01.317,5.446.651,7.7,1.056,66.8,11.847,94.985,78.755,99.084,137.39,2.508,34.677-2.522,67.964-7.882,99.086-.673,3.908-1.361,7.8-2.021,11.688-7.9,47.158-14.1,97.009-20.722,166.663-.172,1.9-.358,3.82-.559,5.738-.244,2.447-.487,4.929-.731,7.428-2.064,20.4-4.185,41.507-2.623,64.109,1.863,28.094,10.418,53.724,23.488,70.358,25.194,32.019,57.137,31.773,79.479,25.947a105.989,105.989,0,0,0,21.582-8.15c45.4-23.324,89.668-72.981,135.326-151.842,8-13.8,16.051-28.27,23.832-42.264,29.765-53.477,60.534-108.767,101.262-152.546a269.8,269.8,0,0,1,33.763-30.734C642.4,306.5,697.1,294.885,740.926,313.86c21.955,9.4,41.574,25.313,63.615,51.611,12.023,14.241,23.474,30.312,34.537,45.855l.817,1.144c30.5,43.162,63.873,86.729,106.923,103.751,15.893,6.266,32.717,8.8,51.376,7.78,15.434-.827,32.029-4.084,50.76-9.928,10.1-3.186,20.249-6.883,30.066-10.456,21.138-7.692,43.007-15.667,66.581-19.293,24.907-3.8,51.606-2.429,79.364,4.084a269,269,0,0,1,79.35,32.6c48.037,29.678,83.564,73.72,90.514,112.165l-1.748.475c-6.836-37.828-41.99-81.272-89.568-110.686a266.882,266.882,0,0,0-78.877-32.389c-27.572-6.478-54.085-7.851-78.82-4.084-23.431,3.626-45.214,11.565-66.295,19.222-9.817,3.591-19.992,7.288-30.138,10.474-18.845,5.9-35.555,9.171-51.1,10.016-18.888,1.039-35.9-1.549-52.007-7.886-43.48-17.2-77.057-61.011-107.725-104.4l-.817-1.144c-11.035-15.508-22.471-31.544-34.437-45.732-21.84-26.052-41.259-41.807-62.956-51.1C697,297.173,642.874,308.72,591.813,347.623a269.861,269.861,0,0,0-33.534,30.523c-40.556,43.6-71.267,98.787-100.961,152.158-7.8,13.994-15.85,28.464-23.861,42.3C387.613,651.781,343.1,701.7,297.385,725.185a107.123,107.123,0,0,1-21.912,8.256,90.482,90.482,0,0,1-22.929,3.116c-22.929,0-42.763-10.034-58.212-29.678-13.342-16.969-22.084-43.109-23.976-71.7-1.576-22.831.559-44.042,2.623-64.567.244-2.482.5-4.964.745-7.411.186-1.919.373-3.837.559-5.739,6.621-69.707,12.826-119.611,20.737-166.839.659-3.908,1.347-7.8,2.021-11.706,5.345-30.963,10.347-64.056,7.853-98.435-4.041-57.808-31.8-123.748-97.565-135.418-2.207-.387-4.615-.722-7.6-1.021" transform="translate(-99.734 -141.846)" fill="url(#linear-gradient-12)"/>
      </g>
      <g id="Group_14" data-name="Group 14" transform="translate(0.516 245.752)">
        <path id="Path_30" data-name="Path 30" d="M99.274,146.572c2.981.246,5.388.493,7.538.827,65.019,9.875,93.71,72.576,98.883,127.955,3.124,32.495-.989,63.652-5.46,92.8q-.86,5.492-1.677,10.949c-7.309,49.5-11.622,99.086-15.836,158.3-.129,1.848-.272,3.714-.416,5.58q-.322,4.277-.674,8.66c-1.533,19.5-3.124,39.677-1.4,61.328,2.121,27.566,10.6,52.826,23.288,69.337,19.805,25.77,45.916,35.381,77.616,28.587a102.039,102.039,0,0,0,21.324-7.006c45.243-20.947,91.13-69.83,136.387-145.276,8.942-14.945,17.942-30.682,26.641-45.908,29.178-51.066,59.358-103.874,98.553-146.191a275.96,275.96,0,0,1,33.391-30.664c50.674-39.166,104.73-51.664,148.325-34.273,21.711,8.678,41.946,24.2,63.686,48.865,12.21,13.748,23.4,28.693,35.727,45.4,26.082,35.311,61.78,83.7,106.693,102.061,15.707,6.372,32.316,9.241,50.746,8.749,15.205-.422,31.614-3.08,50.158-8.168,10.118-2.781,20.293-6.091,30.124-9.277,20.808-6.759,42.348-13.748,65.535-16.705,24.592-3.08,51.018-1.285,78.548,5.351a287.338,287.338,0,0,1,78.848,31.843c47.908,28.481,83.764,69.707,91.345,105.018l-1.72.563c-7.337-34.185-43.666-75.833-90.4-103.61a285.463,285.463,0,0,0-78.419-31.65c-27.358-6.6-53.6-8.4-78.017-5.334-23.058,2.94-44.512,9.91-65.277,16.635-9.845,3.2-20.02,6.513-30.181,9.312-18.659,5.1-35.182,7.8-50.5,8.2-18.644.51-35.454-2.394-51.347-8.854-45.372-18.553-81.256-67.172-107.453-102.677-12.3-16.652-23.46-31.562-35.612-45.239-21.554-24.45-41.574-39.817-63.041-48.39-43.079-17.2-96.59-4.788-146.82,34.026a275.918,275.918,0,0,0-33.162,30.47c-39.037,42.141-69.146,94.844-98.267,145.8-8.713,15.226-17.7,30.981-26.67,45.926-46.1,76.889-90.972,124.645-137.189,146.032a102.586,102.586,0,0,1-21.654,7.129,92.839,92.839,0,0,1-19.347,2.148c-23.746,0-43.824-10.509-59.86-31.386-12.955-16.864-21.611-42.6-23.775-70.64-1.734-21.863-.129-42.141,1.4-61.751.229-2.922.459-5.791.674-8.66.143-1.866.287-3.732.416-5.563,4.228-59.286,8.527-108.908,15.85-158.513.545-3.644,1.118-7.288,1.677-10.949,4.457-28.974,8.541-59.955,5.446-92.151-5.087-54.551-33.334-116.3-97.321-126.018-2.121-.334-4.486-.581-7.438-.827" transform="translate(-99.159 -146.572)" fill="url(#linear-gradient-13)"/>
      </g>
      <g id="Group_15" data-name="Group 15" transform="translate(5.302 266.858)">
        <path id="Path_31" data-name="Path 31" d="M100.449,151.44c79.35,9.91,95.573,93.207,98.654,118.484,3.726,30.523.545,59.48-3.038,86.535q-.688,5.122-1.333,10.192c-5.388,43.232-8,86.06-10.949,149.94-.072,1.8-.172,3.609-.258,5.439q-.258,4.938-.545,10.034c-1.046,18.571-2.121,37.776-.244,58.424,2.379,27.02,10.791,51.928,23.073,68.316,19.4,25.858,44.884,36.367,75.753,31.21a97.4,97.4,0,0,0,21.081-5.862c45.673-18.782,91.9-65.465,137.419-138.727,9.946-16.019,19.92-33.023,29.55-49.446,28.561-48.707,58.1-99.086,95.759-139.907a283.931,283.931,0,0,1,33.018-30.611c49.929-39.149,103.354-52.509,146.576-36.614,21.711,7.974,41.975,22.62,63.787,46.1,12.7,13.572,24.792,29.08,36.1,43.778,28.074,36.543,63.013,82.029,106.464,100.371,15.219,6.39,31.614,9.558,50.115,9.717,14.789.158,30.525-1.9,49.542-6.372,10.146-2.394,20.35-5.3,30.209-8.1,20.493-5.827,41.674-11.847,64.46-14.118,24.277-2.376,50.416-.158,77.731,6.619a308.586,308.586,0,0,1,78.332,31.069c47.048,26.844,84.094,66.169,92.205,97.854l-1.705.669c-7.968-31.139-44.641-69.936-91.245-96.534a307.054,307.054,0,0,0-77.946-30.91c-27.143-6.724-53.125-8.942-77.229-6.583-22.657,2.271-43.781,8.273-64.2,14.065-9.874,2.816-20.092,5.7-30.281,8.133-19.132,4.489-35.025,6.548-49.886,6.39-18.7-.141-35.268-3.362-50.674-9.822-43.881-18.518-78.977-64.215-107.2-100.934-11.264-14.681-23.331-30.136-35.97-43.637-21.611-23.271-41.66-37.776-63.113-45.661-42.72-15.684-95.616-2.429-145.114,36.367a282.407,282.407,0,0,0-32.8,30.4c-37.5,40.662-66.982,90.936-95.487,139.555-9.645,16.441-19.619,33.445-29.579,49.481C395.751,620.378,349.219,667.307,303.2,686.23a99.981,99.981,0,0,1-21.41,5.967,91.342,91.342,0,0,1-15.062,1.285c-24.792,0-45.673-11.125-62.225-33.2-12.554-16.723-21.124-42.071-23.546-69.549-1.892-20.859-.8-40.152.244-58.828.186-3.38.373-6.724.53-10.016.1-1.831.186-3.626.272-5.422,2.938-63.951,5.56-106.831,10.963-150.152q.645-5.1,1.333-10.21c3.568-26.88,6.721-55.642,3.038-85.849-3.038-24.908-19-106.884-97.077-116.636" transform="translate(-100.263 -151.44)" fill="url(#linear-gradient-14)"/>
      </g>
      <g id="Group_16" data-name="Group 16" transform="translate(2.651 287.119)">
        <path id="Path_32" data-name="Path 32" d="M99.795,156.113c77.014,7.481,94.827,85.356,98.453,109.032,4.342,28.358,2.078,55.2-.616,80.269-.344,3.151-.688,6.3-1,9.435-4.113,41.279-4.93,83.367-6.048,141.6-.043,1.69-.086,3.38-.129,5.1-.086,3.714-.215,7.34-.33,11.019-.588,17.814-1.189,36.226.846,56.082,2.623,26.492,10.963,51.013,22.872,67.3,19,25.964,43.852,37.353,73.876,33.85a93.632,93.632,0,0,0,20.823-4.753c45.429-16.283,93.308-62,138.479-132.162,10.977-17.057,21.926-35.276,32.517-52.9,27.9-46.4,56.75-94.386,92.893-133.711a289.23,289.23,0,0,1,32.646-30.541c49.183-39.149,101.993-53.354,144.842-38.99,21.568,7.217,41.861,21,63.859,43.356,12.8,13.008,25.093,27.953,36.472,42.176l1.462,1.813c29.478,36.843,62.9,78.614,104.787,96.868a132.687,132.687,0,0,0,49.456,10.667c14.761.458,30.783-1.039,48.954-4.577,10.2-2.007,20.464-4.506,30.381-6.9,20.121-4.894,40.943-9.946,63.3-11.547,23.933-1.672,49.814.968,76.914,7.868a336.188,336.188,0,0,1,77.831,30.312c46.862,25.63,84.251,62.085,93.05,90.689l-1.677.775c-8.641-28.094-45.644-64.057-92.1-89.457a334.819,334.819,0,0,0-77.458-30.171c-26.956-6.848-52.68-9.488-76.455-7.833-22.227,1.6-42.978,6.636-63.056,11.512-9.931,2.412-20.207,4.911-30.439,6.918-18.286,3.556-34.394,5.07-49.284,4.612a133.808,133.808,0,0,1-50-10.808c-42.291-18.413-75.853-60.378-105.475-97.4l-1.462-1.813c-11.336-14.17-23.588-29.08-36.329-42.018-21.8-22.144-41.875-35.786-63.2-42.933-42.362-14.205-94.641-.088-143.409,38.709a289.86,289.86,0,0,0-32.417,30.347c-36.014,39.184-64.8,87.063-92.649,133.376-10.591,17.638-21.554,35.857-32.56,52.949-45.4,70.534-93.595,116.5-139.368,132.919a94.574,94.574,0,0,1-21.167,4.823,90.647,90.647,0,0,1-10.576.634c-25.91,0-47.664-11.812-64.79-35.206-12.153-16.6-20.636-41.56-23.316-68.492-2.049-20.032-1.419-39.36-.86-56.435q.193-5.518.344-10.843c.043-1.866.086-3.556.115-5.246,1.132-58.3,1.935-100.424,6.062-141.808.315-3.151.659-6.3,1.017-9.47,2.666-24.873,4.916-51.523.631-79.565-3.568-23.288-21.1-99.878-96.848-107.254" transform="translate(-99.651 -156.113)" fill="url(#linear-gradient-15)"/>
      </g>
      <g id="Group_17" data-name="Group 17" transform="translate(0 307.397)">
        <path id="Path_33" data-name="Path 33" d="M99.14,160.79c74.621,5.07,94.068,77.487,98.252,99.561,5,26.457,3.554,52.069,1.806,74l-.115,1.479c-.2,2.412-.387,4.806-.559,7.2-2.207,32.178-1.863,64.954-1.39,110.334q.108,10.932.229,22.9c.014,1.69.014,3.4.029,5.122q0,6.1-.072,12.5c-.129,16.793-.272,34.167,1.863,52.9,2.938,26.369,10.977,49.9,22.671,66.274,18.645,26.123,42.849,38.409,72.013,36.508a91.153,91.153,0,0,0,20.565-3.626c57.825-17.656,107.8-78.051,139.525-125.613,12.052-18.061,24.018-37.476,35.6-56.258,27.186-44.13,55.3-89.774,89.926-127.62a299.682,299.682,0,0,1,32.259-30.47c48.467-39.131,100.631-54.2,143.122-41.349,21.568,6.531,41.889,19.433,63.944,40.61,13.256,12.744,25.538,27.02,36.845,40.557l3.812,4.577c29.006,34.818,61.895,74.284,102.208,92.415a137.909,137.909,0,0,0,48.811,11.635c14.575.9,30.382-.018,48.353-2.781,10.289-1.6,20.622-3.679,30.625-5.686,19.748-3.961,40.17-8.062,62.067-9.013,23.6-.951,49.2,2.112,76.1,9.136a368.476,368.476,0,0,1,77.315,29.573c46.633,24.38,84.366,57.931,93.9,83.508l-1.634.915c-9.358-25.119-46.718-58.23-92.964-82.416a367.538,367.538,0,0,0-76.985-29.432c-26.756-6.988-52.207-10.034-75.653-9.083-21.8.933-42.161,5.017-61.852,8.977-10.017,2.007-20.379,4.084-30.683,5.7-18.085,2.764-34.007,3.679-48.668,2.8a139.755,139.755,0,0,1-49.341-11.776c-40.671-18.289-73.7-57.931-102.838-92.907l-3.812-4.577c-11.264-13.484-23.5-27.724-36.7-40.4-21.84-20.983-41.946-33.762-63.271-40.2-42.018-12.709-93.666,2.253-141.7,41.05a297.672,297.672,0,0,0-32.058,30.277c-34.494,37.705-62.554,83.261-89.7,127.3-11.579,18.8-23.56,38.251-35.627,56.329-31.915,47.809-82.188,108.556-140.471,126.353a92.519,92.519,0,0,1-20.923,3.679c-1.992.123-3.97.194-5.919.194-27.085,0-49.785-12.568-67.527-37.441-11.909-16.687-20.121-40.627-23.087-67.4-2.164-18.905-2.021-37.142-1.877-53.231.029-4.26.072-8.414.057-12.48,0-1.707,0-3.415-.014-5.087-.086-8.009-.158-15.631-.229-22.919-.487-45.433-.831-78.262,1.39-110.528q.258-3.617.559-7.235l.115-1.5c1.734-21.757,3.181-47.158-1.777-73.28-4.113-21.687-23.23-92.872-96.6-97.871" transform="translate(-99.04 -160.79)" fill="url(#linear-gradient-16)"/>
      </g>
      <g id="Group_18" data-name="Group 18" transform="translate(93.724 411.149)">
        <path id="Path_34" data-name="Path 34" d="M122.376,191.319c5.646,24.309,5.145,47.7,4.228,67.735l-.043,1.232c-.115,2.236-.215,4.471-.287,6.689-.788,24.837.344,49.446,1.92,83.525.573,12.252,1.2,26.14,1.806,41.384.072,1.637.129,3.274.172,4.946.143,4.594.229,9.33.315,14.17.287,15.79.573,32.09,2.78,49.71,3.239,25.929,11.221,49.094,22.456,65.254,17.957,25.823,40.9,38.62,70.164,39.131a76.821,76.821,0,0,0,20.307-2.482c45.415-11.407,95.329-53.706,140.572-119.065,13.156-18.993,25.581-38.708,38.736-59.568,26.44-41.895,53.784-85.233,86.888-121.565A308.3,308.3,0,0,1,544.277,232c47.736-39.113,99.27-55.044,141.388-43.708,21.582,5.809,41.918,17.849,64.016,37.864,13.743,12.445,26.526,26.668,37.217,38.955q3.138,3.591,6.334,7.288c28.476,32.829,60.749,70.041,99.471,88.014A144.386,144.386,0,0,0,940.884,373c14.345,1.32,29.951,1,47.75-.986,10.375-1.179,20.823-2.834,30.926-4.436,19.347-3.045,39.353-6.2,60.763-6.5,23.273-.246,48.567,3.239,75.28,10.386a412.1,412.1,0,0,1,76.813,28.816c45.572,22.725,84.524,54.111,94.713,76.308l-1.562,1.074c-10-21.792-48.582-52.791-93.824-75.357a410.057,410.057,0,0,0-76.513-28.693c-26.6-7.129-51.82-10.6-74.879-10.333-21.324.282-41.273,3.433-60.562,6.478-10.118,1.6-20.579,3.257-31,4.436-17.885,2.007-33.606,2.324-48.052,1a145.962,145.962,0,0,1-48.667-12.744C853.022,344.34,820.605,306.969,792.015,274q-3.2-3.7-6.334-7.288c-10.662-12.234-23.388-26.4-37.06-38.8-21.883-19.821-42.018-31.738-63.342-37.476-41.645-11.231-92.678,4.594-140.013,43.391a304.406,304.406,0,0,0-31.686,30.224c-32.99,36.209-60.276,79.441-86.659,121.265-12.6,19.962-25.624,40.61-38.794,59.656-45.5,65.729-95.773,108.275-141.575,119.8a80.677,80.677,0,0,1-19.49,2.535l-1.189-.018c-29.808-.528-53.2-13.589-71.511-39.906-11.45-16.476-19.562-40.029-22.858-66.345-2.221-17.761-2.537-34.871-2.809-49.992-.086-4.841-.172-9.558-.315-14.135-.043-1.655-.1-3.309-.158-4.929-.6-15.244-1.247-29.115-1.806-41.367-1.576-34.132-2.723-58.793-1.92-83.719.072-2.253.172-4.489.272-6.742l.057-1.232c.9-19.856,1.4-43.039-4.17-67.014" transform="translate(-120.657 -184.719)" fill="url(#linear-gradient-17)"/>
      </g>
      <g id="Group_19" data-name="Group 19" transform="translate(90.843 415.452)">
        <path id="Path_35" data-name="Path 35" d="M121.683,198.8c6.291,22.162,6.735,43.338,6.664,61.451v.968c-.014,2.077-.014,4.154,0,6.214.244,18.888,1.963,38.128,4.142,62.49,1.39,15.49,2.967,33.04,4.486,54.076.1,1.584.2,3.168.3,4.788.33,5.21.559,10.544.817,16.195.645,14.663,1.318,29.819,3.568,46.172,3.511,25.4,11.422,48.214,22.256,64.233,18.229,26.915,40.571,40.592,68.287,41.771a85.61,85.61,0,0,0,20.078-1.338c45.658-8.977,95.96-48.936,141.6-112.534,14.3-19.909,27.759-40.733,41.99-62.789,25.638-39.712,52.15-80.779,83.75-115.615a317.8,317.8,0,0,1,31.513-30.33c47.005-39.131,97.909-55.924,139.64-46.084,21.611,5.1,41.975,16.247,64.1,35.118,14.245,12.146,27.573,26.334,37.59,37.335,2.966,3.257,5.976,6.584,9,9.946,27.888,30.893,59.487,65.9,96.59,83.666A152.407,152.407,0,0,0,945.594,368.1c14.331,1.76,29.321,2.024,47.148.792,10.519-.757,21.124-1.954,31.37-3.133,18.9-2.148,38.45-4.383,59.344-4.031,22.858.422,47.908,4.348,74.449,11.635a468,468,0,0,1,76.3,28.059c45.114,21.4,84.395,49.833,95.53,69.108l-1.462,1.267c-9.243-16-44.741-44.605-94.713-68.334a466.485,466.485,0,0,0-76.04-27.953c-26.426-7.27-51.362-11.16-74.09-11.6-20.794-.334-40.3,1.884-59.143,4.031-10.275,1.179-20.88,2.394-31.442,3.151-17.928,1.232-33,.968-47.435-.81a153.811,153.811,0,0,1-47.994-13.713C860,338.671,828.267,303.5,800.279,272.5c-3.038-3.362-6.033-6.689-9-9.946-9.974-10.966-23.259-25.1-37.418-37.177-21.912-18.676-42.061-29.713-63.414-34.748-41.287-9.734-91.689,6.936-138.307,45.732a317.234,317.234,0,0,0-31.327,30.154c-31.485,34.713-57.94,75.71-83.535,115.333-14.259,22.092-27.716,42.933-42.047,62.895-45.93,63.969-96.6,104.173-142.678,113.239a84.257,84.257,0,0,1-16.051,1.461c-1.433,0-2.88-.018-4.357-.088-28.26-1.215-51.032-15.138-69.605-42.581-11.035-16.3-19.074-39.465-22.628-65.253-2.279-16.476-2.981-32.389-3.611-46.418-.244-5.633-.487-10.967-.8-16.142-.1-1.6-.2-3.2-.3-4.77-1.519-21-3.1-38.55-4.486-54.041-2.178-24.415-3.912-43.69-4.142-62.684-.029-2.077-.014-4.154-.014-6.249v-.968c.072-17.937-.373-38.9-6.564-60.73" transform="translate(-119.992 -185.712)" fill="url(#linear-gradient-18)"/>
      </g>
      <g id="Group_20" data-name="Group 20" transform="translate(87.963 419.672)">
        <path id="Path_36" data-name="Path 36" d="M120.976,206.343c6.936,20,8.341,38.955,9.1,55.167l.029.6c.1,1.936.186,3.89.315,5.827.946,14.082,2.967,28.147,5.517,45.926,2.465,17.18,5.245,36.649,8,62.314.158,1.531.3,3.08.459,4.63.545,5.9.989,11.987,1.447,18.448.96,13.484,1.949,27.408,4.228,42.405,3.783,24.908,11.608,47.352,22.041,63.194,17.928,27.214,39.653,41.754,66.438,44.429a83.094,83.094,0,0,0,19.805-.211c45.887-6.46,96.547-44.1,142.664-105.969,15.477-20.771,29.966-42.722,45.314-65.958,24.807-37.564,50.445-76.414,80.525-109.718A329.581,329.581,0,0,1,558,237.148c46.289-39.113,96.561-56.769,137.906-48.443,21.625,4.366,42.033,14.663,64.174,32.372,11.422,9.136,23.13,20.155,37.977,35.734,3.884,4.084,7.839,8.291,11.837,12.551,27.214,28.992,58.054,61.839,93.523,79.371A161.508,161.508,0,0,0,950.3,363.254c14.13,2.2,28.905,3.028,46.561,2.588,10.705-.282,21.5-1.039,31.944-1.76,18.415-1.285,37.447-2.605,57.768-1.637,22.442,1.109,47.22,5.457,73.632,12.885a548.37,548.37,0,0,1,75.782,27.3c49.442,22.268,85.885,47.985,96.318,61.891l-1.3,1.5c-10.3-13.713-46.447-39.184-95.616-61.328a546.127,546.127,0,0,0-75.581-27.214c-26.3-7.411-50.961-11.741-73.3-12.85-20.235-.951-39.224.37-57.6,1.637-10.461.722-21.267,1.479-32.015,1.778-17.742.44-32.6-.387-46.819-2.605a162.574,162.574,0,0,1-47.335-14.681C867,333.1,836.029,300.113,808.714,271.016c-4-4.26-7.939-8.467-11.823-12.551-14.775-15.508-26.426-26.475-37.776-35.54-21.941-17.55-42.118-27.742-63.5-32.055-40.9-8.238-90.686,9.277-136.616,48.091a325.552,325.552,0,0,0-30.94,30.1c-29.98,33.181-55.589,71.96-80.339,109.454-15.363,23.271-29.866,45.239-45.386,66.063-46.4,62.261-97.464,100.16-143.767,106.673a77.155,77.155,0,0,1-10.676.7q-4.6,0-9.5-.475c-27.286-2.746-49.413-17.532-67.656-45.239-10.634-16.124-18.587-38.92-22.428-64.2-2.279-15.086-3.282-29.08-4.242-42.6-.459-6.443-.9-12.533-1.447-18.377-.143-1.549-.3-3.1-.459-4.612-2.737-25.612-5.517-45.063-7.982-62.226-2.551-17.832-4.572-31.914-5.532-46.119-.129-1.954-.229-3.908-.315-5.879l-.029-.6c-.76-16.019-2.135-34.766-8.971-54.445" transform="translate(-119.328 -186.685)" fill="url(#linear-gradient-19)"/>
      </g>
      <g id="Group_21" data-name="Group 21" transform="translate(85.097 423.797)">
        <path id="Path_37" data-name="Path 37" d="M120.258,213.925c7.61,17.867,9.946,34.607,11.536,48.9l.072.581c.186,1.69.373,3.4.6,5.087,1.419,10.262,3.64,20.806,6.22,33.005,3.554,16.775,7.968,37.652,12.2,66.926.2,1.479.4,2.957.6,4.471.86,6.6,1.533,13.536,2.264,20.877,1.2,12.234,2.465,24.89,4.715,38.445,4.041,24.433,11.794,46.524,21.84,62.191,17.641,27.566,38.765,42.968,64.561,47.087a81.361,81.361,0,0,0,19.562.9c45.372-3.8,97.751-40.046,143.71-99.421,16.71-21.581,32.259-44.641,48.725-69.056,23.918-35.452,48.639-72.1,77.215-103.874a340.449,340.449,0,0,1,30.754-30.206c45.6-39.131,95.243-57.649,136.172-50.8,21.668,3.626,42.09,13.026,64.274,29.608,11.551,8.643,23.732,19.486,38.335,34.114,4.887,4.894,9.845,9.981,14.875,15.138,26.469,27.126,56.464,57.878,90.256,75.093A171.4,171.4,0,0,0,955,358.479a269.724,269.724,0,0,0,45.959,4.4c10.977.176,22.026-.088,32.717-.334,17.87-.422,36.343-.88,56.005.669,22.026,1.8,46.518,6.566,72.815,14.17a663.823,663.823,0,0,1,75.28,26.527c45.472,19.381,85.068,43,97.077,54.674l-1.118,1.725c-11.88-11.547-51.261-35.03-96.547-54.322a660.577,660.577,0,0,0-75.094-26.474c-26.211-7.569-50.617-12.322-72.529-14.1-19.59-1.549-38.02-1.109-55.847-.686-10.719.264-21.8.528-32.789.334a272.765,272.765,0,0,1-46.2-4.4,173.012,173.012,0,0,1-46.661-15.649c-34.065-17.339-64.159-48.2-90.714-75.428-5.044-5.158-9.989-10.227-14.875-15.121-14.532-14.575-26.655-25.348-38.134-33.938C742.39,204.1,722.183,194.791,700.758,191.2c-40.5-6.777-89.668,11.6-134.9,50.432a338.911,338.911,0,0,0-30.582,30.03c-28.475,31.667-53.167,68.264-77.043,103.663-16.48,24.433-32.058,47.51-48.811,69.161-46.26,59.762-99.069,96.252-144.871,100.107-1.92.158-3.9.229-5.919.229a89.154,89.154,0,0,1-14-1.162c-26.283-4.189-47.794-19.856-65.736-47.9-10.2-15.93-18.086-38.339-22.2-63.106-2.25-13.642-3.511-26.334-4.729-38.621-.717-7.323-1.4-14.241-2.25-20.789q-.3-2.244-.6-4.436c-4.213-29.185-8.627-50.027-12.153-66.75-2.594-12.269-4.844-22.848-6.248-33.2-.244-1.725-.43-3.432-.63-5.158l-.057-.581c-1.576-14.118-3.884-30.629-11.364-48.179" transform="translate(-118.667 -187.636)" fill="url(#linear-gradient-20)"/>
      </g>
      <g id="Group_22" data-name="Group 22" transform="translate(82.245 427.763)">
        <path id="Path_38" data-name="Path 38" d="M119.514,221.647c8.283,15.7,11.551,30.206,13.987,42.6l.086.475c.3,1.5.588,2.975.917,4.436,1.648,7.217,3.841,14.522,6.377,22.954A583.091,583.091,0,0,1,157.806,360.8c.258,1.426.516,2.852.76,4.313,1.232,7.358,2.221,15.226,3.282,23.57,1.39,10.914,2.809,22.2,4.987,34.237,4.328,23.957,12.009,45.679,21.64,61.17,17.4,27.988,37.905,44.253,62.712,49.728a80.033,80.033,0,0,0,19.3,2.042c45.486-1.215,98.238-35.065,144.756-92.89,17.971-22.355,34.609-46.507,52.222-72.066,22.987-33.375,46.762-67.894,73.818-98.135a353.3,353.3,0,0,1,30.381-30.136c45.572-39.73,93.308-58.6,134.438-53.16,21.711,2.869,42.161,11.407,64.346,26.862,11.837,8.256,24.133,18.589,38.708,32.512,5.947,5.668,11.866,11.512,18.129,17.691,26.885,26.545,54.687,53.988,86.788,70.851a184.328,184.328,0,0,0,45.615,16.459,292.047,292.047,0,0,0,45.372,6.178c11.293.7,22.7.968,33.735,1.215,17.24.387,35.068.792,53.984,2.887,21.539,2.447,45.759,7.64,72,15.42,25.882,7.622,51.734,16.547,74.764,25.788,48.51,19.469,86.845,40.363,97.808,47.439l-.831,1.936c-10.92-7.041-49.126-27.865-97.536-47.3-22.987-9.224-48.782-18.131-74.621-25.735-26.168-7.763-50.3-12.92-71.74-15.367-18.859-2.095-36.658-2.482-53.855-2.869-11.049-.246-22.471-.51-33.807-1.232a290.53,290.53,0,0,1-45.586-6.214,184.8,184.8,0,0,1-45.988-16.6c-32.345-16.987-60.247-44.517-87.218-71.151-6.263-6.178-12.181-12.005-18.1-17.673-14.517-13.853-26.741-24.133-38.507-32.319-21.955-15.314-42.19-23.764-63.658-26.6-40.685-5.386-87.992,13.361-133.205,52.773A346.529,346.529,0,0,0,542.49,274.4c-26.971,30.136-50.717,64.584-73.661,97.907-17.641,25.612-34.294,49.8-52.322,72.207-46.833,58.23-100.044,92.309-145.974,93.523-.573.018-1.161.018-1.734.035a82.457,82.457,0,0,1-17.928-2.112c-25.265-5.58-46.131-22.109-63.815-50.538-9.788-15.737-17.584-37.776-21.969-62.032-2.178-12.111-3.611-23.429-5-34.378-1.046-8.309-2.049-16.159-3.267-23.465-.244-1.443-.487-2.869-.745-4.278A580.869,580.869,0,0,0,139.2,292.885c-2.551-8.5-4.758-15.825-6.42-23.148-.344-1.479-.631-2.992-.932-4.489l-.1-.493c-2.379-12.2-5.618-26.51-13.743-41.912" transform="translate(-118.009 -188.551)" fill="url(#linear-gradient-21)"/>
      </g>
      <g id="Group_23" data-name="Group 23" transform="translate(79.422 431.671)">
        <path id="Path_39" data-name="Path 39" d="M118.734,229.395c8.068,12.181,12.4,23.306,16.423,36.279l.186.6c.373,1.2.731,2.376,1.146,3.556,1.705,4.858,3.755,9.682,6.1,15.279,6.377,15.1,14.331,33.885,22.127,68.088.315,1.373.6,2.764.9,4.172,1.691,8.15,3.067,17.057,4.529,26.492,1.476,9.523,3,19.363,5.03,29.784,4.614,23.517,12.224,44.887,21.439,60.166,17.412,28.869,36.759,45.521,60.849,52.368a78.55,78.55,0,0,0,19.06,3.168c44.942,1.479,99.37-30.822,145.788-86.342,19.289-23.06,37.031-48.32,55.819-75.041,22.012-31.333,44.784-63.74,70.336-92.415a364.442,364.442,0,0,1,30.009-30.065c44.87-39.747,92.018-59.48,132.69-55.537,21.769,2.112,42.247,9.787,64.432,24.133,12.1,7.816,24.52,17.638,39.08,30.875,7.079,6.443,14.145,13.149,21.611,20.261,25.925,24.662,52.723,50.15,83.09,66.591a198.6,198.6,0,0,0,44.985,17.427,314.04,314.04,0,0,0,44.755,7.974c11.737,1.3,23.073,2.095,35.082,2.922,16.509,1.162,33.577,2.341,51.663,4.946,20.952,3.081,44.9,8.678,71.182,16.67,25.781,7.8,51.448,16.441,74.234,25.031,28.905,10.9,54.4,21.792,73.03,29.749,11.981,5.122,20.637,8.819,25.466,10.491l-.487,2.112c-4.873-1.69-13.557-5.4-25.567-10.544-18.616-7.939-44.1-18.835-72.958-29.714-22.758-8.573-48.4-17.215-74.148-25-26.211-7.956-50.086-13.554-70.966-16.617-18.014-2.605-35.068-3.785-51.548-4.929-12.024-.845-23.374-1.637-35.139-2.922A316.97,316.97,0,0,1,964,351.382a200.82,200.82,0,0,1-45.329-17.568c-30.568-16.547-57.452-42.123-83.463-66.855-7.466-7.112-14.517-13.818-21.582-20.243-14.489-13.167-26.827-22.919-38.851-30.7-21.969-14.205-42.219-21.792-63.744-23.869-40.284-3.908-86.974,15.666-131.5,55.114a362.8,362.8,0,0,0-29.851,29.907c-25.466,28.587-48.209,60.941-70.193,92.221-18.8,26.774-36.572,52.051-55.919,75.2-45.744,54.692-99.37,86.993-144.14,87.01-.989,0-1.963-.018-2.938-.053a81.392,81.392,0,0,1-19.418-3.221c-24.534-6.988-44.2-23.9-61.881-53.213-9.358-15.508-17.068-37.159-21.74-60.958-2.049-10.474-3.568-20.349-5.044-29.89-1.462-9.4-2.838-18.272-4.514-26.351-.287-1.391-.588-2.764-.888-4.119-7.753-33.991-15.649-52.668-21.984-67.683-2.379-5.615-4.443-10.491-6.162-15.4-.43-1.215-.8-2.429-1.189-3.661l-.186-.6c-3.955-12.762-8.212-23.711-16.122-35.681" transform="translate(-117.358 -189.453)" fill="url(#linear-gradient-22)"/>
      </g>
      <g id="Group_24" data-name="Group 24" transform="translate(76.598 435.47)">
        <path id="Path_40" data-name="Path 40" d="M117.939,237.21c8.728,10.245,13.844,19.381,18.845,29.942l.244.528c.459.968.917,1.936,1.419,2.887,1.619,3.063,3.5,6.2,5.489,9.523,7.538,12.6,17.856,29.872,27.687,65.606.358,1.32.7,2.64,1.046,4,2.264,9,4.1,19.046,6.048,29.7,1.462,8.044,2.981,16.353,4.83,25.084,3.454,16.336,9.946,39.853,21.224,59.145,17.226,29.45,35.971,46.947,59,55.026a79.332,79.332,0,0,0,18.8,4.3c44.884,4.137,99.772-25.718,146.834-79.811,20.651-23.728,39.525-50.062,59.5-77.963,20.995-29.326,42.706-59.638,66.753-86.746A383.693,383.693,0,0,1,585.3,248.405c44.182-39.782,90.671-60.342,130.941-57.878,21.84,1.32,42.333,8.115,64.518,21.37,12.353,7.376,24.893,16.688,39.453,29.274,8.3,7.164,16.581,14.769,25.351,22.813,24.85,22.813,50.545,46.383,79.135,62.349a218.166,218.166,0,0,0,44.34,18.395,346.385,346.385,0,0,0,44.168,9.77c12.339,1.954,24.262,3.344,36.888,4.841,15.635,1.848,31.8,3.749,48.854,6.777,20.551,3.714,43.566,9.576,70.365,17.92,26.068,8.08,51.563,16.476,73.732,24.274,12.468,4.4,24.119,8.625,35.369,12.692,30.353,11,54.328,19.68,63.8,20.4l-.115,2.2c-9.673-.757-33.735-9.47-64.188-20.49-11.25-4.084-22.9-8.291-35.369-12.692-22.141-7.8-47.622-16.177-73.675-24.257-26.727-8.326-49.685-14.17-70.178-17.867-17.011-3.028-33.147-4.929-48.768-6.777-12.64-1.5-24.577-2.9-36.945-4.858a346.327,346.327,0,0,1-44.354-9.8,218.622,218.622,0,0,1-44.655-18.536c-28.762-16.054-54.543-39.712-79.479-62.578-8.756-8.044-17.025-15.631-25.308-22.778-14.474-12.533-26.942-21.775-39.209-29.1-21.941-13.114-42.219-19.838-63.815-21.158-39.84-2.429-85.942,17.972-129.795,57.455a382.789,382.789,0,0,0-29.493,29.854c-23.961,27.038-45.658,57.315-66.624,86.588-20.006,27.936-38.894,54.322-59.616,78.121-44.512,51.154-96.046,80.779-139.726,80.779-2.852,0-5.675-.123-8.455-.387a80.848,80.848,0,0,1-19.175-4.366c-23.417-8.238-42.477-25.982-59.946-55.871-11.436-19.557-18-43.338-21.511-59.867-1.849-8.766-3.368-17.092-4.844-25.154-1.935-10.6-3.755-20.613-6-29.52-.33-1.338-.674-2.658-1.032-3.943-9.745-35.417-19.977-52.527-27.444-65.007-2.006-3.362-3.9-6.513-5.532-9.629-.53-.986-1-1.989-1.476-2.992l-.244-.51c-4.93-10.4-9.96-19.4-18.53-29.467" transform="translate(-116.707 -190.329)" fill="url(#linear-gradient-23)"/>
      </g>
      <g id="Group_25" data-name="Group 25" transform="translate(73.804 439.123)">
        <path id="Path_41" data-name="Path 41" d="M117.094,245.155a137.132,137.132,0,0,1,21.253,23.588l.3.422c.545.757,1.1,1.514,1.691,2.236,1.4,1.743,2.938,3.5,4.572,5.369,9.114,10.438,21.6,24.75,33.592,61.522.416,1.267.8,2.552,1.2,3.855,2.952,9.84,5.317,21.141,7.825,33.128,1.361,6.478,2.751,13.167,4.342,20.12,3.683,16.054,10.3,39.184,21.038,58.142,17.054,30.136,35.211,48.478,57.123,57.684a80.09,80.09,0,0,0,18.558,5.422c44.2,6.742,100.846-21.352,147.88-73.263,22.055-24.362,42.075-51.8,63.271-80.85,19.934-27.337,40.556-55.607,63.085-81.149a404.212,404.212,0,0,1,29.249-29.942c43.523-39.818,89.4-61.2,129.221-60.237,21.6.528,42.72,6.619,64.589,18.624,12.425,6.812,25.452,15.86,39.826,27.654,9.63,7.886,19.232,16.406,29.393,25.418,23.675,20.982,48.137,42.687,74.879,58.071a241.138,241.138,0,0,0,43.695,19.363,386.089,386.089,0,0,0,43.58,11.565c13.142,2.711,25.881,4.841,39.381,7.094,14.531,2.412,29.579,4.911,45.357,8.273,19.891,4.278,41.99,10.386,69.548,19.169,22.528,7.164,48.839,15.561,73.216,23.535,46.361,15.174,86.4,28.252,99.858,25.982l.244,2.165c-13.815,2.341-54.013-10.79-100.56-26.034-24.377-7.974-50.688-16.353-73.216-23.517-27.5-8.784-49.556-14.857-69.39-19.134-15.75-3.345-30.768-5.844-45.3-8.273-13.5-2.253-26.254-4.366-39.439-7.112a385.261,385.261,0,0,1-43.738-11.6,241.6,241.6,0,0,1-44-19.5c-26.885-15.473-51.434-37.23-75.165-58.265-10.146-9-19.734-17.5-29.335-25.366-14.288-11.723-27.243-20.718-39.568-27.478-21.64-11.882-42.534-17.9-63.9-18.43-39.453-1-84.91,20.261-128.1,59.8A397.581,397.581,0,0,0,564.045,283c-22.471,25.454-43.064,53.688-62.984,80.99-21.224,29.1-41.259,56.575-63.4,81.008-43.236,47.739-92.692,74.865-135.2,74.865a95.363,95.363,0,0,1-14.087-1.039A81.248,81.248,0,0,1,269.46,513.3c-22.285-9.365-40.728-27.953-58.026-58.512-10.863-19.2-17.57-42.581-21.281-58.793-1.591-6.971-3-13.695-4.357-20.173-2.494-11.935-4.858-23.183-7.767-32.917-.387-1.285-.774-2.552-1.175-3.785-11.866-36.332-24.176-50.45-33.162-60.747-1.648-1.883-3.2-3.661-4.615-5.422-.616-.757-1.189-1.549-1.763-2.324l-.3-.422a134.952,134.952,0,0,0-20.952-23.271" transform="translate(-116.062 -191.171)" fill="url(#linear-gradient-24)"/>
      </g>
      <g id="Group_26" data-name="Group 26" transform="translate(71.024 442.649)">
        <path id="Path_42" data-name="Path 42" d="M116.224,253.2a185.642,185.642,0,0,1,23.617,17.233l.5.422c.588.493,1.189,1.021,1.834,1.5,1.075.845,2.221,1.672,3.4,2.535,10.763,7.9,25.495,18.712,39.8,56.118.459,1.2.9,2.429,1.347,3.679,3.755,10.7,6.75,23.394,9.917,36.843,1.132,4.823,2.307,9.787,3.568,14.91,3.884,15.807,10.662,38.55,20.823,57.121,17.168,31.368,34.222,49.974,55.274,60.342a79.818,79.818,0,0,0,18.3,6.548c44.1,9.418,101.176-16.142,148.926-66.732,23.517-24.926,44.7-53.477,67.126-83.7,18.845-25.383,38.321-51.629,59.33-75.551,9.444-10.755,19.16-20.806,28.877-29.872,42.864-39.888,88.135-62.12,127.473-62.6,21.668-.246,42.82,4.911,64.675,15.86,12.654,6.355,25.8,14.874,40.2,26.052,11.064,8.573,22.1,18.043,33.778,28.059,22.342,19.187,45.458,39.008,70.278,53.724a268.428,268.428,0,0,0,43.065,20.331,433.368,433.368,0,0,0,42.964,13.361c14.317,3.7,28.232,6.689,42.95,9.875,13.113,2.834,26.655,5.756,40.814,9.259,23.933,6,49.3,14.082,68.717,20.437,22.442,7.305,46.905,14.962,72.7,22.76,43.724,13.22,86.172,24.644,100.574,18.923l.545,2.077c-14.818,5.914-57.567-5.58-101.549-18.87-25.81-7.8-50.273-15.473-72.729-22.778-19.4-6.355-44.727-14.4-68.616-20.4-14.13-3.5-27.673-6.425-40.757-9.242-14.746-3.186-28.662-6.2-43.007-9.893A432.167,432.167,0,0,1,977.8,338.114a269.031,269.031,0,0,1-43.308-20.454c-24.95-14.786-48.123-34.678-70.536-53.9-11.651-10-22.672-19.451-33.692-28.006-14.316-11.107-27.372-19.574-39.926-25.858-21.625-10.843-42.477-15.948-63.987-15.719-38.951.493-83.85,22.567-126.4,62.155-9.688,9.03-19.361,19.029-28.748,29.731-20.966,23.869-40.413,50.08-59.229,75.428-22.456,30.277-43.681,58.864-67.284,83.877-41.5,43.989-90.07,69.2-131.256,69.2A92.181,92.181,0,0,1,294.3,512.61a81.1,81.1,0,0,1-18.659-6.689c-21.425-10.526-38.722-29.379-56.105-61.152-10.275-18.782-17.111-41.754-21.038-57.7q-1.892-7.684-3.583-14.945c-3.153-13.36-6.119-26-9.845-36.561-.43-1.232-.86-2.447-1.318-3.626-14.059-36.807-28.533-47.422-39.095-55.167-1.189-.863-2.336-1.707-3.425-2.552-.659-.51-1.29-1.039-1.906-1.567l-.5-.422a183.856,183.856,0,0,0-23.4-17.057" transform="translate(-115.421 -191.984)" fill="url(#linear-gradient-25)"/>
      </g>
      <g id="Group_27" data-name="Group 27" transform="translate(67.842 445.977)">
        <path id="Path_43" data-name="Path 43" d="M115.232,261.269l.416.158c10.762,4.225,18.53,7.481,25.968,10.879l.659.317c.659.3,1.318.6,2.006.88l2.021.827c12.468,5,29.536,11.864,46.246,49.517.5,1.162,1,2.341,1.49,3.538,4.715,11.583,8.24,25.137,12.339,40.856.8,3.063,1.605,6.2,2.451,9.365,6,22.708,12.955,41.6,20.622,56.1,17.082,32.336,33.549,51.77,53.411,63.018a80.439,80.439,0,0,0,18.057,7.675c44.01,12.163,101.463-10.914,149.973-60.2,25.036-25.454,47.407-55.114,71.081-86.5,17.684-23.465,35.985-47.7,55.475-70.006,9.372-10.72,18.96-20.754,28.5-29.819,42.219-39.941,86.874-63.018,125.725-64.954,21.754-1.091,42.935,3.221,64.747,13.132,12.869,5.844,26.154,13.836,40.585,24.415,12.64,9.277,25.222,19.75,38.55,30.822,20.88,17.374,42.477,35.346,65.291,49.288a306.3,306.3,0,0,0,42.419,21.3c12.869,5.316,26.326,10.139,42.376,15.156,16.022,4.964,31.657,9.118,48.209,13.5,11.121,2.94,22.628,6,34.552,9.382,21.066,6.055,43.208,13.4,67.9,21.687,23.159,7.728,48.123,15.35,72.185,22.021,56.636,15.684,88.837,19.469,101.319,11.847l.788,1.972c-12.869,7.833-45.429,4.137-102.494-11.688-24.09-6.671-49.083-14.293-72.271-22.039-24.663-8.273-46.8-15.614-67.828-21.651-11.909-3.4-23.4-6.443-34.523-9.382-16.566-4.4-32.216-8.555-48.266-13.519-16.108-5.034-29.608-9.875-42.52-15.209a308.476,308.476,0,0,1-42.649-21.423c-22.915-13.994-44.555-32-65.492-49.429-13.3-11.054-25.867-21.511-38.464-30.752-14.345-10.509-27.515-18.448-40.284-24.239-21.6-9.822-42.548-14.047-64.045-12.991-38.507,1.919-82.79,24.82-124.722,64.5-9.5,9.013-19.046,18.993-28.375,29.678-19.447,22.25-37.719,46.471-55.374,69.883-23.717,31.456-46.131,61.17-71.267,86.711-40.255,40.909-86.7,63.9-126.7,63.9a92.65,92.65,0,0,1-24.792-3.239,81.754,81.754,0,0,1-18.415-7.833c-20.178-11.442-36.888-31.122-54.156-63.81-7.767-14.681-14.775-33.727-20.823-56.611q-1.268-4.779-2.465-9.382c-4.07-15.631-7.581-29.115-12.239-40.557-.473-1.162-.96-2.323-1.462-3.45-16.351-36.9-33.047-43.6-45.228-48.5l-2.021-.81c-.717-.3-1.4-.616-2.078-.933l-.659-.3c-7.409-3.4-15.148-6.636-25.882-10.843l-.416-.176" transform="translate(-114.687 -192.752)" fill="url(#linear-gradient-26)"/>
      </g>
      <g id="Group_28" data-name="Group 28" transform="translate(60.849 449.127)">
        <path id="Path_44" data-name="Path 44" d="M113.347,268.914c1.619.317,3.153.616,4.643.9,9.071,1.69,16.423,2.8,22.9,3.767l6.377.968c.674.106,1.361.229,2.064.317l.416.053c14.23,1.831,33.706,4.348,52.9,41.912.559,1.109,1.1,2.236,1.648,3.38,5.8,12.428,10.1,27.566,15.076,45.1l1.018,3.609c6.492,22.848,13.17,40.874,20.422,55.1,17.254,33.868,32.674,53.512,51.562,65.676a81.646,81.646,0,0,0,17.8,8.819c43.179,14.663,102.451-6.407,151.019-53.688,26.612-25.911,50.187-56.7,75.137-89.281,16.495-21.546,33.549-43.813,51.519-64.5,9.3-10.7,18.774-20.7,28.132-29.731,29.421-28.323,74.822-63,123.991-67.313,21.812-1.919,43.021,1.479,64.818,10.368,13.084,5.334,26.484,12.8,40.958,22.813,14.374,9.928,28.647,21.475,43.752,33.692,19.246,15.579,39.152,31.685,59.875,44.711a357.531,357.531,0,0,0,41.774,22.285c12.769,5.809,26.039,11.2,41.789,16.951,18.745,6.795,37.16,12.586,56.65,18.694,8.183,2.57,16.523,5.193,25.108,7.939,15.033,4.876,30.467,10.245,46.819,15.931q10.017,3.485,20.264,7.006c23.216,7.939,47.994,15.3,71.668,21.264,54.615,13.765,88.952,15.385,102.093,4.823l.974,1.831c-13.729,11.037-47.564,9.576-103.426-4.506-23.7-5.985-48.539-13.343-71.783-21.3-6.836-2.341-13.586-4.7-20.278-7.006-16.337-5.686-31.771-11.037-46.776-15.913-8.584-2.764-16.925-5.386-25.108-7.939-19.5-6.126-37.934-11.9-56.722-18.729-15.778-5.756-29.092-11.16-41.889-16.987a354.563,354.563,0,0,1-41.975-22.391c-20.794-13.1-40.743-29.221-60.032-44.834-15.09-12.2-29.335-23.711-43.652-33.621-14.374-9.928-27.673-17.339-40.642-22.637-21.568-8.8-42.548-12.146-64.131-10.262-48.725,4.277-93.8,38.726-123.016,66.855-9.329,9-18.745,18.958-28.017,29.608-17.928,20.63-34.967,42.88-51.434,64.391-25.007,32.653-48.625,63.493-75.337,89.51-38.607,37.6-83.993,58.741-122.9,58.741a92.406,92.406,0,0,1-29.694-4.665,83.021,83.021,0,0,1-18.157-8.995c-19.189-12.357-34.81-32.231-52.236-66.433-7.337-14.381-14.059-32.548-20.593-55.554l-1.032-3.609c-4.944-17.427-9.2-32.477-14.933-44.729-.53-1.127-1.06-2.218-1.605-3.292-18.73-36.667-37.7-39.131-51.577-40.909l-.416-.053q-1.075-.158-2.107-.317l-6.363-.968c-6.492-.986-13.858-2.095-22.958-3.785-1.476-.264-3.038-.581-4.643-.88" transform="translate(-113.074 -193.479)" fill="url(#linear-gradient-27)"/>
      </g>
      <g id="Group_29" data-name="Group 29" transform="translate(51.749 452.059)">
        <path id="Path_45" data-name="Path 45" d="M111,278.329c3.884.07,7.567.123,10.949.07,13.041-.246,22.843-1,30.711-1.69l1.376-.123c.645-.053,1.318-.106,1.992-.158,13.686-1.32,36.615-3.538,58.327,33.568.616,1.039,1.2,2.112,1.791,3.2,6.578,12.287,11.364,27.32,17.426,47.211,4.428,14.558,11.35,36.015,20.207,54.093,12.769,26.017,27.63,52.315,49.7,68.316a82.887,82.887,0,0,0,17.555,9.946c42.993,17.391,102.681-1.109,152.05-47.14,28.261-26.351,53.053-58.283,79.307-92.08,15.248-19.645,31.012-39.958,47.464-58.969,9.229-10.667,18.573-20.666,27.759-29.678,28.991-28.393,73.732-63.528,122.242-69.654,21.9-2.764,43.122-.282,64.9,7.622,13.285,4.806,26.8,11.741,41.33,21.176,16.294,10.6,32.417,23.324,49.485,36.79,17.426,13.748,35.44,27.953,53.927,39.941a423.832,423.832,0,0,0,41.144,23.253c12.5,6.214,25.968,12.357,41.187,18.747,23.574,9.84,47.063,18.289,71.941,27.232l8.828,3.168q11.694,4.251,23.918,8.784c13.7,5.052,27.859,10.3,42.333,15.385a658.062,658.062,0,0,0,71.167,20.507c53.5,12.128,89.081,11.371,102.881-2.236l1.1,1.707c-14.4,14.206-49.5,15.121-104.314,2.693a664.134,664.134,0,0,1-71.325-20.56c-14.488-5.1-28.662-10.333-42.362-15.4-8.126-2.993-16.108-5.95-23.918-8.784l-8.813-3.169c-24.893-8.942-48.4-17.392-72.027-27.249-15.248-6.407-28.748-12.551-41.273-18.8a419.794,419.794,0,0,1-41.3-23.341c-18.558-12.023-36.6-26.263-54.056-40.029C887.58,249.231,871.486,236.54,855.264,226c-14.431-9.382-27.845-16.265-41-21.035-21.554-7.816-42.548-10.28-64.217-7.534-48.08,6.073-92.52,40.979-121.325,69.2-9.143,8.978-18.444,18.923-27.63,29.555-16.423,18.958-32.173,39.254-47.407,58.881-26.3,33.868-51.147,65.87-79.508,92.309-37.375,34.836-80.64,54.023-118.3,54.023a93.742,93.742,0,0,1-35.4-6.548,85.33,85.33,0,0,1-17.914-10.121c-22.4-16.265-37.418-42.828-50.3-69.091-8.942-18.219-15.907-39.8-20.364-54.463-6.019-19.75-10.777-34.66-17.24-46.753-.573-1.074-1.147-2.13-1.748-3.151-21.124-36.086-42.563-34.026-56.736-32.653-.688.07-1.361.123-2.021.176l-1.361.106c-7.9.7-17.727,1.443-30.811,1.69-3.425.07-7.108,0-11.006-.07" transform="translate(-110.975 -194.155)" fill="url(#linear-gradient-28)"/>
      </g>
      <g id="Group_30" data-name="Group 30" transform="translate(45.83 454.75)">
        <path id="Path_46" data-name="Path 46" d="M109.61,289.091c4.944-.616,9.616-1.2,13.887-1.9a281.463,281.463,0,0,0,33.09-7.956c.674-.194,1.347-.37,2.035-.563l1.691-.475c13.686-3.855,39.152-11.037,63.314,25.137.659,1,1.3,2.024,1.949,3.063,7.638,12.551,13.442,29.449,18.73,45.679,5.546,17.022,12.267,36.631,20.02,53.072,15.176,32.213,28.475,55.326,47.822,71.01a85.63,85.63,0,0,0,17.312,11.072c42.778,20.12,102.867,4.154,153.1-40.627,29.966-26.7,55.991-59.814,83.563-94.861,13.958-17.761,28.4-36.121,43.308-53.442,9.172-10.667,18.386-20.63,27.372-29.608,28.59-28.5,72.686-64.109,120.508-72.031a136.627,136.627,0,0,1,64.99,4.876c13.471,4.3,27.114,10.685,41.7,19.574,18.43,11.231,36.6,25.26,55.833,40.117,15.377,11.882,31.27,24.169,47.364,34.924,12.253,8.15,25.495,16.071,40.5,24.2,12.482,6.777,25.767,13.5,40.585,20.56,27.157,12.85,54.385,24.01,79.78,34.149l3.654,1.479c19.819,7.956,40.3,16.195,61.781,23.957a513.365,513.365,0,0,0,70.651,19.75c37.146,7.464,85.3,11.935,103.684-9.294l1.233,1.584c-18.931,21.863-67.656,17.427-105.217,9.875A514.446,514.446,0,0,1,1193,402.594c-21.51-7.763-42-16-61.823-23.975l-3.669-1.461c-25.409-10.157-52.666-21.334-79.866-34.2-14.847-7.059-28.146-13.8-40.657-20.578-15.047-8.168-28.346-16.124-40.642-24.309-16.137-10.791-32.058-23.077-47.45-34.977-19.2-14.822-37.332-28.833-55.69-40.011-14.474-8.819-28-15.174-41.359-19.416a134.619,134.619,0,0,0-64.288-4.823c-47.407,7.833-91.216,43.232-119.62,71.538-8.957,8.96-18.128,18.888-27.272,29.5-14.875,17.286-29.307,35.628-43.265,53.372-27.616,35.118-53.7,68.3-83.778,95.125-36.114,32.2-77.329,49.6-113.7,49.6a96.115,96.115,0,0,1-41.1-8.713,88.221,88.221,0,0,1-17.656-11.283c-19.633-15.931-33.061-39.254-48.381-71.731-7.81-16.564-14.56-36.279-20.135-53.372-5.245-16.089-10.992-32.829-18.5-45.186-.616-1-1.247-2.007-1.892-2.975-21.654-32.407-43.122-29.59-61.537-24.38l-1.705.458c-.674.194-1.347.387-2.006.563a283.119,283.119,0,0,1-33.262,7.992c-4.3.722-8.985,1.3-13.944,1.919" transform="translate(-109.61 -194.776)" fill="url(#linear-gradient-29)"/>
      </g>
      <g id="Group_31" data-name="Group 31" transform="translate(37.848 457.189)">
        <path id="Path_47" data-name="Path 47" d="M107.769,301.455c6.75-1.76,13.113-3.433,18.874-5.281,13.786-4.4,25.323-9.611,35.5-14.205.96-.44,1.949-.863,2.938-1.3l1.132-.475c20.622-9.03,44.87-14.117,68.272,16.688.717.933,1.4,1.9,2.092,2.887,8.269,12.005,14.531,28.323,20.049,44.165l.215.634c5.775,16.564,12.325,35.346,19.6,51.453,13.485,29.8,26.254,55.942,45.959,73.668a88.193,88.193,0,0,0,17.068,12.181c41.861,22.5,103.8,8.784,154.143-34.1,31.729-27.02,59.015-61.328,87.906-97.642,12.64-15.9,25.7-32.319,39.066-47.932,9.143-10.667,18.215-20.6,27-29.537,28.174-28.587,71.654-64.708,118.774-74.372a136.182,136.182,0,0,1,65.048,2.13c13.557,3.679,27.329,9.541,42.09,17.955,20.851,11.864,41.287,27.408,62.912,43.848,13.055,9.928,26.555,20.19,40.069,29.485,11.966,8.22,25.008,16.459,39.854,25.19,12.611,7.411,25.681,14.734,40,22.356,24.363,12.938,49.4,24.978,78.777,37.9,19.977,8.837,41.631,18.184,64.618,26.686a414.267,414.267,0,0,0,70.135,18.993c52.336,9.206,89.468,3.4,104.515-16.353l1.3,1.5c-15.463,20.278-53.139,26.334-106.077,17.039a415.228,415.228,0,0,1-70.379-19.081c-23.044-8.52-44.712-17.867-64.718-26.7-29.407-12.938-54.486-25.014-78.892-37.952-14.331-7.639-27.429-14.962-40.04-22.391-14.89-8.766-27.96-17.022-39.969-25.26-13.557-9.329-27.071-19.609-40.141-29.537-21.582-16.406-41.961-31.914-62.726-43.725-14.632-8.344-28.289-14.153-41.717-17.8a134.731,134.731,0,0,0-64.374-2.112c-46.719,9.576-89.912,45.486-117.929,73.9-8.742,8.907-17.8,18.8-26.9,29.432-13.342,15.6-26.4,32-39.023,47.88-28.948,36.4-56.292,70.781-88.149,97.907-34.509,29.4-74.435,45.186-109.789,45.186-16.753,0-32.474-3.538-46.1-10.861a89.829,89.829,0,0,1-17.4-12.445c-20.006-17.99-32.875-44.324-46.475-74.372-7.323-16.195-13.887-35.03-19.676-51.647l-.229-.634c-5.46-15.684-11.637-31.826-19.762-43.6-.674-.968-1.347-1.9-2.035-2.816-22.643-29.784-45.286-25.348-66.366-16.124l-1.132.493c-.989.422-1.963.845-2.909,1.285-10.218,4.612-21.8,9.84-35.684,14.276-5.8,1.848-12.181,3.52-18.945,5.3" transform="translate(-107.769 -195.338)" fill="url(#linear-gradient-30)"/>
      </g>
      <g id="Group_32" data-name="Group 32" transform="translate(29.665 459.371)">
        <path id="Path_48" data-name="Path 48" d="M105.882,315.249c8.613-3.344,16.738-6.5,24.076-9.858,14.589-6.707,27.53-14.346,37.934-20.49,1.419-.845,2.895-1.69,4.385-2.535,21.9-12.463,47.722-21.247,73.216,8.256.759.88,1.49,1.8,2.236,2.728,9.258,11.864,15.993,28.217,21.367,42.652,1.318,3.538,2.651,7.164,4.013,10.843,4.973,13.536,10.118,27.531,15.606,40.222,12.726,29.379,24.749,57.121,44.1,76.326a90.79,90.79,0,0,0,16.81,13.325c41.574,25.172,103.942,14.082,155.2-27.584,33.577-27.284,62.139-62.824,92.362-100.459,11.264-14.012,22.9-28.5,34.709-42.37,9.1-10.685,18.057-20.613,26.627-29.467,39.969-41.314,80.439-67.841,117.026-76.731a136.15,136.15,0,0,1,65.134-.616c13.743,3.133,27.63,8.467,42.462,16.335,23.617,12.5,47.636,30.594,70.852,48.091,10.433,7.851,21.21,15.966,31.915,23.552,11.766,8.326,24.234,16.635,39.224,26.175,12.84,8.15,25.724,16.054,39.381,24.151,26.484,15.6,51.19,28.833,77.8,41.648,15.42,7.446,38.808,18.448,63.8,27.918a346.182,346.182,0,0,0,69.6,18.254c52.208,7.833,89.625-.493,105.346-23.429l1.376,1.408c-16.136,23.535-54.113,32.125-106.937,24.186a346.017,346.017,0,0,1-69.92-18.325c-25.051-9.488-48.481-20.507-63.93-27.971-26.641-12.832-51.4-26.087-77.917-41.718-13.686-8.1-26.584-16.019-39.438-24.186-15-9.541-27.5-17.867-39.3-26.211-10.705-7.6-21.5-15.719-31.944-23.588-23.173-17.444-47.134-35.5-70.637-47.95-14.7-7.8-28.461-13.1-42.075-16.195a135.143,135.143,0,0,0-64.46.616c-36.286,8.819-76.47,35.188-116.223,76.255-8.541,8.837-17.469,18.73-26.541,29.379-11.78,13.836-23.417,28.323-34.666,42.317-28.963,36.068-58.929,73.351-92.649,100.758-33.233,27.02-71.139,41.278-105.16,41.3-18.974,0-36.744-4.436-51.82-13.572a91.954,91.954,0,0,1-17.14-13.589c-19.633-19.486-31.743-47.422-44.555-77.012-5.517-12.744-10.676-26.774-15.664-40.346-1.347-3.679-2.68-7.305-4-10.843-5.317-14.258-11.966-30.4-21.038-42.018-.717-.915-1.433-1.813-2.178-2.658-24.721-28.6-49.871-20.032-71.224-7.868-1.49.845-2.952,1.69-4.371,2.517-10.433,6.161-23.417,13.836-38.077,20.56-7.38,3.4-15.535,6.566-24.162,9.91" transform="translate(-105.882 -195.841)" fill="url(#linear-gradient-31)"/>
      </g>
      <g id="Group_33" data-name="Group 33" transform="translate(21.296 461.332)">
        <path id="Path_49" data-name="Path 49" d="M103.952,330.464c10.533-5.369,20.479-10.421,29.479-15.7,14.188-8.326,26.67-17.039,40.356-26.756,1.533-1.091,3.124-2.183,4.729-3.292,21.826-14.91,50.416-28.393,78.118-.176.817.827,1.605,1.69,2.379,2.57,7.925,8.977,14.933,21.669,22.7,41.12,2.594,6.548,5.259,13.554,7.825,20.349,3.769,9.946,7.667,20.226,11.594,29.713l1.935,4.665c12.253,29.678,22.843,55.308,40.3,74.337a94.2,94.2,0,0,0,16.566,14.452c41.259,27.848,104.057,19.381,156.264-21.053,35.483-27.5,66.71-66.046,96.905-103.311,9.831-12.146,20.02-24.714,30.252-36.79,9.2-10.879,17.785-20.49,26.24-29.414C709.6,239.07,748.4,212.472,784.883,202.1c22.141-6.39,43.48-7.5,65.22-3.38,13.8,2.57,27.8,7.376,42.821,14.716,26.87,13.272,53.956,33.6,80.138,53.266,7.337,5.527,14.933,11.231,22.414,16.705,11.336,8.256,23.245,16.617,38.593,27.144,13.242,9.065,26.3,17.8,38.794,25.947,27.874,18.131,52.279,32.548,76.8,45.4,23.445,12.34,43.451,21.6,62.984,29.168a298.042,298.042,0,0,0,69.089,17.5c52.164,6.372,89.883-4.471,106.192-30.506l1.419,1.338c-16.7,26.668-54.959,37.811-107.8,31.351a299.526,299.526,0,0,1-69.448-17.585c-19.576-7.587-39.639-16.881-63.142-29.238-24.563-12.868-49.012-27.32-76.942-45.486-12.5-8.15-25.566-16.9-38.823-25.982-15.363-10.509-27.272-18.888-38.622-27.161-7.5-5.474-15.1-11.2-22.442-16.7-26.125-19.627-53.139-39.906-79.866-53.108-14.89-7.27-28.776-12.04-42.434-14.575-21.511-4.084-42.62-2.992-64.532,3.327-36.214,10.28-74.75,36.737-114.532,78.614-8.441,8.889-17,18.483-26.182,29.309-10.218,12.076-20.393,24.626-30.224,36.772-30.267,37.353-61.565,75.991-97.221,103.61-31.987,24.785-67.943,37.652-100.6,37.652-21.21,0-41.015-5.422-57.467-16.529a95.216,95.216,0,0,1-16.9-14.733c-17.713-19.293-28.361-45.1-40.7-74.988l-1.935-4.665c-3.941-9.523-7.839-19.821-11.622-29.784-2.565-6.777-5.231-13.783-7.81-20.314-7.667-19.187-14.546-31.667-22.3-40.451-.76-.862-1.533-1.708-2.322-2.5-26.7-27.214-53.454-15.068-76.1.4-1.605,1.091-3.181,2.183-4.715,3.274-13.715,9.734-26.225,18.483-40.47,26.844-9.043,5.3-19.017,10.368-29.579,15.737" transform="translate(-103.952 -196.294)" fill="url(#linear-gradient-32)"/>
      </g>
      <g id="Group_34" data-name="Group 34" transform="translate(12.754 463.053)">
        <path id="Path_50" data-name="Path 50" d="M101.982,347.059c12.5-7.8,24.291-15.138,35.068-22.725,15.377-10.843,29.565-22.268,42.778-33.04,1.648-1.355,3.339-2.693,5.073-4.049,22.987-18.043,53.182-35.311,83-8.608.86.775,1.705,1.584,2.537,2.412,8.5,8.5,16.137,21.071,24.018,39.589,4.228,10.016,8.412,20.947,12.454,31.527,2.279,5.932,4.529,11.847,6.779,17.532,1.39,3.538,2.766,7.059,4.113,10.526,10.447,26.844,20.321,52.175,36.229,71.15a98.447,98.447,0,0,0,16.323,15.579c40.929,30.505,104.157,24.661,157.324-14.54,37.49-27.654,70.078-67.595,101.592-106.233,8.355-10.262,17.011-20.859,25.667-31.139,9.2-10.914,17.656-20.507,25.867-29.326,39.5-42.352,77.7-69.76,113.558-81.431,22.2-7.323,43.551-9.312,65.277-6.126,14,2.024,28.131,6.3,43.208,13.1,30.7,13.977,61.193,37.107,90.7,59.462,3.884,2.94,7.767,5.9,11.651,8.819,11.651,8.749,24.061,17.937,37.934,28.112,13.026,9.611,25.881,18.941,38.192,27.742,29.177,20.789,52.551,35.945,75.825,49.165,22.356,12.727,42.677,22.672,62.153,30.418a259.859,259.859,0,0,0,68.573,16.74c51.319,4.929,90.342-8.749,107.052-37.6l1.448,1.268c-17.082,29.5-56.679,43.549-108.642,38.515a260.261,260.261,0,0,1-68.989-16.846c-19.533-7.763-39.926-17.743-62.354-30.506-23.316-13.237-46.733-28.428-75.954-49.253-12.325-8.8-25.179-18.148-38.22-27.76-13.872-10.174-26.283-19.363-37.962-28.129q-5.8-4.383-11.651-8.819c-29.421-22.3-59.846-45.38-90.37-59.269-14.947-6.742-28.934-10.984-42.792-12.973-21.511-3.169-42.649-1.179-64.618,6.055-35.584,11.6-73.546,38.832-112.841,80.973-8.183,8.8-16.624,18.36-25.8,29.256-8.642,10.262-17.3,20.859-25.667,31.1C598.948,386.454,566.288,426.5,528.6,454.3c-30.725,22.655-64.819,34.255-96.117,34.255-23.431.018-45.3-6.478-63.056-19.715a100.51,100.51,0,0,1-16.638-15.9c-16.137-19.24-26.068-44.746-36.587-71.767-1.361-3.468-2.723-6.971-4.127-10.526-2.236-5.686-4.5-11.6-6.779-17.55-4.027-10.562-8.2-21.476-12.411-31.456-7.782-18.219-15.262-30.576-23.574-38.885-.8-.81-1.619-1.6-2.451-2.341-28.948-25.929-58.5-8.977-81,8.678-1.72,1.338-3.411,2.693-5.044,4.031-13.242,10.791-27.444,22.25-42.878,33.111-10.82,7.6-22.643,14.98-35.154,22.778" transform="translate(-101.982 -196.691)" fill="url(#linear-gradient-33)"/>
      </g>
      <g id="Group_35" data-name="Group 35" transform="translate(4.443 464.522)">
        <path id="Path_51" data-name="Path 51" d="M100.065,364.729c14.331-10.526,27.874-20.472,40.442-30.646,16.509-13.466,31.986-27.355,45.2-39.325,1.763-1.584,3.568-3.186,5.417-4.788C215.328,268.9,247.2,247.917,279,272.948c.917.722,1.806,1.461,2.694,2.253,9.186,8.132,17.24,20.226,25.337,38.04,6.162,13.642,11.809,28.763,17.283,43.391l1.748,4.665c1.92,5.122,3.769,10.21,5.589,15.226,9.372,25.753,18.229,50.08,32.889,69.108a101.341,101.341,0,0,0,16.065,16.723c39.94,32.636,105.074,29.344,158.385-8.027,39.6-27.742,73.546-69.161,106.364-109.19,6.85-8.379,13.944-17.022,20.995-25.436,9.215-11,17.555-20.578,25.495-29.273,39.009-42.634,76.627-70.833,111.81-83.771,22.241-8.256,43.609-11.16,65.363-8.872,14.188,1.461,28.447,5.21,43.58,11.477,35.268,14.716,69.247,41.085,102.122,66.574,12.267,9.488,24.821,19.275,37.3,29.1,13.356,10.544,25.394,20.05,37.59,29.555,21.3,16.529,46.848,35.751,74.836,52.9,21.754,13.361,41.817,23.728,61.336,31.667a227.81,227.81,0,0,0,68.057,15.983c51.261,3.644,90.571-12.656,107.9-44.676l1.491,1.215c-17.684,32.688-57.61,49.34-109.488,45.661a229.711,229.711,0,0,1-68.516-16.106c-19.6-7.974-39.754-18.377-61.58-31.773-28.06-17.2-53.655-36.455-74.979-53.02-12.21-9.506-24.262-19.011-37.6-29.555-12.482-9.8-25.022-19.592-37.289-29.08-32.789-25.436-66.7-51.734-101.749-66.362-14.99-6.214-29.106-9.928-43.15-11.371-21.525-2.253-42.692.616-64.7,8.784-34.924,12.868-72.328,40.891-111.136,83.314-7.925,8.678-16.237,18.219-25.437,29.2-7.036,8.414-14.13,17.057-20.98,25.418-32.9,40.134-66.94,81.659-106.736,109.56C486,493.986,420.087,497.26,379.617,464.184a103.361,103.361,0,0,1-16.38-17.039c-14.861-19.31-23.775-43.8-33.219-69.725q-2.73-7.525-5.575-15.209l-1.748-4.665c-5.46-14.593-11.106-29.678-17.226-43.25-7.968-17.515-15.85-29.379-24.821-37.318-.86-.757-1.72-1.5-2.608-2.183-30.912-24.327-62.139-3.714-85.9,16.969-1.834,1.584-3.626,3.186-5.374,4.77-13.227,11.97-28.733,25.876-45.286,39.377-12.6,10.192-26.14,20.155-40.5,30.7" transform="translate(-100.065 -197.029)" fill="url(#linear-gradient-34)"/>
      </g>
      <g id="Group_36" data-name="Group 36" transform="translate(41.946 465.755)">
        <path id="Path_52" data-name="Path 52" d="M108.715,344.012c17.111-15.649,33.549-31.755,47.622-45.609q2.816-2.746,5.747-5.527c23.46-22.2,58.6-48.971,92.778-25.436.96.651,1.906,1.355,2.823,2.077,9.745,7.622,18.473,19.557,26.67,36.508,7.094,14.751,13.242,31.333,18.831,47.07,2.264,6.39,4.443,12.815,6.535,19.046,8.455,25.049,16.452,48.724,30.066,67.947a106.021,106.021,0,0,0,15.821,17.849c39.467,35.135,105.031,34.519,159.445-1.5,41.889-27.988,77.329-71.045,111.595-112.693q7.911-9.637,15.864-19.2c9.3-11.178,17.512-20.719,25.122-29.2,39.109-43.584,75.108-71.749,110.061-86.13,22.285-9.206,43.695-13.009,65.449-11.618a149.446,149.446,0,0,1,43.938,9.858C923.539,221.3,958.808,248.2,989,272.334c11.78,9.382,23.76,19.222,36.658,30.065q9.028,7.631,17.957,15.209,9.544,8.133,19.046,16.142c22.643,19.081,47.249,39.149,73.833,56.663,21.238,14.029,41.044,24.785,60.519,32.9a203.126,203.126,0,0,0,67.541,15.244c51.176,2.306,90.829-16.564,108.757-51.77l1.5,1.162c-18.272,35.892-58.484,55.114-110.333,52.791a204.3,204.3,0,0,1-68.043-15.35c-19.576-8.15-39.453-18.958-60.792-33.04-26.655-17.568-51.319-37.67-74-56.787-6.334-5.334-12.668-10.738-19.046-16.142q-8.921-7.578-17.942-15.209c-12.883-10.843-24.864-20.666-36.63-30.03-30.095-24.063-65.234-50.872-101.463-64.637a147.815,147.815,0,0,0-43.523-9.752c-21.525-1.391-42.706,2.376-64.776,11.495-34.724,14.276-70.522,42.3-109.445,85.673-7.581,8.467-15.778,17.99-25.065,29.15q-7.953,9.558-15.864,19.187c-34.351,41.771-69.863,84.933-112,113.063-55,36.42-121.34,36.966-161.337,1.355a107.374,107.374,0,0,1-16.122-18.184c-13.815-19.486-21.855-43.32-30.367-68.563-2.092-6.214-4.256-12.639-6.521-19.011-5.56-15.666-11.68-32.178-18.73-46.806-8.054-16.652-16.6-28.358-26.1-35.787-.9-.7-1.806-1.373-2.737-2.024-32.889-22.637-65.807,1.6-90.815,25.26q-2.923,2.773-5.718,5.527c-14.073,13.853-30.539,29.96-47.679,45.644" transform="translate(-108.715 -197.314)" fill="url(#linear-gradient-35)"/>
      </g>
      <g id="Group_37" data-name="Group 37" transform="translate(39.009 466.753)">
        <path id="Path_53" data-name="Path 53" d="M108.037,354.14c17.77-17.9,35.154-36.174,50.058-51.911,1.978-2.077,4.013-4.189,6.091-6.284,24.577-24.926,61.451-55.554,97.636-33.833,1,.6,2.006,1.25,2.981,1.919,10.39,7.164,19.547,18.606,27.988,34.959,6.263,12.2,12.181,26.827,18.63,46.066,2.494,7.411,4.83,14.945,7.079,22.215,7.667,24.644,14.89,47.932,27.644,67.454A110.439,110.439,0,0,0,361.722,453.7c39.181,37.688,105.174,39.747,160.506,5.017,44.211-27.918,80.984-72.611,116.553-115.809,3.669-4.471,7.323-8.925,11.006-13.361,9.6-11.6,17.469-20.842,24.735-29.115,38.693-43.989,74.134-72.928,108.327-88.489,22.313-10.174,43.766-14.874,65.521-14.364a147.536,147.536,0,0,1,44.325,8.238c37.934,13.026,74.277,40.61,101.706,63.194,11.522,9.47,23.3,19.627,36.028,31.034q12.167,10.958,24.176,22,6.105,5.6,12.21,11.16c21.21,19.31,46.088,41.49,72.844,60.413,20.794,14.7,40.313,25.858,59.7,34.132a182.255,182.255,0,0,0,67.026,14.487c51.075.968,91.087-20.472,109.6-58.864l1.533,1.127c-18.859,39.1-59.43,60.888-111.164,59.938a183.786,183.786,0,0,1-67.584-14.61c-19.49-8.308-39.123-19.539-60-34.308-26.842-18.976-51.763-41.208-73.016-60.554q-6.1-5.545-12.224-11.16c-8.011-7.323-16.051-14.681-24.162-21.986-12.7-11.407-24.449-21.528-35.956-31C966.1,248.348,929.9,220.87,892.222,207.932a145.756,145.756,0,0,0-43.881-8.15c-21.525-.51-42.778,4.137-64.862,14.223C749.5,229.46,714.262,258.258,675.74,302.036c-7.266,8.256-15.1,17.5-24.706,29.08q-5.5,6.654-11.006,13.343C604.372,387.8,567.5,432.6,523.045,460.672c-55.919,35.1-122.715,32.952-162.426-5.246A112.518,112.518,0,0,1,344.754,436.1c-12.926-19.786-20.207-43.232-27.917-68.052-2.25-7.252-4.586-14.769-7.065-22.162-6.406-19.117-12.3-33.639-18.5-45.714-8.269-16.036-17.211-27.231-27.358-34.22-.931-.669-1.906-1.285-2.881-1.866-35.254-21.159-71.511,9.013-95.716,33.551q-3.1,3.142-6.062,6.267c-14.9,15.737-32.3,34.009-50.086,51.928" transform="translate(-108.037 -197.544)" fill="url(#linear-gradient-36)"/>
      </g>
      <g id="Group_38" data-name="Group 38" transform="translate(36.085 467.529)">
        <path id="Path_54" data-name="Path 54" d="M107.363,364.422c18.429-20.155,36.759-40.61,52.48-58.195,2.092-2.341,4.242-4.682,6.42-7.024C192,271.55,230.608,237.119,268.771,256.957c1.061.546,2.107,1.144,3.124,1.76,11.049,6.689,20.636,17.62,29.307,33.41,6.707,12.216,12.74,26.95,18.444,45.063,2.608,8.256,5,16.705,7.323,24.873,6.936,24.468,13.485,47.58,25.523,67.471a114.308,114.308,0,0,0,15.334,20.1c38.765,40.293,105.2,45.028,161.566,11.53,46.6-27.777,84.71-74.16,121.569-119.012l6.091-7.411c7.209-8.766,15.75-19.064,24.363-29.062,38.321-44.429,73.188-74.143,106.593-90.813,22-11.019,44.068-16.776,65.592-17.128a143.9,143.9,0,0,1,44.7,6.619c31,9.523,63.256,29.062,101.491,61.5,11.307,9.576,22.886,20.049,35.383,32.019,8.943,8.573,17.957,17.444,26.684,26.017l9.1,8.942c22.227,21.775,46.074,44.658,71.869,64.144,20.364,15.4,39.611,26.985,58.871,35.4a165.091,165.091,0,0,0,66.51,13.73c51.09-.334,91.359-24.38,110.462-65.958l1.562,1.074c-19.447,42.282-60.262,66.732-112.01,67.084h-.932a166.574,166.574,0,0,1-66.18-13.871c-19.39-8.467-38.751-20.1-59.229-35.593-25.867-19.539-49.771-42.493-72.041-64.3l-9.1-8.942c-8.713-8.573-17.727-17.427-26.67-26-12.468-11.935-24-22.391-35.283-31.949-38.063-32.266-70.135-51.717-100.918-61.187a143.663,143.663,0,0,0-44.239-6.531c-21.3.352-43.15,6.055-64.948,16.951-33.19,16.564-67.885,46.137-106.034,90.39-8.6,9.963-17.125,20.261-24.334,29.009l-6.091,7.411c-36.959,44.993-75.18,91.5-122.042,119.452-56.98,33.85-124.22,28.992-163.515-11.847a116.462,116.462,0,0,1-15.606-20.472c-12.2-20.155-18.8-43.426-25.781-68.052-2.307-8.15-4.7-16.582-7.294-24.8-5.661-17.955-11.637-32.565-18.258-44.623-8.5-15.473-17.856-26.158-28.619-32.671-.989-.616-2.006-1.179-3.024-1.708-37.246-19.381-75.28,14.61-100.646,41.859-2.178,2.341-4.3,4.682-6.392,7.006-15.735,17.6-34.064,38.04-52.494,58.212" transform="translate(-107.363 -197.723)" fill="url(#linear-gradient-37)"/>
      </g>
      <g id="Group_39" data-name="Group 39" transform="translate(88.063 468.105)">
        <path id="Path_55" data-name="Path 55" d="M119.351,310.378c31.428-36.913,72.815-76.907,114.145-58.424,22.356,10,39.9,36.086,52.136,77.523,2.623,8.889,5,18.1,7.294,26.985,6.033,23.412,12.267,47.633,23.675,68.017,37.06,66.257,119.462,72.013,177.717,39.307C543.43,436.2,582.84,388.042,620.946,341.465c8.211-10.034,16.7-20.4,25.122-30.365C688.8,260.51,746.814,201.945,816.591,198.055c72.371-4.031,137.992,53.882,181.085,97.8,9.272,9.453,18.63,19.328,27.687,28.869,41.631,43.884,84.681,89.281,136.43,112.429,61.981,27.724,145.243,12.815,177.316-60.078l1.577,1.039c-32.545,73.949-116.811,89.141-179.494,61.1-52.064-23.289-95.243-68.809-136.989-112.834-9.043-9.523-18.4-19.4-27.673-28.833-42.864-43.69-108.155-101.3-179.852-97.291-69.189,3.855-126.857,62.1-169.377,112.411-8.412,9.963-16.9,20.331-25.093,30.347-38.22,46.718-77.745,95.038-127.143,122.762-30.4,17.057-66.252,23.588-98.382,17.867-24.907-4.436-59.272-18.078-81.557-57.913-11.551-20.666-17.828-45.028-23.9-68.6-2.293-8.889-4.658-18.06-7.266-26.9-12.052-40.8-29.235-66.45-51.075-76.2-40.4-18.078-81.227,21.475-112.282,57.931" transform="translate(-119.351 -197.856)" fill="url(#linear-gradient-38)"/>
      </g>
    </g>
  </g>
</svg>
